<mxfile host="Electron" agent="Mozilla/5.0 (Windows NT 10.0; Win64; x64) AppleWebKit/537.36 (KHTML, like Gecko) draw.io/28.0.6 Chrome/138.0.7204.100 Electron/37.2.3 Safari/537.36" version="28.0.6" pages="3">
  <diagram name="Page-1" id="Ahh6-BPIqK_a0EwacAEo">
    <mxGraphModel dx="753" dy="524" grid="1" gridSize="10" guides="1" tooltips="1" connect="1" arrows="1" fold="1" page="1" pageScale="1" pageWidth="850" pageHeight="1100" math="0" shadow="0">
      <root>
        <mxCell id="0" />
        <mxCell id="1" parent="0" />
        <mxCell id="I8qibZhIPxtH1z5OAuDZ-18" value="" style="rounded=0;whiteSpace=wrap;html=1;" vertex="1" parent="1">
          <mxGeometry x="110" y="170" width="510.75" height="290" as="geometry" />
        </mxCell>
        <mxCell id="I8qibZhIPxtH1z5OAuDZ-12" value="" style="edgeStyle=orthogonalEdgeStyle;rounded=0;orthogonalLoop=1;jettySize=auto;html=1;" edge="1" parent="1" source="I8qibZhIPxtH1z5OAuDZ-4">
          <mxGeometry relative="1" as="geometry">
            <mxPoint x="540" y="340" as="targetPoint" />
          </mxGeometry>
        </mxCell>
        <mxCell id="I8qibZhIPxtH1z5OAuDZ-4" value="" style="rounded=0;whiteSpace=wrap;html=1;" vertex="1" parent="1">
          <mxGeometry x="138.5" y="240" width="100" height="200" as="geometry" />
        </mxCell>
        <mxCell id="I8qibZhIPxtH1z5OAuDZ-1" value="" style="sketch=0;aspect=fixed;pointerEvents=1;shadow=0;dashed=0;html=1;strokeColor=none;labelPosition=center;verticalLabelPosition=bottom;verticalAlign=top;align=center;fillColor=#00188D;shape=mxgraph.azure.file" vertex="1" parent="1">
          <mxGeometry x="165" y="310" width="47" height="50" as="geometry" />
        </mxCell>
        <mxCell id="I8qibZhIPxtH1z5OAuDZ-5" value="" style="image;aspect=fixed;html=1;points=[];align=center;fontSize=12;image=img/lib/azure2/analytics/Data_Lake_Store_Gen1.svg;" vertex="1" parent="1">
          <mxGeometry x="540" y="314" width="64" height="52" as="geometry" />
        </mxCell>
        <mxCell id="I8qibZhIPxtH1z5OAuDZ-6" value="Data source" style="text;html=1;align=center;verticalAlign=middle;resizable=0;points=[];autosize=1;strokeColor=none;fillColor=none;" vertex="1" parent="1">
          <mxGeometry x="143.5" y="250" width="90" height="30" as="geometry" />
        </mxCell>
        <mxCell id="I8qibZhIPxtH1z5OAuDZ-7" value="csv file" style="text;html=1;align=center;verticalAlign=middle;resizable=0;points=[];autosize=1;strokeColor=none;fillColor=none;" vertex="1" parent="1">
          <mxGeometry x="158.5" y="390" width="60" height="30" as="geometry" />
        </mxCell>
        <mxCell id="I8qibZhIPxtH1z5OAuDZ-8" style="edgeStyle=orthogonalEdgeStyle;rounded=0;orthogonalLoop=1;jettySize=auto;html=1;exitX=0.5;exitY=1;exitDx=0;exitDy=0;" edge="1" parent="1" source="I8qibZhIPxtH1z5OAuDZ-4" target="I8qibZhIPxtH1z5OAuDZ-4">
          <mxGeometry relative="1" as="geometry" />
        </mxCell>
        <mxCell id="I8qibZhIPxtH1z5OAuDZ-9" style="edgeStyle=orthogonalEdgeStyle;rounded=0;orthogonalLoop=1;jettySize=auto;html=1;exitX=0.5;exitY=1;exitDx=0;exitDy=0;" edge="1" parent="1" source="I8qibZhIPxtH1z5OAuDZ-4" target="I8qibZhIPxtH1z5OAuDZ-4">
          <mxGeometry relative="1" as="geometry" />
        </mxCell>
        <mxCell id="I8qibZhIPxtH1z5OAuDZ-13" value="ADLG 2" style="text;html=1;align=center;verticalAlign=middle;resizable=0;points=[];autosize=1;strokeColor=none;fillColor=none;" vertex="1" parent="1">
          <mxGeometry x="525" y="378" width="70" height="30" as="geometry" />
        </mxCell>
        <mxCell id="I8qibZhIPxtH1z5OAuDZ-14" value="" style="strokeColor=#dddddd;fillColor=#FFFFFF;shadow=1;strokeWidth=1;rounded=1;absoluteArcSize=1;arcSize=2;" vertex="1" parent="1">
          <mxGeometry x="320" y="280" width="110" height="44" as="geometry" />
        </mxCell>
        <mxCell id="I8qibZhIPxtH1z5OAuDZ-15" value="Scheduled&#xa;Tasks" style="sketch=0;dashed=0;connectable=0;html=1;fillColor=#757575;strokeColor=none;shape=mxgraph.gcp2.scheduled_tasks;part=1;labelPosition=right;verticalLabelPosition=middle;align=left;verticalAlign=middle;spacingLeft=5;fontSize=12;" vertex="1" parent="I8qibZhIPxtH1z5OAuDZ-14">
          <mxGeometry y="0.5" width="32" height="32" relative="1" as="geometry">
            <mxPoint x="5" y="-16" as="offset" />
          </mxGeometry>
        </mxCell>
        <mxCell id="I8qibZhIPxtH1z5OAuDZ-17" value="" style="shape=image;verticalLabelPosition=bottom;labelBackgroundColor=default;verticalAlign=top;aspect=fixed;imageAspect=0;image=data:image/png,iVBORw0KGgoAAAANSUhEUgAAAgAAAAIACAYAAAD0eNT6AAAQAElEQVR4AeydB5wV1fXHz5m3uxTBgmJvASyggMjuW4oaEDSa2ADBgho1EQugFBGMidmY/BVUrKCCGhWwZCkWbKgIUQR2WYqIomIDTaKCoNJ39835n1mKu7Dllenze597mPdm7j33nO997PzmTnkG4QUCIAACIAACIBA5AhAAkRtyJAwCIAACIAACRBAA+BaAAAiAAAiAQAQJQABEcNCRcjgI9O5dGDvp2qf3aT/0mf1yB/2zWf71TxyVf/2T7S3Lu/6fnXRd98rW4YYnz4nf8ETv6qzDDY+fU7mu9T4+6PGOli/L2g98srmua9ap/2NHWH12ufyJ+uGgiCxAIJoErKwhACwKMBBwmUCXgllZ1o674+CJLeKDJ+TmDnqqu7VjzrvhiavyBz15Y3zQk//IG/TkGF1OUntZ183R5TK1b9R+VpOVh2wqL61XtjZWXrraEP5cmD4VlhLLmPk9XfdmZTNJXtQ0C6ua6GcpNIlfNIS0/i9GwnOFTfVnlsQM8zPDpM/LY8ZXpdlb127aUzbHr39c4tf/c60u/6v2ed7Axxfq8j211/Kuf/zZ+PWPPaRC5Hatc1PeDY9fFb/hsd65A//ZPXfgY+3yBz56KESEjgQKCHhIAALAQ/joOnwE2vcb17D90CeOzR868bT44Kd+H7/hqeG6I79Xl0/nDZowKz74yQ/jg55as+nHVWWxRNnqhJgrSGSB/kd8k5gLdcc9XojuUjK3MFF/XfZV+52u66zL49QOUWus5pMi+2ggB6k1Y6YTddlJ7QyN/UIivpZJbiaSUSw0XgVFocHypsG8SJi/3rRnQkXEYz+rUPg0fv3j7+UNfOzF+PWPPpZ//eO35Q147LoOAx4/Jz7g8dz2g8YdRAUFiojwAgEQsIXANif4T7WNA/4FgaQI5A+ctGfeoCdOyB8ysVd80ISb8oZMGKNH8C/FB09cHB88YU1sjwYbY6axXEzzDXX4JDGNZOJBurxYd4ZddCfYStfvq4ayjYAlZo4ikk4qIM5RPn8Qkb/o+7Emy4vEsiCWiP03/sOhW+MDHv0mPvDRuXnXPzZFZxDujg98bEC8//iz8vqPP84SXtvc4V8QAIFkCUAAJEsK9SJDoMXAB+rFh0xsmzfkqQviQ54q0B3702rz1b6XLPMn5thi3UlNISbryNY6Sj9bd2AnKCDs2BWCQyWLmK3Zj44s0ktnRIYq8wfJ4Ols8LJYPWOjioPvVBgUqT2Xf/2jt+UNHN8374bxeSoO9nIoJrgFgUAS2BE0BMAOElhGjkDv3oWxvMFPHpc3ZNIl8cET74wPnjA9PmjiZ02y9tmo0/JLWPg5PSL9q4K5WC1frakaSsYEdPedsY9qHeyvnuNqF4jQX5h4EptcrOLgRxUH38YHjp8dH/joozprMKTDgEe7QBhUyxArI0QAAiBCgx3lVLsUPFE/b+ikvPyhE/rFh056OD544vyVh25dzxRbpkeUE4loGBGfRUzNiSimhhIuAgdoOr8mkj/qGI82SWbFcnhdfMD4T/MHjHsuPmDcTfnXj+va5XLc3aCcUEJN4JfkIAB+YYF3ISLQYdCzR8aHTLwsPmTC43lDJi7d9HPWet3RF4vwOD26v0Z3AtYRfYMQpYxUUifA2uQoIb6AiEeJyW9valT2g84SvKaCYLB1bQHhBQIhJgABEOLBjVJq7Yc+c2zekElX5Q+ZNDE+ZNIq00h8ScRPqV2pf+VbE1GWGgoI1EWgoQrEM4j4HmZaFh8w/hu1x/IHjju9t54yIrxAIOAEKodvVP6A9yAQFAIdBxc20R3+JbrDf053+P+Liblcd/TWLXSXaA6HqaGAgB0EDtHTBn8QoRkrD1j3TX7/cfd36D/Omj2ywzd8gICnBCAAPMWPzlMh0H7Yc83jQ58enDd40qwEl36nO/yJQqTTt3RgKn5QFwTSJHCgMF1vMs3XUwQr8vuPvzX/hketawvSdIdmIOA2gar9QQBU5YFPPiPQcfCk1vmDJ92hR/nLYonyz3R61pqa7aJhYkpfIaB4RqCFsPxNEubK/P6PPJF33XjrNlDPgkHHIJAOAQiAdKihjaME2g8v3Cs+eNI18SFPFyeYl+pR1wjt8Dg1FBDwG4F6wnw5G7I43n/c2yoGzqWCAvxd9dsoIZ4KArv+gy/qrkTw2TMC+UOfbp839OlxsfKy/xDzwxpInhoKCASDAFNXFQMvxNcc9IGeIuhNJByMwBFlVAlAAER15H2Sd/t+47Lzh0y6Us/tf6Ln80v0L2Y/DW0PNRQQCCqBViRUGO8/fk5e/0dOCWoSiDtsBHbPBwJgdyZY4wKBLhUP5nnmuljjRiuE+XHt8mg1FL8SUHXm19B8HFcnFbT/zr/u4VfjAx9p6+M4EVpECUAARHTgvUq7zY0T9sgbOmnopvU5XzDJWI3jCDUUEAgtARW4Z5JJJfn9H77b+v6HNlEk5msC1QUHAVAdFaxzgIBwfMjTveubsY+Y+G7t4CA1FBCICoEsIR5af/OmT+IDxp0XlaSRp78JQAD4e3xCEV3esKdPyB/6zHxiKlQ73L2kxL2u0BMIJEfgEBJ5Pj7gkWfwDIHkgKGWHQSq9wEBUD0XrLWBgHWBX/zGp4ezyUW6K47b4BIuQCBNAvoNTLOlI82ELpLyxLLcAePPdMQ/nIJAEgQgAJKAhCqpE7CezR9r3LiYhEdq6xw1FBAAgaoE9jPEfCW//8P3W2K56iZ8AgH7CNTkCQKgJjJYnzaBvCFPXx4jKlEHeDqaQkABgVoIsBBfH8uSmR2vefiQWuphEwjYTgACwHak0XVo/Vpa3tBn7mPmJ5QC7uVXCCggkBQBppMTMVqc1/+RbknVRyUQSJpAzRUhAGpmgy0pELBub1p1eNl0JrohhWbVV5XqV2MtCISbADfV/z+vxa975LJw54ns/EIAAsAvIxHgOE4Y9MTeDczsGUKMC5oCPI4I3RcEsonpyfiAhwt8EQ2CCDyB2hKAAKiNDrbVSSB/4KQ9c2L13hKWznVWRgUQAIFkCDAJ/TXe/+FHrNNqyTRAHRBIhwAEQDrU0KaCQMfBhQ2knvGSfmivhgICIGAvgatX7v/D1FYFhbiLxl6uEfJWe6oQALXzwdYaCQiXG+X/1COVX9dYBRtAAAQyJXBuo9U/PNeloCCL8AIBmwlAANgMNCru4kOeu5WJLoxKvsgTBDwk0GPTmv0fp4IC/L32cBCC2HVdMeMLVRchbN+NQIcbn+1CLLfutgErQAAEnCEgfFl89QGPEonqbme6gNfoEYAAiN6YZ5Rx+6HP7GeKPKNO8N1RCCgg4CKBK+P9x93hYn/oKtAE6g4ef8TrZoQalQjERO7Xj/glP4WAAgLuE5Dh+QMeusL9ftFjGAlAAIRxVB3KKX/Yc6cT88UOuQ+JWwlJHkjDrwRE+KH4gEdy/Rof4vIHgWSigABIhhLqkHU/sojcBxQgAALJEpBkK6Zarz6JTG038IGmqTZEfRCoTAACoDINvK+RwKrDzT/oxpZqKCAAAt4TODw7kf1sF9weSHhVRyC5dRAAyXGKdK0uBbOyhOWWSENA8iDgPwLdNn934J/8FxYiCgoBCICgjJSHcW7a+F0P7f5wNRQQAAEfERBDbuk4YFxrH4WEUHxAINkQIACSJRXleiIDg5T+ofs2oi6tD6PLTj2OhpyXS7f06UC3X3Yy3dw7nwad254uPOVY6nTswbRv4wZBSguxgsDuBIRyEqb5uHWNzu4bsQYEaicAAVA7n8hvzRv29AkK4WQ13xbDYMo/5iD6ywUdaPqtPWjqn86lUZefQv1/144uOPlYOie/BXVrewSd1+EouuiUljT43Fy696pT6dW/9aJ/DT+bLFFw7KFNfJsfAgOBOgjkrWq6dnAddbA5MgSSTxQCIHlWkazJpuHbo/+G9bKpb5eW9NKfz6MH+p1KZ8Wb0/57NUxpnI48YC+66Nct6akhv6Wnb/wdndH+VxRTQZGSE1QGAY8JCMlt+Vc/cpTHYaD7gBGAAAjYgLkZbvt+47KJuaebfSbTl8GsR/Mt6PlbzqXrzz6Rmqa406+pjxYH70N/69uZnr3pbIoffVBN1bAeBPxIoIHE5C4/BoaY3CWQSm8QAKnQilhdo9GepxDJ3n5K+6Ame9D4AadXnM/fe496joR2xP570oPXdKcCFQPWLIMjncApCNhP4Nz8ax/qYL9beAwrAQiAsI6sHXnF5Gw73Njl46RWh9BEnapvfeR+drms1c+Z7ZvRhCG/o2YH+koD1RozNkabgMl8W7QJRD371PKHAEiNV6Rqs/A5fkn4rLxmdOcVv6bGDXJcDemwpo1p/MDf0InND3C130h2JpHM2takmei0/OvGdrXVKZyFlgAEQGiHNrPE8ocWtlIPv1LzvPToeBT95cKOnl2cZ4mO+/p1o3YQAZ5/FxBAEgSE/55ELVQJIYFUU4IASJVYROoLlXfyQ6pd2xxGN/XM8zyUetkxuuvKLtQcpwM8HwsEUDsBYeqcd+1Dv669FraCABEEAL4F1RJg5ni1G1xcedh+jSvu7bfu83ex2xq7smYCRl3Rhfaon11jHW82YO7cG+5+7HXbd0H//w7wY3SIyUkCqfuGAEidWSRa6J+RXC8TzYoZdPtlJ/luZ3tY08Y0rKfn2sjLoUHfgSAg5+UPfODQQISKID0jAAHgGXr/dtyl4In6Gt3xap6VC085ho4+ZB/P+q+t4zNzm1HeUQfWVgXbQMBrAllUnnWp10Ggf/cIpNMTBEA61ELeZtOGeu00Rc/mufdpVI/+eFprDcG/ZUiPPLIeSOTfCBFZ1AkIEwRA1L8EdeQPAVAHoChuZjKOJQ9fF51yLDWol+VhBHV3bT0boGsb/EBi3aRQw0MCLXOvedgS8x6GgK7dIZBeLxAA6XELdSuTzSO9SrB+dhb16ny0V92n1O8lXY9LqT4qg4DbBAzDPNftPtFfcAhAAARnrFyLlIU8EwBdWh9KjXx3lT1V+2p1+L64LbBaMljpHwIMAeCfwXAsknQdG+k2RLtQE/BMAJx2whGBAtstYPEGCi6CtYPACe37jcMvW9lBMoQ+IABCOKiZp8SePAEwZjC1a7Z/5uG76AG/GugibHSVFoGsbBMPBUqLXFAapR8nBED67ELZsnfvwpgmdrCa6+XYQ5v47r7/uiC0Onw/apDj7wsW68oB28NNQMTsEu4MkV26BCAA0iUX0nYrW2zeW1OzRIAu3C2/OmAvdzu0oTdr1uLwpnva4AkuQMAhAsIdHPIMtz4gkEkIEACZ0Ath29iWBp49fSeoO9LD94cACOF/hfCkxNSqy+UVD/cKT07IxBYCEAC2YAyPk0R2wpoBqCEhqWG9PautBwDZ48ldL/s0sh6c6G6f6A0EUiCQvWWPjdave6bQBFWDQSCzKCEAMuMXutYs3MSrpBrW8+zhgxmlvEdA484oaTQOFAGhWDAerhEoqsEPFgIg+GNoawYmiWenAAy2NRXXAvEeqwAAEABJREFUnPnl1wpdS7iiI2dngyq6wD+2EdD/1y1scwZHviGQaSAQAJkSDFl7NqWxVylt2lruVdcZ9btxS1lG7dEYBJwmYAg3d7oP+A8eAQiA4I2ZoxHrcV2Oox3U4vznTaW1bPXvpp83bfVvcIgMBJSAkODnK5VDuErm2UAAZM4wVB4MMjw7Ef/ND+sDyfLrNcGMO5CwEXS6BJqm2xDtwksAAiC8Y5tWZiaZnj3V5svvfkorZi8biU6ZfBXAuL1khr49IbCvJ72iU8cI2OEYAsAOimHyYXg3A/DRqrVUWm4GiuYX3/5I6zcH89RFoEAj2EwJNMzUAdqHjwAEQPjGNLOMRDw7BbClrJyWrVydWfwut16w4n8u94juQCAtAvXSaoVGPiVgT1gQAPZwDI8XFs9OAVgQZy792loExmYuWRmYWBFopAlAAER6+KtPHgKgei6RXWsIe3o3/puLVwbmNMA3a9bTBwGbsYjsFzvqiTPhbz2F52VXJvhS2EUSfmwh8NOmrfT6wi9t8eW0k2ffWU7WRYBO9wP/IAACIOAEAQgAJ6jCZ0YEnpr5ISVMyciH041X/7SJXpr/mdPdwD8IgAAI7ELAvo8QAPaxhCebCHzzwwYqnPOJTd6ccTP25cV6qiLhjHN4dY6Av3Wlc3nDMwhUQwACoBooWOU9gfGvf0Df/bjJ+0CqiaBkxbf0+qIvqtmCVSAAAiDgLAE7vUMA2EkTvmwjsGlrGd0ycQ6VJ/z1XIB1G7ZQwTPv4dy/bSOdiiMcvqdCC3VBoC4CEAB1EcJ2zwh88NUaGvvKEs/637VjS4zcOmkOWef/d92GzyAAAiDgPAF7e4AAsJcnvNlM4Jl/L6dJsz6y2Wvq7qyr/e8onE/Fn+LBP6nTQwsQAAE/EoAA8OOoIKYqBMa8spgsIVBlpYsfrDsS/vHcXHp5wecu9oquQAAEQKAqAbs/QQDYTRT+bCdgHX3f/9IiuueFha7fHmg953/oY29j52/7qMIhCICA1wQgALweAfSfNIF/vfsxXfvQm/Ttuo1Jt8mk4ocr19Clo1+heR//NxM3aAsCIAACNhCw3wUEgP1M4dFBAu9/uZouvPNleuyNDxy7D9866r/nhQV01YOv0//WbnAwG7gGARAAAe8IQAB4xx49p0lgc2k5PTpjKV2kQuCF+Z/ZJgSsHf/jKix63f4i/eudj10/3ZAmDjQDARCIAAEnUoQAcIIqfLpCwHpi4B2Ti+icv79Ao58voaVfrSYzxUcIby1L0Nzl/6G/Pv0enf23aTT+9ffpp41b7Ykft63bwxFeQAAEHCEAAeAIVjh1k4D1cB7r0cFXPfgGdf/LZBr6+Gx66JUl9HLx5xW37S3Tc/kff7OWrNMH1vn8aXM/pftfXEjXjNX6txTS4EdnVfwAkTWz4Gbc6AsEQAAEkiPgTC0IAGe4wqtHBDZuKaM5H/2Hnnr7Q/r7v+bRwHEz6Q8PvE6/v/dV6jdmBg169G0aNbW44rbCxZ9/b9vpA4/SRbcgAAIgkDYBCIC00aEhCIAACIAACDhPwKkeIACcIgu/IAACIAACIOBjAhAAPh4chAYCIAACIBB1As7lDwHgHFt4DiwBXL4f2KGzPXB8F2xHCoe+IQAB4JuhQCAgAAIgAAIgUJWAk58gAJykC98gAAIgAAIg4FMCEAA+HRiEBQIgAAIgEHUCzuYPAeAsX3gHARAAARAAAV8SgADw5bAgKBAAARAAgagTcDp/CACnCcM/CIAACIAACPiQAASADwcFIYEACIAACESdgPP5QwA4zxg9gAAIgAAIgIDvCEAA+G5IEBAIgAAIgEDUCbiRPwSAG5TRBwiAAAiAAAj4jAAEgM8GBOGAAAiAAAhEnYA7+UMAuMMZvYAACIAACICArwhAAPhqOBBMdAngR2dCM/YYytAMpVeJuNUvBIBbpNEPCIAACCRFAAoiKUyolDEBCICMEcIBCIAACIAACNhFwD0/EADusUZPIAACIAACIOAbAhAAvhkKBAICIAACIBB1Am7mDwHgJm30BQIgAAIgAAI+IQAB4JOBQBggAAIgAAJRJ+Bu/hAA7vJGbyAAAiAAAiDgCwIQAL4YBgQBAiAAAiAQdQJu5w8B4DZx9AcCdhLALeN20oQvEIgUAQiASA03kgUBEAABEPAnAfejggBwnzl6BAEQAAEQAAHPCUAAeD4ECAAEQAAEQCDqBLzIHwLAC+o+7jM7y7zXLDebV2/S3Eyka6RtkzRT6+00bm6a6ZqhbWsw0fU1Wqy5KelaQttuN9Jl0qbMKQ1jbcM6JmkYC13k468iQgMBEHCYAASAw4CD5n7OyL7rSu7r+wUsXQZXKrtgmMmJ/wbt+4l4QSCcBLzJCgLAG+7oFQRAAARAAAQ8JQAB4Cl+dA4CIAACIBB1Al7lDwHgFXn0CwIgAAIgAAIeEoAA8BA+ugYBEAABEIg6Ae/yhwDwjj16BgEQAAEQAAHPCEAAeIYeHYMACIAACESdgJf5QwB4SR99gwAIgAAIgIBHBCAAPAKPbkEABEAABKJOwNv8IQC85Y/eQQAEQAAEQMATAhAAnmBHpyAAAiAAAlEn4HX+EABejwD6BwEQAAEQAAEPCEAAeAAdXYIACIAACESdgPf5QwB4PwaIAARAAARAAARcJwABkALyLgWzsvKGPHtY7rCpnfOGFV4QHzZlcN5Nk/8Sv2nyyLzhhffl3VQ4Ln/Y5InxmwoLq9gw/Wy7PVcYH1bJbtT3SdmzhfEb3bantc8UbIjW3WmTCuNDHLBB6rNGm1AYH5SuPaVtXbQbtK8bniiMp2FExt9S+PrbVFVs8hNxNy5jlJIuf5RFvy5M2kq0bskpheKULVDfFXZSoSxI2h6TBZ0flJLOf9PlIG13kSw4ubPM7XiICLm+L/TDNziSSdcFvv3wwr3yhk89JX9Y4Q35w6c8Eb9p8nvx4ZO/2bRpzRbOylplsDmHmZ8jlnuY6DYiGc5CN+j7fsJyifrvnZyJ1kvXSNu6bKKxpmUap6RgpHVtMY2XajDW9TWa9s82WEo5aDw1xVrneo01pb621dfvaxf9nqKAQN0EWNqRK/+HU/1/sO27rAkk8/fwD1pvgOZxqy7v1b/bzxCZcyjb+IZKOm+Q4s4lak9WiIOSk/KlpH221gt1gQAg4dwRU9rpDv4m3dFPjt805bOY8DoW89/CfJ+IXK7fgE4kdIguY2ooIAACIAAC4SLQgJjaq/1e/9bfS6bMJ7P+z1Lc6S0p7nijFHc+zt50/eEtkgKg043T9o+PmNw776Yp4+LDp35tmLRIB32UDsn5RNJcl3pwpP+igAAIgAAIRJVAfU28GxHfpfuFZVLc6WMp6lSgMwTHUEhekREAHW8pPCQ+Ysqw+PApi8tj5rckXMhM/WjbkX1IhhNpgAAIgAAIOETgGJ0h+CuJLNdZgVlS3PkCWdYqh9J4+aVJqAVAx8GFDawjfd3xT0+UG1/pzv5OBX+CGo7wFQIKCIAACIBAygR0/8FddFbgOdq0z0qdFRguJe0bpuzFBw0MH8Rgewgdhk09MX/4lImJHGMNCReS0FnaSZYaCgiAAAiAAAjYREAO1FmBkWTW+1JPDQxQIZDEhYM2dW2Dm1AJgPzh006yjvZNQ0qEyLoaP5CqzIZxhQsQAAEQAAH3COyvpwYepES9j/T0wBnudZtZT8EXAAUFRt7wKWfHh08tFpJ3tx/tc2ZY0BoEQAAEQAAEUiTA1EJbvCYLOhZKUXxffb9b8dOKQAuA3BFTusc3t17KxC8p1Dw1FBAAARAAARDwloBQb+LYh7KgUy9vA6m990AKgA43TWup5/hfNYTf1PRCeX+m5oUCAv4goOfT/BEIogCBQBE4QE8LTJHiDhNl50WC/oo/UAKg/dDp++WPmHK/yfKBEJ/pL5SIBgRAAARAAAR2JcCXkJk9VxZ1OmLXLV5/DowAyBs+7apYVukXIny9QqvhiXyim1BAAARAAARAwE8EuC2VU4kUd/y1n6LyvQCoeGrf8CkvMMl4BddYDQUEkiAAMZgEpIhUwXchIgPt8zRlPw1whhR3sB4vr2+9L74WADrd36s8Jh8S8bmEFwiAAAiAAAgElkBF4PVI+J9S1GFgxSeP//GlAMgvmLRn/vBpE3W6f4rysVSTLlBAAARAAARAIPAEmIjv94MI8J0AaD/s+eaypcFcoYqf1SW8QAAEQAAEQCDoBHaJ3xciwFcCIH7zCyfHYjJPQeHWPoWAAgIgAAIgEFoC20VAx6u9ytA3AiB/xPP9SMyZCqKpGkpUCeB6raiOPPIGgRATqDE1FQEyVoriv6uxhoMbPBcAXQpmZeWNmDpOp/zHaZ6B+iEFjRcFBEAABEAABDIhECMynpHiPNdnvj0VAO37jcvevHndv5i4Xyb00BYEQAAEQAAE/Eogibj2JIlNk3dP2ieJurZV8UwAtCoozIk1afovYeppWzZwBAIgAAIgAALBJHA01Sv/l8zqkuVW+J4IAGvn32hLVqEm2UMNBQRAAARAAARCSiCFtIROowZb/5RCi4yqui4ArJ3/HluyJmvUeLiPQkABARAAARAAgZ0EWP4i8zrk7/zs4BtXBUDv3oUxPfKfykTnOJgTXIMACIAACICALwikEUQWGTRJTwU0SqNtSk1cFQArm8fu0+jOUkMBARAAARAAARConkALarjljuo32bfWNQGQd/O064l4AIXuhRvXQzekaSeE70La6NAQBEJJIKOk+suCDt0z8lBHY1cEQN6IaWew0Og6YsFmEAABEAgJAYjBkAykl2kwmfSwrDiznlNBOC4A8oZPOU7P+T+nCbh2a4P2lVzB/9HkOKEWCIAACIBAygRsaNCCfljr2C8HOioAThrx8j7MsVcVwl5qKCAAAiAAAiAAAqkQYL5V5nQ+OJUmydZ1VABs5dKHiOTwZINBPRAAARAAARAIBwHbsmhM2eZI27xVcuSYAMgb8fzlet7/wkp94S0IgAAIgAAIgEDKBOQSmZ/fIeVmdTRwRADkjpjSjEnur6NvbAYBEAABEACBUBKwOSkmg28jm1+2CwDr1/0Mik3SOPdUQwEBEAABEAABEMiUgNBpUhQ/OVM3ldvbLgA2bfnxFu2goxoKCIAACIAACESQgEMpi3GrnZ5tFQDthz3fXIO7WQ0FBEAABEAABEDATgJM3aU47xS7XNoqAGIxts77O/bQAruShh8QAAEQAAEQcIqAo34lZtssgG0CIH/E86cTye8cTRzOQQAEwkkAD+UK57giKwcISDcpiufa4dgWAdCqoDBH//8+aEdA8AECIAACIAACwSXgQuTC/e3oxRYBsMfmrCEazNFqKCAAAiAAAiAAAk4SYLlI5ucfkGkXGQuAvGGFBzKzdeV/prGgfdIEdL4l6bqoCAIgAAIg4BYBd/rhemTwVZn2lbEA4FiOdfTfKNNA0B4EQCAdAhCD6VALZxt8F8I5rjVlJddKSfvsmrYmsz4jASiDbnQAABAASURBVNBxcGETIrkmmY5QBwRAAARAAATCTcDF7IQOJjO7RyY9ZiQAEvWyrZ8pbJxJAGgLAiAAAiAAAiCQBgFTLk+j1c4maQuANjfO2EO9DFBDAQEQAAEQAIHIE3AdANPpehrgoHT7TVsANMjefK12up8aCgiAAAiAAAiAgPsEYmRmXZxut2kJgBYDX61nigxOt1O0AwEQAAEQAIFwEfAoG6Er0u05LQGwb8MtPZjo4HQ7RTsQ8JSAeNo7OgcBEAABOwkcJws6tkvHYVoCQJjTVhzpBIk2IAACIAACIOBnAp7GZiYuSaf/lAVAx1umH6IddVNDAQEQAAEQAAEQ8JwA9xIhnZhPLZCUBUAiUWbddhBLrRvUBgEQAAEQAIGwEvA8ryNofoeUTwOkKACEidkSAJ5niwBAAARAAARAAAS2E2BJ+aFAKQmA+M0vnqRdtVBDAQEQAAEQAAEQICJfQGDqmWocKQkAEsHRf6qEUR8EQAAEvCYgJBmFIJzaviKjztA4TQKtZEHuMam0TX5QCwoMYjorFeeoGyYCmf39CBMJ5AICASSwNaOYmetl1D7UjX2UXHnWealEYyRbucPWE/K07v5qKCAAApEmADEYwOHPTAAI1Q9gztELmeWMVJJOWgCYLGem4hh1QQAEQAAEfENgS0aRsIkZgBoA+mx1J5nVpVGyMSUtAPQM0m+TdYp6lQjgYKkSDLwFARDwiMCaDPtNeqeSYT9onhmBHKq/pWuyLoxkKra7ubCp1muvhgICIAACIBAwAkKSmQAQxunfasfclytPTzaqpARANudY0/9J1U22Y9QDARAAARBwhwCTkZkAYLIOAgmvABBgsVcAiJAlAAKQOUIEARAAARDYlYCwfLXruhQ/75ti/UhU92mSR0tR/FfJxJbEUb0wk5yajDPUAQEQAAEQ8CEBkS/TjUoWnWwd/eMugHQBetFOOKnrAOoUAO1vnnqMxo/zPwoBBQRAAAQCSYDli7TjlljztNuGuqGvk/t1MtHVKQCyJHZKMo5QBwRAAARAwJ8EshOxDzKIDAIgA3geNbVnBkCDP1kNBQRAAARAIJgEvp37yLXfpx26MARANfB8vuowea/TEXXFWOcMgDBBANRFEdtBAARAwL8ElmYUGkubjNqjsTcEYok6Z+9rFQB5t7xwmEZ+hBoKCIAACASbgAQ7/PSj57npt7VaSsq/M2+1CrcFIDvhOq8DqFUAGKZ0cT9Ncb9L9AgCIAACYSVg0rvppibzz9yTiJO6pYzw8hcBlsxmAEymk/yVEaKJFgGIwWiNd23Z4rtQG50atzGVbmm0oajG7XVtiG0+UauwGkolAgF5e5TM6XxwbbHWOgPAAgFQGzxsAwEQAAFfExB+d+ndwzamHSNznUeRaftGQ+cJZJXXOn41CoD2wwv30uiOVUMBARAAARAIIAGdN3kto7BZPDgNnFHELjQOUBcsnWqLtkYBkBWrF9eGNW7XbSggAAIgAAI+JsCcmJ5ueLKsdw6R5KfbHu18QEC4Y21R1LyDF6m1YW1OsQ0EQAAEQMBzAvOLxw74NO0oSlfr9DE3TLt9SBsGLK22UtK+xjGsUQAIEZRfwEYa4YIACIDADgLCPGHH+/SWcnZ67dDKRwSyqTzLupCz2pBqEADCxGSdAqi2EVaCAAiAAAj4mABTKVOiMKMIhX+bUftQNg5kUh1qirpaAZD/55dbkNB+NTXCehAAARAAAR8TEH5Jp/9/SDdCWdL1OG3bQg0l+ARSEwCmWY7p/+APOjLwkoCeQ/Oye/QdbQJCZmbT/wm5KNoEq88+oGtrvJ6v2hkAQzgvoIkibBAAARCIOoFPjlzd9NV0IYjoCWChi9Ntj3a+I3CwlLQ/vLqoqhUAWrG9GgoIgAAIgEDgCMjtkyf3SaQddknXTioB8Pjf3QAGeEUiVu2s/u4CoKDAECL8+lOAxxqhgwAIRJbAFw33X/1MRtmzXJFRezT2HwGRan/QaTcBkFve7iiNvrEaCgiAAAiAQJAIMN0xu6CgPN2QZXGXvYlx/r86foFex5ycAIiZVG3FQCdfZ/A651FnHVQAARAAAV8T+HrD9/tldvGfKXr0zzU+OMbX2SO4mgkIVfssgN1mAESiKABq5oYtUSMAMRi1Ea8532B9F4Tk1o8m9ymtOZ/at4gUGCR0Te21oro18HnvL3M7HrJrFrsJACapVins2hCfQQAEQAAE/EJA5ix46LqnMopm4axexHx0Rj7Q2L8EYondZvd3EwDCdALhBQIgAAIgEBQCZcKmHrlzZlMWzMODkrDbcYaiv2ouBKwiANr/aepBOgWEJwAGbbQz+28ftGwRLwiAQGUCzPcsGDvgw8qrUn0vC7ucoW1w+7dCCG2R3S8ErCIADDJahTZ5JAYCIAACYSPAtKqhJP6RSVoixNr+NjWUagmEZCVT7acA2DRahiRVpAECIAACYSdgMvEfZz/Uf0NGiS7q2lvb4+mvCiHk5QiZ07nKLf5VZgCICTMAIf8GID0QAIHQEPh70dhr3swkG5nVJYtI/paJj7C3DVF+TDmlx1bOx6j8Qd9DACgEFBAAARDwMwGdtp99xOp9/55xjI35OvVRZaegn1HCSkC4yj4eAiCsA428QAAEwkrgOzNhXJzR8/6VjMzvdgAxjv4VRS0ldJuqnObfKQDaD52+n04FNQ1dukgIBEAABMJDoNxgunDh+Kv/l3FK2eZd6mNvNZSoEDDpuMqp7hQAWVllmAaqTAbvQQAEQMBfBIRZ+s0fc+3sTMOSJd266gHfJZn6CXv70OXHVa/z2ykAzBi3CF2ySAgEQAAEQkNAhheNue6JTNORkrMbkmmOVz+shhItAkfK+2322JHyTgFAwr/asRJLEAABEACBNAhIGm2SaSJ0Z/HY66wp+2Rq117HWD9KK+CATyHUXkK51aBNDY/ZkdlOAWAIN9uxstalU1/wWjsN40aADOOoppcTvgvpcYtGKxaeVPzQNSPsyFYWnnoqEVtX/hNeUSWQOGpH5jsFALFgBmAHFSxBAARAwBMCVcWgztE/2WD/b62f6K26IY3YZNHJTfXv/ERt+svfff2AUj2B0K5l2rmv3/lF0G9XcjMAoaWCxEAABEDAPwR05/9A0dhrrpxdUFCeaVQixMTZ/1Q/B6uhRJtAVQHQcXBhA+VxoBoKCIAACICAtwQSTDKgaOy1N5AespMdryVdbyaRs+xwFQ0fYc7SaLYju4oZALN+jqUIeMdKLEEABEAABDwhsIWZLigae91Yu3qXhV1/Q0L4sR+7gAbdT6XT/RUCICGEaaGgDyriBwEQCDqBL0TMU4rGXDvVrkTk/a7H6OT/c+ovpoaSJIFQVxM6YttvQBBVCADDgAAI9YAjORAAAb8TeD7HNHMXPNR/gV2BSkmX/ShBL6k/PO1PIaDsJJBFDTcdZn2qEABk0kHWBxgIgAAIgICrBKwp/0HFY6/pOefh69bZ1XPFw34Mnq7+jlZDSYlAJCpbp/2pQgAIMy4AjMSYI0kQAAEfEVgSY44XjbnmfjtjksLeMYqtn6Q+O6ihgEB1BA61VhrWP0w4BWBxgIFAoAhIoKJFsL8Q+JGZBjVs+m3evDFXf/DL6szfiRQY1GLNEyTcI3Nv0fQQiay3z/pXCAAiwSmASIw6kgQBEPCQgEo2nshZsWOto3477u+vnEvFvf6L//2QrrtUDQUEaibA2/b52wUAHVBzTWwBARAAARDIiADTfBHjpOKxV19WdP9V32Xkq5rGFUf+i7tYO/+rq9mMVUkTiEhF5oqD/h0CYL+IpI00QQAEQMA1Anp69T09Mj+neMw1HRc81G+uEx1XnPNf8u/HiPgawgsEkiEg2y78VwEg+h2lPZNpgzpBJ6AzkEFPAfGDgP8JWP/RXmbT7Fg09pqTFjx0jXU1viNRy4oz61GLHwpJ6ApHOoiY0wilu20GoEvB5D006Sw1FBAAgcgQsPZRkUnWnUSZ1ijV+wwxjisee83ZRQ9fN9/Jjivu81+/dab20VMNBQRSIbBNAGwta7BXKq1QFwRAAARAYCeBjTqF+i9h6bWWth66YOzVg+c/dNXynVsdeqM7/2PJMCyB0dmhLiLoNlIp7yFzOjc2ystl70iljWRBAARAIDMCXxLxI0TUI5a9sWnRmKsvXPDgNdM+e/D6rbrO8SKLu52mO3/reoLmjneGDsJLIKd0b4OyTMwAEF4gAAIgUC2BLUK0iHSHz8KXmYlE8+IxVzcrHtPv2uIxV78w794hm8mllwixLDp1OIm8pl3uo4ZiI4HIuSrP2tsQEQiAyI18GglLGm3QBAT8S+BnDW0dEX9LRB8S8TtE9Lx+ze/XKf1BurM/j4SPOeK7fRotGHN1+2Ld4ReN7Tex5OHrvtB6rhf58DdNaFE362LCkdo5fthHIaBkSMAw9zJYjAYZukFzEPAfAaFvNKh/M/GT+sf8ryR8ORl0FhN35IRxdIzq7ZtTz2iyYa969YrvvZR/scv0fbr2e2273e7TZdJ2ORffl4bdr23uv4KL07IrtV2S9oDWq2J/4OIH0rU/attq7EFdV6tdxcUPpmv9tK3amCq2l+7UmxSPueogXR6vy1/rsueCMf0GFY3pd3/R2KteLB7b79PJk/skyOOXLDz1VNpa9r4e///O41BC3H0EU2PRUwAi2RFMHSmHi8BnxPSUEN9gGNI1J4eb6A79sOJ7Lu1SdM8lVxTde8ltxfde8lTx3Ze+op/nFz3Qd8W8e/usnTOy77qPCvqUhgsFsgkLASlpn607/wL9br+pOVU8u12XKCBgDwFRAaBTADn2eIMXEHCNwEr9o/gIk5wvsbKDiu+55Kji0ZdcvuCevg/Mv/vS2daO3bVI0BEIOEBAFp/aiWJ7Ldbv+V/VvaGG4iCBaLo29jKECAIgmqMftKwXkMhNzHSc7vCP1B3+tUX3XDp1wV1XWOdwg5YL4gWBaglISfe9ZEn3h3Xju2rHqaGAgDMErBkACABn2MKrLQQ+FKabyTCb6U4/XnzvpXcVjb7kI1s8wwkI+IiA9Sx/WdTtDxSTT1ToWo/0xVG/a+MT0Y5Y9jAMNjADENHx92naWzSuyaZJpxXf07f1gtGXjCy++7IvdR0KCISSgCw69RRa/O4Cne5/TBPED7MpBBQ3CBg5hqpNXAToBmv0UQcB/o/+ARyRk0MH646/T8l9fd8iYp2gIrxAIJQE5P2u+bK423Ri/jcxnRjKJAOQVGRDZMkxTBYH/sg64DKyoxT6xD9ioss2NM5qVnx331G4gC/04x35BGVh9w4VO37TsB7le1bkgQCANwRE6hmGUMKb3tFrNAjUKAa/1B3/1Uesym5TNLrvxI9wO140vg4RzVIPs1jeP/Vs3fG/SYbMUwzY8SsE70ukI8g2iLnMdwhq3Gf4LlIElDIB+ZaY/tiw8cFH645/vB8etJJyCmgAAkkSkOIuB8qS04bTku6fkskvabPuaigg4D0B4XqGmJxZbcc8AAAQAElEQVTwPhJEEAECpXpG/wEupWN0qv/x2QVdyyOQM1KMIAGZ1aW+LDmthyzqPpWys1aRyEgiaRFBFL5POdIBMuUYxKb/ZgAiPSohTF7oDTNBLYvu6XtD0YOXWM9gD2GSSCnKBOT90/dQ0yn+7k/R3lnf6U5/ms509VQmuMhaIaD4kkC2IYxrAHw5NOEIap11nr/4novPKLmvryc/ohIOjMjCbwQq7ttf2r21LO4+SG0GibmGTNOa4r9MY91TDcX3BKIeICcMMg3MAET9e+BM/i+UlWYdY53nJ9LJf8ILBIJLQEp+c5As6f4bPcq/WZac9jK9P+cHMmmpZnSv2ukkVF+XKCAQHAIs5QaTbApOxIjU9wRENul3alDx6It7LH6wz2rfx4sAI09ACnvH5INuB8iibq1k6emn6BH9xWq36I7+MVnS/W1Zctr3lGX+l4hfJ5Hbicj6Vb69dYkSYAIIncoMIuMngAABmwgsTsRi1m1999vkL2M38sG5h8mHPU5Vu1I+Ou/vao+rvSAfnjtHlyVqn8qH531evZ2j6220Zeqrip39uSxLxc7S+jXYB7q+Wvvd5/JBKvZbrV+NLdV11dqZn8vSVO0MbVPJ3tf3ttrpn+uR+i+2RD/vau+fvkaWnL5WbRMd/WM5JYxvyTA+JFP+TcxPq/1Dv3x/IOKuRNRUDQUEwkXApHJDiNaHKytk4w0BmZho3PikhXdd+Lk3/RPJ+z321x36efJhj9Fqb8tHPX6gmLGKmGbqWYjHNa4/q12pdi4xd9Zle7WjiKnZTiN9v9O4GVEqVrkt3tNOjpmyEB2HVCyJ/oT21fj2UWughhI5AkhYCagAyBJcla0kUNImUCrM/YpH971sYcHZm9L2kkZDKemXLR+e102W97hLd/bLKJu+I+LndWc+RM06cmtCeIEACIAACFRHoMwQsxwCoDo0WJcMgbUscsaCuy96NJnKdtWRj3vlyvLzHqCGq/9LzG+R0I3qGz+dqhBQQAAE6iaAGhUEyo2y0kYQABUs8E+KBD5lQzoU3dN3Vort0qouH59zsO74b5CPei7S87QLSHigOtpPDQUEQAAEQCBVAswbjKV3n25N2+KpbKnCi3B9EVlUVpp1UtFdfVc4jUFWnNdclvccR5K1kkTu0/7aqaGAAAiAQJoE0GwbAfMng4iFiNaqBbxYaQQ8hWCE/46ZnX2q07f46dF+G/m45wQqNz5RLP3UstRQQAAEQAAE7CAgZAkAIt11fmeHP/gIPYEZMTPrjIWj+jh266h82KudHvG/rEf7S/SLeakSjamhgAAIgIAtBOBkJ4GfdQaASP+BANjJBG+qI8BEb+nOv8e8e/tsrm57puvk8957yfJe95MhC9SX9aAV7VLfoYAACIAACNhPwOAfdd+PGQDCq3YCTDMNM+scx3b+y3udTaWJZfpNvF4DwRG/QkABARBwggB87iQgvO0UAAt/u3Ml3oBAVQIlDTfGznNi5y/LexytR/3WXQTWj6gcWrVbfAIBEAABEHCQwLZTAGJYD1BxsBu4DiqBz7lMzpr9UJ8NdicgH/c8n8goVr9d1FAiQ0AikykS9R8BRFSJQFb56opTADr1imsAKnHB2woC35vl5ulF919s63dDvry8vh7130/Ck7WXvdRQIkWAI5UtkgUBnxJI0BfNvq8QAKZJ//VpkAjLGwKlLNKr5L6+X9jZvXzS61jasr5IfVrn+nWBAgIgAAJuEUA/lQh8y30mJyoEQDbxV5U24G3ECbDwwKLRF8+xE4NO+Z9DJpWozzZqKJElgFMAkR16JO4nAhXX/VUIgJ/qb12lkSXUUKJOgOmRotEXjrcTg075/16n/Keqzz3UUCJNgCOdPZL3jgB6rkxA/mN9qhAAHxX0KdUPOA2gEKJchPmDWHlsiJ0M5KPzh6u/J9TwJD+FgIIZAHwHQMBzAsIV+/sKAbA9GJwG2A4ioouNpmn2set2PxFiPfIfrf+OVJ447FMIKBYBfBUsCjC3CaC/KgSY/2d9/kUACH1prYBFlIBI/4WjL/7YjuytnT993PNJ9WXrbIL6QwEBEAABEMicwNeWi50CQJgwA0BRffH04tEXP2Vb9h/3upuILyO8QAAEQMAHBBDCLgQk8am1ZqcAYGJbb/mynIffJAwp/iBsWL+2Z0su8vH5f1FHOPJXCCggAAIg4EsCZs4KK65fBIDB1s+uWutgESIgwjcsuKtPxS0hmaYtH/e6Rn3cpoYCAiAAAj4hgDB2IfAzd577vbVupwDYmp2w5fyv5TQQFoqD90xJyzsLRl/wTKZerPay/PyeRDyW8AIBEAABEPAzgYqjfyvAnQJgSUGPH3WFLUeC6gfF/wTKYwlzABFnLIXkw94tiOmfRNYvS+u/KCAAAiDgEwIIY1cCsrsA2FZFPtq2xL9hJ6B7/fvm3XvJB5nmaT3bnwwpVD94rr9CQAEBEAABfxMwqhcAzByt0wD+HiUno1uXlYjdYUsHW9eP0aP/drb4ghMQAAEQsJUAnO1GgGXnfn7nKQCrktAvG6zPsLAS4H/Mu7fP2kyzk+W9LybiPxBeIAACIAACwSBgGot3BLqLACCcAthBJrzLVQ0bbX4o0/Tk496/IhZbfzMg05jQHgRAAAQqE8D73Qhsoq8Pq3gGgLWligAwyYQAsKiE2JjpztkFV2zJOEWWB9QHftxHIaCAAAiAQEAILLV+BnhHrFUEwMLbe1nPB8adADvohG3J9J1RHrOu1s8oM/n4/N4kdFZGTtAYBEAABBwlAOe7EWDaOf1vbasiAKwVakvUUEJJQO7Rc/+bM0lNVvTdU9vfq4YCAiAAAiAQJALCVfbvuwkAJqpSgfAKC4ENCSNrXMbJmFv+T30cooYCAiAAAr4lgMCqIWCYtc8AmEIQABTK18SFo/r8lElmsqJ3KxK+NhMfaAsCIAACIOAJgVLauEeVZ7/sNgMgWQwB4MnYONtpLGE8nHEPpvxZfcTUUEAABEDAxwQQ2m4EmEq46+wqF4DvJgBKshZbTwnasFtjrPAJAUknjnf13H8V5ZeqE/mo11Ek1CfVdqgPAiAAAiDgAwImzdk1it0EABUUmPqHfumuFfE5uASEeGLG0Rt8q/rA0b9CQAEBEPA3AURXHQHjvV3X7i4ArBosi6wFLBQEtpaV50zOJBNZcUFzbX+hGgoIgAAIgEDwCAiVbZ23a9jVCgBhKtq1Ij4Hk4AQvbzkvopfekw/gUT5zdo4Sw0FBEAABHxOAOHtToA/4VMWr951fbUCwDCyIAB2JRXQzyw8NZPQ5f1L9yDiCwgvEAABEACBYBJg2e38v5VItQKg6B9nfaYbf1BDCTaBspzs8tczSqHeZuvCv0YZ+UBjEAABEHCJALqphoDwO9WspWoFABHrzDEtILyCTYDpnTkj+67LLAm+IrP2aA0CIAACIOAhAaGs8req678GAaBVWXAaQDEEuTBJRkf/Yv3iH9FJQWaA2EEABKJEALnuRoBlCecutH7nZ7dNNQoAk3Ah4G60ArZCmGZTRi++UpuzGgoIgAAIgEAQCQjXeCBYowDIzimzZgAkiPki5goCPx/xZazKc58r1qb0j+Div5R4oTIIgICXBNB3NQRMY0Y1aytW1SgA5hX0Was1rKcC6gIlgATmTJ7cJ5Fu3LL8gqO17VFqKCAAAiAAAsEksJ72/Gm3+/93pFKjAKioILs/OrBiPf4JAAHJ7CJOTvw2AEkiRBAAARDYTgCLagjM4uM/Kq1mfcWqWgWAGPRuRS38EzgChkmZPc2RuVvgkkbAIAACIAAClQm8UvnDru9rFQAmBMCuvALzWbISaQsAEWIS6hSYZBEoCIBA5AkAwG4ETDLMl3ZbW2lFrQJg4T96fC5E/61UH2+DQWBd0Z2XfJN2qB/3Pl7bNlFDAQEQAAEQCCaBORxf8G1todcqAKyGTLgOwOIQMLOe5Jh+yMx56TdGSxAAARBwmwD6242A1P0Y+DoFgE4F4zqA3cgmuUKnT5KsaWs17fbzzByabTNrj9YgAAIgAAIeEhDKLnuhrv7rFABsGNU+Q7gux9juHQGdtclQAHAb76JHzyAAAiCQGgHU3oWAcAnnLly1y9rdPtYpAIpyFi/TVtYzAXSBEggCwumf/9+WoPUMgG3v8C8IgAAIgEDQCCT1K7B1CgAqKDCFqv8pwaARiUq8TOaadHOVr3s30LYHqaGAAAiAQAAIIMRdCAiZxpRd1lX7sW4BoM1Y+E1doASEgEnG92mHusk8QtvqWQT9FwUEQAAEQCBoBIq589ykTgMnJwCyEjU+SzhoZCIRb1bih7TzlBiO/tOGh4YgAAJuE0B/uxAQfnqXNTV+TEoAFP3jfOs3Ab6o0Qs2+IoAJ7I2ZRBQ0wzaoikIgAAIgIB3BBLEUphs90kJgG3OBKcBtoHw/b/ZRmJr+kHKvum3RUsQAAEQcJMA+tqFwFvcoei7XdbV+DFpAYDrAGpk6LsNZbF66QsAkYa+SwgBgQAIgAAIJEMg6el/y1nSAmBrfZqpDcrVUHxOIGGWZzJOOT5PD+GBAAiAQAUB/FOFwCYqz6rz4T+VWyQtAJYU9PhRiGZVboz3ISRgEARACIcVKYEACISdgDzPJ723PpUskxYA25zK5G1Lp/5VieGUa/hNjoBpcHIVUQsEQAAEvCSAvqsQMIwnq3xO4oORRJ2dVczS7Of1QybTy9ocBQRAAARAAARAwEYC39CXh6U8Q5+SAFg4+uw1eng428ag4QoEQAAEQAAEUiaABpUICD3BfSYnKq1J6m1KAmC7R4dPA2zvBQsQAAEQAAEQAIG6CFiP/p1QV6XqtqcsAEq5DKcBqiOJdSAAAiAAAi4RQDeVCLzLneZ9Vulz0m9TFgCL7+izWr2/roYCAiAAAiAAAiDgKQF5PN3uUxYAVkcGG49aSxgIgAAIgAAIuE0A/e0k8ANtapj0o393ttr+Ji0BUL/enq8SyX+2+8ACBEAABEAABEDAbQJMT3DX2VvS7TYtATC7oGs5Mz+RbqdoBwIgAAIgAALpEUCr7QSERDKajU9LAFidl5sxq+OUbzuw2sJAAARAAARAAAQyIvAG5xd/momHtAXAwlHnrCJi/EIg4QUCIAACIOAWAfSznYDQw9vfpb1IWwBYPQqZ91tLGAiAAAiAAAiAgGsEVtLmBq9k2ltGAmDByJ6vi9CiTINAexAAARAAARComwBqVBAQupe7zs74sfwZCYCKQJjvrFjiHxAAARAAARAAAacJrNOj/7Tv/a8cXMYC4MjPS6eowxVqAS34BcKADhzCBgEQiBgBpGsR4If16H+D9S5Ty1gATJ7cJ0HCozMNBO1BAARAAARAAARqJbCVYmVjaq2RwsaMBYDV19pNOU/iwUAWCRgIgAAIgIAzBOBVCUzi3IX/06UtxRYB8NmDv93KbPzFlojgBARAAARAAARAYFcCCTJid+26MpPPtggAK4Ciekuewh0BFgmXDZcwuAwc+utyfgAAEABJREFU3YEACHhBAH3KU5z33id2crBNAFBBgWnEjBvtDA6+QAAEQAAEQAAEqIyMxP/ZzcE+AaCRFd1+7iwmek3fooAACIAACICATQQi7kboUc4r+cJuCrYKACu4hCE36RK/EaAQUEAABEAABEAgQwJbiOSODH1U29x2AVBye89lInRvtb1hJQiAAAiAAAikSCDS1ZnHcIeib5xgYLsAsIJct6n+n3W5XA0FBEAABEAABEAgPQLfkVH6j/Sa1t3KEQFg3RYoYvxRuzfVUEAABEAABEAgTQIRbsY0gnMX/uQUAUcEgBXsglHnzRWmjH+u0PIFAwEQAAEQAIGIEVhIefMnOJmzYwLACjonEbtZlyvVUEAABEAABEAgZQIRbWCSSf2Z9V8HATgqAN6789z1BhsXaPylaiggAAIgAAIgAAJ1EpBHueP8ojqrZVjBUQFgxTb/jvOK9FTAMOs9bAcB2fEGSxAAARAAgRoJRHLDl1SW5co+03EBYA3fgjt6PkDEEwkvEAABEAABEACBmgiYxHwFn/Te+poq2LneFQFgBbylvOG1uvxQDQUEQAAEQAAE6iQQuQrM93B83r/dyts1AbD07t9sTLB5via2Tg0FBEAABEAABEDgFwIf0cZ6rv6qrmsCwMpx4R3nf2ywcSaRbLQ+w0AABEAABECgegKRWruBONGHu87e4mbWrgoAKzHrokCT5Dx9v1UNBQRAAARAAASiTEBI5AqOL3D9FLnrAsAa5ZKR579FxFcQOXuPo/pHAQEQAAEQCCCBCIV8G3comuJFvp4IACvR4pE9nlXVM0jfixoKCIAACIAACESLAPNLFJ9/m1dJeyYArISLR/V6kIQuJ6JyNRQQAAEQAAEQIKJIQJhHpXwJs3cz4Z4KAGuIi0f1nCBi9NT3m9VQQAAEQAAEQCDsBJZQaex3bt3vXxNMzwWAFdiCUedNN9joqu9/UEMBARAAARCIMIGQp76UKNGdT57j+S3xvhAA1mBX3B1gcBc9JfCl9RkGAiAAAiAAAiEjsIxipd04v9gXB7u+EQDWIJfc3nMZN9h8Agv9y/oMAwEQAAEQiBqB0Ob7Fm2NncK5C9f4JUNfCQALSlHBJT8X3dnrQiL+PRFtVkMBARAAARAAgQATkEfJKP2tH6b9K0P0nQDYEVzxqJ4TDJNO0s+fqaGAAAiAAAhEgEDIUkyQ8AiOz++nR/5lfsvNtwLAAjX/rl6LYqWJNsT0N/2MJwcqBBQQAAEQAIFAEPiKTOM0zp87yq/R+loAWNDm3dtnc/HIXgUxThzPJK9Z62AgAAIgAAJhJBCKnKyH242nUqMNd3hvlp8z8r0A2AFv3sg+nxWNOv+3zHI+Ma3csR5LEAABEAABEPAJga80jtM4Pu9qr+/x1zjqLIERADsyKRp5/tTE2jVH0baLBJcTXiAAAiAAAqEgEOAk1mvsfyFj63G685+p7wNRAicALKoLx19dVjyq54TiBh8cLyTn6Lr5aiggAAIgAAIg4CYB3fHz3VRGLTg+9x+cu3CTm51n2lcgBcDOpAsKzAWjzp9ePKpXR2KjGwk9q9tc/T1l7Q8FBEAABEAgYwKBcrBK9zd/pnI5kuPvDePOc78PVPTbgzW2LwO/KB7Z8+3iO8+/uHRr7CAh6qcJzVDz3W0XGhMKCIAACIBA4AjIRg35Od3xn0V5c3/F+XP/jzvNW6vrAltCIwB2jMCS+3r8qLMCjxaPOv+MHN56AJNcpNseJ1w4qBhQQAAEQMCfBHwa1dfEYu0/epNRur9O81+kO/5XmL37BT87OYVOAFSGM2dk33VFo3o/p2Lgj8Ujzz8yQeYROph9WGS01rNmCD7XZbkaCgiAAAiAQLQJ/KRH9/OJ5CES/j2ZsaN1h3845837I+fNnRK08/vJDGWoBcCuABaO6rOqeGTvyUV39r5RTxecodYi8ePahjFDjiLmM5h5AAuPFOLx2nYys7xlmb4vIaGFKRtpGw+s8XpKaMwoIFAXgQ1aYWFmJto+VSNt46Kl83+3zjaas6hRsuZivo79zUk21x31Usk5xbp1jo/621GHaK5+x99Sm6I2SXfw1t/3u/Tv+Z9I5FIy6BRKlB/Gee/tzfH3OupOvz/nz5nAHd5ZofVDXSIlAKobSeuOAusZAzpLMKNo1Plji+46/+YFd55/dfGdvfsUjepzmmX6Pq/4rt65u1sfXZeOXaDt0rULtW0lu1vf72KzH+qzobpcsQ4EqhBgWsytX8mtaq/q52qsja6r1l7P5TYZWlttX6vNyOW2qdgbWr+StdP3tdqbudwuVZupbZy0t9W/2onJ2qxcPjFFaz87l1Oyd7R+kpar9dKyd3M5NwmLa50Km5PL8Tosb05nzptzmlpvznvvUj2av1qXN3H8vTt0Zz+J27/3Lnco+qbK/42IfIi8AIjIOCNNEAABEPAtAQTmDQEIAG+4o1cQAAEQAAEQ8JQABICn+NE5CIAACESdAPL3igAEgFfk0S8IgAAIgAAIeEgAAsBD+OgaBEAABKJOAPl7RwACwDv26BkEQAAEQAAEPCMAAeAZenQMAiAAAlEngPy9JAAB4CV99A0CIAACIAACHhGAAPAIPLoFARAAgagTQP7eEoAA8JY/egcBEAABEAABTwhAAHiCHZ2CAAiAQNQJIH+vCUAAeD0C6B8EQAAEQAAEPCAAAeABdHQJAiAAAlEngPy9JwAB4P0YIAIQAAEQAAEQcJ0ABIDryNEhCPiEgNDJ8sHvpKr9Vj9XY0t1XbV2psjSVO0MbVPJ3tf3tdpvRN5PxU7X+pVsib6v1U4TWZKqddc2aouTtW4ii1OxU7W+2qJkravIolqt1Cffuu1hYOEHAhAAfhgFxAACIAACIAACLhOAAHAZOLoDARAAgagTQP7+IAAB4I9xQBQgAAIgAAIg4CoBCABXcaMzEAABEIg6AeTvFwIQAH4ZCcQBAiAAAiAAAi4SgABwETa6AgEQAIGoE0D+/iEAAeCfsUAkIAACIAACIOAaAQgA11CjIxAAARCIOgHk7ycCEAB+Gg3EAgIgAAIgAAIuEYAAcAk0ugEBEACBqBNA/v4iAAHgr/FANCAAAiAAAiDgCgEIAFcwoxMQAAEQiDoB5O83AhAAfhsRxAMCIAACIAACLhCAAHABMroAARAAgagTQP7+IwAB4L8xQUQgAAIgAAIg4DgBCADHEaMDEAABEIg6AeTvRwIQAH4cFcQEAiAAAiAAAg4TgABwGDDcgwAIgEDUCSB/fxKAAPDnuCAqEAABEAABEHCUAASAo3jhHARAAASiTgD5+5UABIBfRwZxgQAIgAAIgICDBCAAHIQL1yAAAiAQdQLI378EIAD8OzaIDARAAARAAAQcIwAB4BhaOAYBEACBqBNA/n4mAAHg59FBbCAAAiAAAiDgEAEIAIfAwi0IgAAIRJ0A8vc3AQgAf48PogMBEAABEAABRwhAADiCFU5BAARAIOoEkL/fCUAA+H2EEB8IgAAIgAAIOEAAAsABqHAJAiAQAAJGfaJGJxDtdzbRIdcSHX4T0ZG3qhXo+xG6rr9u60HUOI8o1igACfkrRETjfwIQAP4fI0QIAiBgF4HsJkRNexK1uIfo+KlEzUfpjn4g0X66o9+nO9FeJ6l1ItrnVF13rm5TYdDs/7bVPfohogP6EuUcZFc08AMCnhKAAPAUPzoHARBwhUCDFkRH3ELU8mmig68m2uM4Is6i5F9MZPk48Pfq40miZncQNWqTfPPI1UTCQSAAARCEUUKMIAAC6RGwjvitqf2jxxDtfQoR2/EnT8VA41yi5qN1JuEuovpHEF4gEEQCdvxvCGLeiBkEQCDsBPbpRnT040TWknSn7US+jU4gOuYRov17q3eH+lDPQSuINxgEIACCMU6IEgRAIFkC1tT+oUOIDruJKNYw2Vbp17P6O7gfUbO/u9Nf+pGiJQhUIQABUAUHPoAACASagNGA6Fe6I27yG/fT2DNfTwncQ2SddnC/dx/1iFCCQsAISqCIEwRAAARqJWDk6M7/NqJGJ9ZazdGNDZpvEwFZ+zjaDZyDgB0EIADsoAgfIAACHhNgosP/RLRHa4/j0O7rHULUTIWIUU8/RK8g4+AQgAAIzlghUhAAgZoIHHAR0Z4datrq/vqGxxId0t/9ftEjCKRAAAIgBVioCgIg4EMCDVsR7X+J/wLb90wi69ZD/0XmYERwHSQCEABBGi3ECgIgUJUAx7Ydadtyf39V17Z8smYB8BhhW1DCif0EIADsZwqPIAACbhFookfZ1oV3bvWXaj/WHQH7X5Bqq8DWR+DBIgABEKzxQrQgAAI7CFj33zfts+OTf5dNzyXK2su/8SGyyBIwIps5EgcBEAg2gb1OIcrZ3/85WM8msK4H8H+kGUaI5kEjAAEQtBFzOl7DFKe7gH8QsIVAk9NsceOKkyZnuNJNLZ3g/3UtcKK6CQIgqiNfU96mUVbTJqwHAd8QsKbUrefw+yagOgKpdyhRg2Z1VHJws9BWB71XuMY/wSMAARC8MXM4YhN/KBwmDPc2EGjUVp2wWoCKl08oZNoSIFII1SUCEAAugQ5MN8ybAhMrAo0uAT888S9V+o3apNrCzvoOCwA7Q4UvtwhAALhFOjD9yJrAhIpAo0ug3uHBy73+Ed7FLIz/197R923PEAC+HRqPAhP+3qOe0S0IJE/AOqeefG1/1Mw5kMi6dZG8eMlqJ3uF72ASgAAI5rg5GLXxPwedwzUI2EMga097/LjpxXpqYWwPN3us3BcEQGUaeF9BAAKgAgP+2UkgYX6l7xNqKCDgTwLWjpSz/RlbXVEZDeuq4cx2pi+ccWx5hQWVAARAUEfOobj5+Mml6nqVGgoIOEDAjtvRA3b1f2WK7FXsvKJyGHgPAhYBCACLAqwqAaGPqq7AJxDwEQEpJ5KAPq4isdEbkGI6JgC8SQi92kEAAsAOiqHzwSWhSwkJhYtA+c/By0dMIm8EQIKycj4IHjBE7DQBCACnCQfRf0wWBDFsxBwhAlv/E7xkS/+nMxc6e+F65PwRt33DoakH15NBhzYSgACwEWZoXG3Jnqu54EJAhYDiUwJbA3iZimcxQ9D79FvseVgQAJ4Pgf8C4DbPrNOoFqmhgIDNBGy6CG5jAGe0Nyy1mWWS7ljeTrJmytXQINgEIACCPX7ORc/ypnPO4RkEMiSw4X11IGoBKus90dRCZTQzQJQQqosEIABchB2orkSeD1S8CDZaBMp/JPLqiDod0tY1C5s9uBVfeAnHZ3+bTsh1t0GNoBOAAAj6CDoUPx871boT4HOH3MMtCGROYF2AJqnWvqH5ejBjYchk7RgFBKolAAFQLRasrCDAXFixxD8g4EcCP/6bqOwHP0ZWNSZzC9EPr1Rd59qnxBSnuoLf4BOAAAj+GDqXAZc/ps5NNRQQ8B8BKSNaHQCNumY6kXXKwm2CTEXc7h08AMht7gHqDwIgQIPldqh89LQviHEBkdvc0V8KBJadZcsAAA04SURBVKwj6y0+viWwfB3Rd8+kkJCNVYXG2+htF1f4GAYCEABhGEVHc5B7HXUP5yCQCQHrscD/eVA9eHB+XXuts/xnHFFiQ53VHKjwI5mNnnPAL1yGiAAEQIgG04lU+Jgpr5HQYid8wycI2ELAeibA9/+yxZWtTtbNIlrn0R14Qg9x7vRNtuZTyRnehoMABEA4xtHZLJhvd7YDeAeBDAl8N4Fo/cIMndjY3Lrl7+t7bHSYkqstlGM8kFILVI4kAQiASA57ikkfM3mqtpijhgIC/iQgJtHK24g2fuh9fNYz/7+4mci6+t+baMZz65nfOdc1PIeFAARAWEbSwTyYSSgm12sXphoKCPiTgLmV6Ku/qghY5l181gWJnw0jKlvrTQxC6ynbuN2bztFr0AhAAARtxDyKl4+aupiYJnrUPboFgeQIWBfcWUff1jMCkmthX60NS4hWDCIq9fDg26CRTh/92wcMnrwmAAHg9QgEqX/J+pOGu1ENBQT8S0BKiVbpQfB/9DS4NSvgdKSSIPp2AtHnw4kS653urRb/vIJ+FM8uPKglMGzyKQEIAJ8OjB/D4mOf+y+x6F85P0aHmEBgFwLWMwI+uZIcvRJ/0yd61H+DCoCJROL1GTK5lrvO3rILBZs/wl2YCEAAhGk0XciFj5k6Vrt5UQ0FBPxPoGyNzgbcSfTZUKKfizRem54XsHkF0cq/E306kMgSAerZ08I0lk+c5dE9h55mjs4zIAABkAG8yDbl7D9q7v9VQwGBYBDYuIzoy1uJPtYZgW/1aH3Llxp3imLA+kW/1ZOJPr1G7TqiH99J3Ye2sL0ILaPNW4bZ7rcah1gVLgIQAOEaT1ey4WOeXUPCF2tnXs95aggoIJACga2qW7+bRPSJ7sQ/vIDoq78R/e+fRGtnEP00l2jDYrX3dbZgPtG6t3Rq/ymilf9H9JF+3T++gui/jxJZ9/in0KXDVTcSGX2407zNDvcD9yEkAAEQwkF1IyVuOfnf2s/taiggEEwC5T9t2+l//xzR16OJviqgigv5PteDaWu2YJWeOvjuaSLrjgLrVIIfsxQayO3fWu5OaOglbAQgAMI2om7mc8wUnVMl/QvpZqfoCwRAoIKA0JPc/u0nCC8QSJMABECa4NCMqOIBQRuaXKGnA3SulPACARBwj8BMqrfv1e51R4S+wkcAAiB8Y+pqRpw7voyycnppp0vVUEAABJwnsIByzPP4+MmlzneFHsJMAAIgzKPrUm581NM/Uzmfrd2tUkMBARBwjsCnRGW/4+Nnb3Cui+o8Y10YCUAAhHFUPchJj0ZWkWmeQkyfedA9ugSBCBCQrymWdQaf+O7qCCSLFF0gAAHgAuSodMGtpq2k0uyTNN8P1FBAAATsIsD0BSWMLtz2DesBBnZ5TdoPKoaTgBHOtJCVVwS49bPfUVm9X2v/RWooIAACmRNYSEZWR86b+UXmruABBH4hAAHwCwu8s4kAt3lmHeUYvyHitwkvEACBDAjIbCqtd6oe+X+fgZMMm6J5WAlAAIR1ZD3Oi5tP/om+XaMigB7wOBR0DwLBJMD0HP0kZ3KH134OZgKI2u8EIAD8PkIBjo+7zi7nllNvIJK+mgYeVaoQUEAgCQLlxDSCT3j7Iv0/5Pmv+yURL6oElAAEQEAHLkhhc8tpz5CIdXHgqiDFjVidICBOOA2Tz+/JkN/ozn9UmJJCLv4kAAHgz3EJXVTcatoiyjbzNLHpaiiRJcCRzTyJxN+hskRbbvu2j66dSSJqVAksAQiAwA5d8ALnFs9/r6cEziHh32v0eJCJQkABAZ3u30IsI2hFk1M5PvtbEAEBtwhAALhFGv3sJMCtpkwgSrTWP3zv7lyJNxEhgFMAuwz0+2SaHawpf+4zObHLNs8/IoBwE4AACPf4+jY7bvnCV/S/H04lkeEa5EY1lEgQwCmA7cO8VZd/oh8TuXzirPf1PQoIuE7AcL1HdAgC2wmwdZdAq2l3Unl5S101VQ0FBMJPQGgGJWIncLuZd1j/B/ybMCILOwEIgLCPcADy49Yvfs0tp52v50G7kdDyAISMEEEgHQIriKQPnzjzDM594+N0HKANCNhJAALATprwlREBPvb5tyl7czsivpmYfiS8QkggktcA/KQ7/mGU3eR4bvf25KAMKuIMPwEIgPCPcaAy5KNe28otp46k0q3NVARY90JvClQCCBYEfiGwUd/eTZJ9lO747+bjJ5fqZxQQ8A0BCADfDAUCqUyA27yyjo+dNoKyYkduFwLWRVOVq+B9IAlE4iJA67s6Xs/z647/rWF84murgzdUiDgKBCAAojDKAc6Rj5q8ukIIxKgVCT2sqeCRwgoBxZcErCP++6is/Ehu99bVnDvjf76MEkGBwHYCEADbQWDhbwJ89LQvuNW06yhWdrgKgb9ptGvUUEDAewJM1sN7/kalcoTu+AeH4WE+3kNFBG4QgABwgzL6sI0AHzN9DR83rYA2lR9BLAPV8edqKCDgBYEiErmI1pUfpjv+As6f+YMXQaBPEEiXAARAuuTQzlMCnDt9E7d8YQy1bHu0CgHrZ4enaUBlaigg4CABWa8zUI8RGx34hLc68IkznwvfvfwO4oNrXxGAAPDVcCCYVAkwF5gqBN7gVs/3IjPrcG0/goi/JLxAwE4CQgtJ+GrKKj+Y2715Fbd9o8hO9/AFAl4QgADwgjr6dIQAHz/5WxUCo6hlmxZEfBoxPUFEP6mhgEA6BD4j5v8jjh2rO/1cbvfGeD5+9oZ0HAWpDWKNDgEIgOiMdWQyrZgVaDXtLW75/JWUveUAYvMcTX6imnWVti5QQKBGAl/rlgeI5GRq++bReqT/Z277+ie6DgUEQkcAAiB0Q4qEKhPY9mChF6dzqxcuo+ytBxNLX91eqPazGorrBHz5JMAPiXikHu13oLZvHsEnvHmDnt+fw0y+DJYcfcF5lAhAAERptCOeq4qBn7nli8+oGLiAWmY3IZNPJmLraYMrCC+XCPjiQUAJTfY9Ih5BBrXUHf7xfMIbN+vRfhF2+oRXhAhAAERosJHqLwSYJyf4+OfncKvnR6ggsO4kaKNHgEN16vd1rYXHDysEZ4onB9VWp8tI+H5iOofq199Hd/gn8QkzRnEb/ChP5XHG+2gRgACI1ngj2xoI6MzAB9zy+Xv4uBfPpO9/3EuPDHNJaIRWf0utXA0lSASYrKfwTdYd/tUUI53Wf6M1t5sxSI/yp/OxL60PUiqIFQScIgAB4BRZ+A0sAeu+bm75wkI+/sVRKghOI8o5gESPHInu1qSs278gCBREesWxUwB6Goef0h1+P8rio/TI/mDd2ffR5Xhu/YZ1YV964UaqFZKNGgEIgKiNOPJNmQAfN3mtioHpKgaGqXWg8s17645GhQHdpsvZ6hC3hikEF0upCrK52t9oYulBRvmB3HbG0dz29cu5zYxH+bgZn+k2FBAAgToIQADUAQibQWBXAnpkuZFbvfiWioG/6rIrtcrZmwxqo/X+oPaI2iI1PJVQIdhQdLZFPlA/E9QGkfDJtOfWvfT8fWduO+NGPcJ/gVvP/E63oWRIAM2jRwACIHpjjoxtJlBxQWHLFz/g4176p9q1au2p4c97kmF20hmC67Q7SxS8p0s8lEgh1FI2K68FJDRe7RoSyac9tzRWwdVGd/a/V7ufT3h9Dv9q9pZafGATCIBAkgQgAJIEhWogkAoBayfFLV+ex61eelgFgSUKTuLjX9KZgvIjded2FhHfrDu7SURiXVMQoV82tC7Ip9Wa9ztEuqMnGqLvzyQym1GbDo24zetxPuH1q9XG8Qkzii2OWg/FcQLoIIoEIACiOOrI2TMC3OrVldz6pVf4+BdH8nHTL+XjX+7Ax09vSmWxfUg4j4gvIpK/ENFTajPVlqsF7RqDHzXmpcQ0XZcP6nIYMV9AQh0pu2w/3cnvz21m/Jrb6I6+zev36pH963qU/yVzgan1UUAABFwiAAHgEmh0AwK1EeB2L/yowqCEj3/pORUF/+Djp1+u1l2tlVpjyuI9dUq8FTF1Vz+/J2Frp3q7frZOL/xLRcObRFxCRF+orVOz47HHperH8rVSl9bjcBfq8m21Z7W/B4n4ryR0HbH0IjFPITZaUQPai9u8to9aW2792jm6vF6Xd3PrVwu57WvzuSV+Mpd8+EJI0SQAARDNcUfWASNg3bvOrV9Zzse9PFMFwgRuPf1unUG4RT9fq58v1G2n67o8bv1yc7Umao3UmNZszCahJpRjNNVl8zrNlMNIuAkt3yNLd9r11NTXq0dym1ePVctV66Z2Mbd57Xpu88ptulN/mFu/Pk2P4t9lK76jXsMjlgP23UK40SUAARDdsUfmESDAXWeX6456HR8zfY0uv6jT2r72jdZZx30mW4/LjQAhpEgEBlElAAEQ1ZFH3iAAAiAAApEmAAEQ6eFH8iAAAlEngPyjSwACILpjj8xBAARAAAQiTAACIMKDj9RBAASiTgD5R5kABECURx+5gwAIgAAIRJYABEBkhx6JgwAIRJ0A8o82gf8HAAD//5nwgbIAAAAGSURBVAMAksGWwxQwAKAAAAAASUVORK5CYII=;" vertex="1" parent="1">
          <mxGeometry x="350.5" y="350" width="49" height="49" as="geometry" />
        </mxCell>
        <mxCell id="I8qibZhIPxtH1z5OAuDZ-19" value="Data&amp;nbsp;&lt;span style=&quot;background-color: transparent; color: light-dark(rgb(0, 0, 0), rgb(255, 255, 255));&quot;&gt;Architecture&lt;/span&gt;" style="text;html=1;align=center;verticalAlign=middle;whiteSpace=wrap;rounded=0;fontSize=25;fontStyle=1" vertex="1" parent="1">
          <mxGeometry x="330" y="180" width="70" height="30" as="geometry" />
        </mxCell>
      </root>
    </mxGraphModel>
  </diagram>
  <diagram id="_yL4DoO2lOA2NrQM8irj" name="Page-2">
    <mxGraphModel dx="1310" dy="873" grid="1" gridSize="10" guides="0" tooltips="1" connect="1" arrows="1" fold="1" page="1" pageScale="1" pageWidth="850" pageHeight="1100" math="0" shadow="0">
      <root>
        <mxCell id="0" />
        <mxCell id="1" parent="0" />
        <mxCell id="Nl6qYrxgCBTLw5XmiY3X-176" value="" style="rounded=0;whiteSpace=wrap;html=1;" vertex="1" parent="1">
          <mxGeometry x="330" y="80" width="930" height="740" as="geometry" />
        </mxCell>
        <mxCell id="fY_hdlFCRpe_LndXNdzT-1" value="ziko_logistics" style="shape=table;startSize=30;container=1;collapsible=1;childLayout=tableLayout;fixedRows=1;rowLines=0;fontStyle=1;align=center;resizeLast=1;html=1;" vertex="1" parent="1">
          <mxGeometry x="70" y="120" width="190" height="780" as="geometry" />
        </mxCell>
        <mxCell id="fY_hdlFCRpe_LndXNdzT-2" value="" style="shape=tableRow;horizontal=0;startSize=0;swimlaneHead=0;swimlaneBody=0;fillColor=none;collapsible=0;dropTarget=0;points=[[0,0.5],[1,0.5]];portConstraint=eastwest;top=0;left=0;right=0;bottom=1;" vertex="1" parent="fY_hdlFCRpe_LndXNdzT-1">
          <mxGeometry y="30" width="190" height="30" as="geometry" />
        </mxCell>
        <mxCell id="fY_hdlFCRpe_LndXNdzT-3" value="PK" style="shape=partialRectangle;connectable=0;fillColor=none;top=0;left=0;bottom=0;right=0;fontStyle=1;overflow=hidden;whiteSpace=wrap;html=1;" vertex="1" parent="fY_hdlFCRpe_LndXNdzT-2">
          <mxGeometry width="30" height="30" as="geometry">
            <mxRectangle width="30" height="30" as="alternateBounds" />
          </mxGeometry>
        </mxCell>
        <mxCell id="fY_hdlFCRpe_LndXNdzT-4" value="&lt;span style=&quot;font-size: 14px; white-space: pre;&quot;&gt;&lt;font face=&quot;Helvetica&quot; style=&quot;color: rgb(0, 0, 0);&quot;&gt;Transaction_ID&lt;/font&gt;&lt;/span&gt;" style="shape=partialRectangle;connectable=0;fillColor=none;top=0;left=0;bottom=0;right=0;align=left;spacingLeft=6;fontStyle=5;overflow=hidden;whiteSpace=wrap;html=1;strokeColor=#6c8ebf;" vertex="1" parent="fY_hdlFCRpe_LndXNdzT-2">
          <mxGeometry x="30" width="160" height="30" as="geometry">
            <mxRectangle width="160" height="30" as="alternateBounds" />
          </mxGeometry>
        </mxCell>
        <mxCell id="fY_hdlFCRpe_LndXNdzT-5" value="" style="shape=tableRow;horizontal=0;startSize=0;swimlaneHead=0;swimlaneBody=0;fillColor=none;collapsible=0;dropTarget=0;points=[[0,0.5],[1,0.5]];portConstraint=eastwest;top=0;left=0;right=0;bottom=0;fontColor=default;fontFamily=Helvetica;" vertex="1" parent="fY_hdlFCRpe_LndXNdzT-1">
          <mxGeometry y="60" width="190" height="30" as="geometry" />
        </mxCell>
        <mxCell id="fY_hdlFCRpe_LndXNdzT-6" value="" style="shape=partialRectangle;connectable=0;fillColor=none;top=0;left=0;bottom=0;right=0;editable=1;overflow=hidden;whiteSpace=wrap;html=1;fontColor=default;fontFamily=Helvetica;" vertex="1" parent="fY_hdlFCRpe_LndXNdzT-5">
          <mxGeometry width="30" height="30" as="geometry">
            <mxRectangle width="30" height="30" as="alternateBounds" />
          </mxGeometry>
        </mxCell>
        <mxCell id="fY_hdlFCRpe_LndXNdzT-7" value="&lt;span style=&quot;font-size: 14px; white-space: pre;&quot;&gt;&lt;font style=&quot;&quot;&gt;Date&lt;/font&gt;&lt;/span&gt;" style="shape=partialRectangle;connectable=0;fillColor=none;top=0;left=0;bottom=0;right=0;align=left;spacingLeft=6;overflow=hidden;whiteSpace=wrap;html=1;fontColor=default;fontFamily=Helvetica;" vertex="1" parent="fY_hdlFCRpe_LndXNdzT-5">
          <mxGeometry x="30" width="160" height="30" as="geometry">
            <mxRectangle width="160" height="30" as="alternateBounds" />
          </mxGeometry>
        </mxCell>
        <mxCell id="fY_hdlFCRpe_LndXNdzT-8" value="" style="shape=tableRow;horizontal=0;startSize=0;swimlaneHead=0;swimlaneBody=0;fillColor=none;collapsible=0;dropTarget=0;points=[[0,0.5],[1,0.5]];portConstraint=eastwest;top=0;left=0;right=0;bottom=0;fontColor=default;fontFamily=Helvetica;" vertex="1" parent="fY_hdlFCRpe_LndXNdzT-1">
          <mxGeometry y="90" width="190" height="30" as="geometry" />
        </mxCell>
        <mxCell id="fY_hdlFCRpe_LndXNdzT-9" value="" style="shape=partialRectangle;connectable=0;fillColor=none;top=0;left=0;bottom=0;right=0;editable=1;overflow=hidden;whiteSpace=wrap;html=1;fontFamily=Helvetica;strokeColor=#6c8ebf;" vertex="1" parent="fY_hdlFCRpe_LndXNdzT-8">
          <mxGeometry width="30" height="30" as="geometry">
            <mxRectangle width="30" height="30" as="alternateBounds" />
          </mxGeometry>
        </mxCell>
        <mxCell id="fY_hdlFCRpe_LndXNdzT-10" value="&lt;span style=&quot;font-size: 14px; white-space: pre;&quot;&gt;Customer_ID&lt;/span&gt;" style="shape=partialRectangle;connectable=0;fillColor=#f8cecc;top=0;left=0;bottom=0;right=0;align=left;spacingLeft=6;overflow=hidden;whiteSpace=wrap;html=1;fontFamily=Helvetica;strokeColor=#b85450;" vertex="1" parent="fY_hdlFCRpe_LndXNdzT-8">
          <mxGeometry x="30" width="160" height="30" as="geometry">
            <mxRectangle width="160" height="30" as="alternateBounds" />
          </mxGeometry>
        </mxCell>
        <mxCell id="fY_hdlFCRpe_LndXNdzT-11" value="" style="shape=tableRow;horizontal=0;startSize=0;swimlaneHead=0;swimlaneBody=0;fillColor=none;collapsible=0;dropTarget=0;points=[[0,0.5],[1,0.5]];portConstraint=eastwest;top=0;left=0;right=0;bottom=0;fontColor=default;fontFamily=Helvetica;" vertex="1" parent="fY_hdlFCRpe_LndXNdzT-1">
          <mxGeometry y="120" width="190" height="30" as="geometry" />
        </mxCell>
        <mxCell id="fY_hdlFCRpe_LndXNdzT-12" value="" style="shape=partialRectangle;connectable=0;fillColor=none;top=0;left=0;bottom=0;right=0;editable=1;overflow=hidden;whiteSpace=wrap;html=1;fontFamily=Helvetica;strokeColor=#6c8ebf;" vertex="1" parent="fY_hdlFCRpe_LndXNdzT-11">
          <mxGeometry width="30" height="30" as="geometry">
            <mxRectangle width="30" height="30" as="alternateBounds" />
          </mxGeometry>
        </mxCell>
        <mxCell id="fY_hdlFCRpe_LndXNdzT-13" value="&lt;span style=&quot;font-size: 14px; white-space: pre;&quot;&gt;Product_ID&lt;/span&gt;" style="shape=partialRectangle;connectable=0;fillColor=#d5e8d4;top=0;left=0;bottom=0;right=0;align=left;spacingLeft=6;overflow=hidden;whiteSpace=wrap;html=1;fontFamily=Helvetica;strokeColor=#82b366;" vertex="1" parent="fY_hdlFCRpe_LndXNdzT-11">
          <mxGeometry x="30" width="160" height="30" as="geometry">
            <mxRectangle width="160" height="30" as="alternateBounds" />
          </mxGeometry>
        </mxCell>
        <mxCell id="Nl6qYrxgCBTLw5XmiY3X-1" style="shape=tableRow;horizontal=0;startSize=0;swimlaneHead=0;swimlaneBody=0;fillColor=none;collapsible=0;dropTarget=0;points=[[0,0.5],[1,0.5]];portConstraint=eastwest;top=0;left=0;right=0;bottom=0;fontColor=default;fontFamily=Helvetica;" vertex="1" parent="fY_hdlFCRpe_LndXNdzT-1">
          <mxGeometry y="150" width="190" height="30" as="geometry" />
        </mxCell>
        <mxCell id="Nl6qYrxgCBTLw5XmiY3X-2" style="shape=partialRectangle;connectable=0;fillColor=none;top=0;left=0;bottom=0;right=0;editable=1;overflow=hidden;whiteSpace=wrap;html=1;fontColor=default;fontFamily=Helvetica;" vertex="1" parent="Nl6qYrxgCBTLw5XmiY3X-1">
          <mxGeometry width="30" height="30" as="geometry">
            <mxRectangle width="30" height="30" as="alternateBounds" />
          </mxGeometry>
        </mxCell>
        <mxCell id="Nl6qYrxgCBTLw5XmiY3X-3" value="&lt;span style=&quot;font-size: 14px; white-space: pre;&quot;&gt;Quantity&lt;/span&gt;" style="shape=partialRectangle;connectable=0;fillColor=#d5e8d4;top=0;left=0;bottom=0;right=0;align=left;spacingLeft=6;overflow=hidden;whiteSpace=wrap;html=1;fontFamily=Helvetica;strokeColor=#82b366;" vertex="1" parent="Nl6qYrxgCBTLw5XmiY3X-1">
          <mxGeometry x="30" width="160" height="30" as="geometry">
            <mxRectangle width="160" height="30" as="alternateBounds" />
          </mxGeometry>
        </mxCell>
        <mxCell id="Nl6qYrxgCBTLw5XmiY3X-4" style="shape=tableRow;horizontal=0;startSize=0;swimlaneHead=0;swimlaneBody=0;fillColor=none;collapsible=0;dropTarget=0;points=[[0,0.5],[1,0.5]];portConstraint=eastwest;top=0;left=0;right=0;bottom=0;fontColor=default;fontFamily=Helvetica;" vertex="1" parent="fY_hdlFCRpe_LndXNdzT-1">
          <mxGeometry y="180" width="190" height="30" as="geometry" />
        </mxCell>
        <mxCell id="Nl6qYrxgCBTLw5XmiY3X-5" style="shape=partialRectangle;connectable=0;fillColor=none;top=0;left=0;bottom=0;right=0;editable=1;overflow=hidden;whiteSpace=wrap;html=1;fontColor=default;fontFamily=Helvetica;" vertex="1" parent="Nl6qYrxgCBTLw5XmiY3X-4">
          <mxGeometry width="30" height="30" as="geometry">
            <mxRectangle width="30" height="30" as="alternateBounds" />
          </mxGeometry>
        </mxCell>
        <mxCell id="Nl6qYrxgCBTLw5XmiY3X-6" value="&lt;span style=&quot;font-size: 14px; white-space: pre;&quot;&gt;Unit_Price&lt;/span&gt;" style="shape=partialRectangle;connectable=0;fillColor=#d5e8d4;top=0;left=0;bottom=0;right=0;align=left;spacingLeft=6;overflow=hidden;whiteSpace=wrap;html=1;fontFamily=Helvetica;strokeColor=#82b366;" vertex="1" parent="Nl6qYrxgCBTLw5XmiY3X-4">
          <mxGeometry x="30" width="160" height="30" as="geometry">
            <mxRectangle width="160" height="30" as="alternateBounds" />
          </mxGeometry>
        </mxCell>
        <mxCell id="Nl6qYrxgCBTLw5XmiY3X-7" style="shape=tableRow;horizontal=0;startSize=0;swimlaneHead=0;swimlaneBody=0;fillColor=none;collapsible=0;dropTarget=0;points=[[0,0.5],[1,0.5]];portConstraint=eastwest;top=0;left=0;right=0;bottom=0;fontColor=default;fontFamily=Helvetica;" vertex="1" parent="fY_hdlFCRpe_LndXNdzT-1">
          <mxGeometry y="210" width="190" height="30" as="geometry" />
        </mxCell>
        <mxCell id="Nl6qYrxgCBTLw5XmiY3X-8" style="shape=partialRectangle;connectable=0;fillColor=none;top=0;left=0;bottom=0;right=0;editable=1;overflow=hidden;whiteSpace=wrap;html=1;fontColor=default;fontFamily=Helvetica;" vertex="1" parent="Nl6qYrxgCBTLw5XmiY3X-7">
          <mxGeometry width="30" height="30" as="geometry">
            <mxRectangle width="30" height="30" as="alternateBounds" />
          </mxGeometry>
        </mxCell>
        <mxCell id="Nl6qYrxgCBTLw5XmiY3X-9" value="&lt;span style=&quot;font-size: 14px; white-space: pre;&quot;&gt;Total_Cost&lt;/span&gt;" style="shape=partialRectangle;connectable=0;fillColor=none;top=0;left=0;bottom=0;right=0;align=left;spacingLeft=6;overflow=hidden;whiteSpace=wrap;html=1;fontFamily=Helvetica;strokeColor=#6c8ebf;" vertex="1" parent="Nl6qYrxgCBTLw5XmiY3X-7">
          <mxGeometry x="30" width="160" height="30" as="geometry">
            <mxRectangle width="160" height="30" as="alternateBounds" />
          </mxGeometry>
        </mxCell>
        <mxCell id="Nl6qYrxgCBTLw5XmiY3X-10" style="shape=tableRow;horizontal=0;startSize=0;swimlaneHead=0;swimlaneBody=0;fillColor=none;collapsible=0;dropTarget=0;points=[[0,0.5],[1,0.5]];portConstraint=eastwest;top=0;left=0;right=0;bottom=0;fontColor=default;fontFamily=Helvetica;" vertex="1" parent="fY_hdlFCRpe_LndXNdzT-1">
          <mxGeometry y="240" width="190" height="30" as="geometry" />
        </mxCell>
        <mxCell id="Nl6qYrxgCBTLw5XmiY3X-11" style="shape=partialRectangle;connectable=0;fillColor=none;top=0;left=0;bottom=0;right=0;editable=1;overflow=hidden;whiteSpace=wrap;html=1;fontColor=default;fontFamily=Helvetica;" vertex="1" parent="Nl6qYrxgCBTLw5XmiY3X-10">
          <mxGeometry width="30" height="30" as="geometry">
            <mxRectangle width="30" height="30" as="alternateBounds" />
          </mxGeometry>
        </mxCell>
        <mxCell id="Nl6qYrxgCBTLw5XmiY3X-12" value="&lt;span style=&quot;font-size: 14px; white-space: pre;&quot;&gt;Discount_Rate&lt;/span&gt;" style="shape=partialRectangle;connectable=0;fillColor=none;top=0;left=0;bottom=0;right=0;align=left;spacingLeft=6;overflow=hidden;whiteSpace=wrap;html=1;fontColor=default;fontFamily=Helvetica;" vertex="1" parent="Nl6qYrxgCBTLw5XmiY3X-10">
          <mxGeometry x="30" width="160" height="30" as="geometry">
            <mxRectangle width="160" height="30" as="alternateBounds" />
          </mxGeometry>
        </mxCell>
        <mxCell id="Nl6qYrxgCBTLw5XmiY3X-13" style="shape=tableRow;horizontal=0;startSize=0;swimlaneHead=0;swimlaneBody=0;fillColor=none;collapsible=0;dropTarget=0;points=[[0,0.5],[1,0.5]];portConstraint=eastwest;top=0;left=0;right=0;bottom=0;fontColor=default;fontFamily=Helvetica;" vertex="1" parent="fY_hdlFCRpe_LndXNdzT-1">
          <mxGeometry y="270" width="190" height="30" as="geometry" />
        </mxCell>
        <mxCell id="Nl6qYrxgCBTLw5XmiY3X-14" style="shape=partialRectangle;connectable=0;fillColor=none;top=0;left=0;bottom=0;right=0;editable=1;overflow=hidden;whiteSpace=wrap;html=1;fontColor=default;fontFamily=Helvetica;" vertex="1" parent="Nl6qYrxgCBTLw5XmiY3X-13">
          <mxGeometry width="30" height="30" as="geometry">
            <mxRectangle width="30" height="30" as="alternateBounds" />
          </mxGeometry>
        </mxCell>
        <mxCell id="Nl6qYrxgCBTLw5XmiY3X-15" value="&lt;span style=&quot;font-size: 14px; white-space: pre;&quot;&gt;Sales_Channel&lt;/span&gt;" style="shape=partialRectangle;connectable=0;fillColor=none;top=0;left=0;bottom=0;right=0;align=left;spacingLeft=6;overflow=hidden;whiteSpace=wrap;html=1;fontColor=default;fontFamily=Helvetica;" vertex="1" parent="Nl6qYrxgCBTLw5XmiY3X-13">
          <mxGeometry x="30" width="160" height="30" as="geometry">
            <mxRectangle width="160" height="30" as="alternateBounds" />
          </mxGeometry>
        </mxCell>
        <mxCell id="Nl6qYrxgCBTLw5XmiY3X-16" style="shape=tableRow;horizontal=0;startSize=0;swimlaneHead=0;swimlaneBody=0;fillColor=none;collapsible=0;dropTarget=0;points=[[0,0.5],[1,0.5]];portConstraint=eastwest;top=0;left=0;right=0;bottom=0;fontColor=default;fontFamily=Helvetica;" vertex="1" parent="fY_hdlFCRpe_LndXNdzT-1">
          <mxGeometry y="300" width="190" height="30" as="geometry" />
        </mxCell>
        <mxCell id="Nl6qYrxgCBTLw5XmiY3X-17" style="shape=partialRectangle;connectable=0;fillColor=none;top=0;left=0;bottom=0;right=0;editable=1;overflow=hidden;whiteSpace=wrap;html=1;fontColor=default;fontFamily=Helvetica;" vertex="1" parent="Nl6qYrxgCBTLw5XmiY3X-16">
          <mxGeometry width="30" height="30" as="geometry">
            <mxRectangle width="30" height="30" as="alternateBounds" />
          </mxGeometry>
        </mxCell>
        <mxCell id="Nl6qYrxgCBTLw5XmiY3X-18" value="&lt;span style=&quot;font-size: 14px; white-space: pre;&quot;&gt;Order_Priority&lt;/span&gt;" style="shape=partialRectangle;connectable=0;fillColor=none;top=0;left=0;bottom=0;right=0;align=left;spacingLeft=6;overflow=hidden;whiteSpace=wrap;html=1;fontColor=default;fontFamily=Helvetica;" vertex="1" parent="Nl6qYrxgCBTLw5XmiY3X-16">
          <mxGeometry x="30" width="160" height="30" as="geometry">
            <mxRectangle width="160" height="30" as="alternateBounds" />
          </mxGeometry>
        </mxCell>
        <mxCell id="Nl6qYrxgCBTLw5XmiY3X-19" style="shape=tableRow;horizontal=0;startSize=0;swimlaneHead=0;swimlaneBody=0;fillColor=none;collapsible=0;dropTarget=0;points=[[0,0.5],[1,0.5]];portConstraint=eastwest;top=0;left=0;right=0;bottom=0;fontColor=default;fontFamily=Helvetica;" vertex="1" parent="fY_hdlFCRpe_LndXNdzT-1">
          <mxGeometry y="330" width="190" height="30" as="geometry" />
        </mxCell>
        <mxCell id="Nl6qYrxgCBTLw5XmiY3X-20" style="shape=partialRectangle;connectable=0;fillColor=none;top=0;left=0;bottom=0;right=0;editable=1;overflow=hidden;whiteSpace=wrap;html=1;fontColor=default;fontFamily=Helvetica;" vertex="1" parent="Nl6qYrxgCBTLw5XmiY3X-19">
          <mxGeometry width="30" height="30" as="geometry">
            <mxRectangle width="30" height="30" as="alternateBounds" />
          </mxGeometry>
        </mxCell>
        <mxCell id="Nl6qYrxgCBTLw5XmiY3X-21" value="&lt;span style=&quot;font-size: 14px; white-space: pre;&quot;&gt;Warehouse_Code&lt;/span&gt;" style="shape=partialRectangle;connectable=0;fillColor=none;top=0;left=0;bottom=0;right=0;align=left;spacingLeft=6;overflow=hidden;whiteSpace=wrap;html=1;fontColor=default;fontFamily=Helvetica;" vertex="1" parent="Nl6qYrxgCBTLw5XmiY3X-19">
          <mxGeometry x="30" width="160" height="30" as="geometry">
            <mxRectangle width="160" height="30" as="alternateBounds" />
          </mxGeometry>
        </mxCell>
        <mxCell id="Nl6qYrxgCBTLw5XmiY3X-22" style="shape=tableRow;horizontal=0;startSize=0;swimlaneHead=0;swimlaneBody=0;fillColor=none;collapsible=0;dropTarget=0;points=[[0,0.5],[1,0.5]];portConstraint=eastwest;top=0;left=0;right=0;bottom=0;fontColor=default;fontFamily=Helvetica;" vertex="1" parent="fY_hdlFCRpe_LndXNdzT-1">
          <mxGeometry y="360" width="190" height="30" as="geometry" />
        </mxCell>
        <mxCell id="Nl6qYrxgCBTLw5XmiY3X-23" style="shape=partialRectangle;connectable=0;fillColor=none;top=0;left=0;bottom=0;right=0;editable=1;overflow=hidden;whiteSpace=wrap;html=1;fontColor=default;fontFamily=Helvetica;" vertex="1" parent="Nl6qYrxgCBTLw5XmiY3X-22">
          <mxGeometry width="30" height="30" as="geometry">
            <mxRectangle width="30" height="30" as="alternateBounds" />
          </mxGeometry>
        </mxCell>
        <mxCell id="Nl6qYrxgCBTLw5XmiY3X-24" value="&lt;span style=&quot;font-size: 14px; white-space: pre;&quot;&gt;Ship_Mode&lt;/span&gt;" style="shape=partialRectangle;connectable=0;fillColor=none;top=0;left=0;bottom=0;right=0;align=left;spacingLeft=6;overflow=hidden;whiteSpace=wrap;html=1;fontColor=default;fontFamily=Helvetica;" vertex="1" parent="Nl6qYrxgCBTLw5XmiY3X-22">
          <mxGeometry x="30" width="160" height="30" as="geometry">
            <mxRectangle width="160" height="30" as="alternateBounds" />
          </mxGeometry>
        </mxCell>
        <mxCell id="Nl6qYrxgCBTLw5XmiY3X-25" style="shape=tableRow;horizontal=0;startSize=0;swimlaneHead=0;swimlaneBody=0;fillColor=none;collapsible=0;dropTarget=0;points=[[0,0.5],[1,0.5]];portConstraint=eastwest;top=0;left=0;right=0;bottom=0;fontColor=default;fontFamily=Helvetica;" vertex="1" parent="fY_hdlFCRpe_LndXNdzT-1">
          <mxGeometry y="390" width="190" height="30" as="geometry" />
        </mxCell>
        <mxCell id="Nl6qYrxgCBTLw5XmiY3X-26" style="shape=partialRectangle;connectable=0;fillColor=none;top=0;left=0;bottom=0;right=0;editable=1;overflow=hidden;whiteSpace=wrap;html=1;fontColor=default;fontFamily=Helvetica;" vertex="1" parent="Nl6qYrxgCBTLw5XmiY3X-25">
          <mxGeometry width="30" height="30" as="geometry">
            <mxRectangle width="30" height="30" as="alternateBounds" />
          </mxGeometry>
        </mxCell>
        <mxCell id="Nl6qYrxgCBTLw5XmiY3X-27" value="&lt;span style=&quot;font-size: 14px; white-space: pre;&quot;&gt;Delivery_Status&lt;/span&gt;" style="shape=partialRectangle;connectable=0;fillColor=none;top=0;left=0;bottom=0;right=0;align=left;spacingLeft=6;overflow=hidden;whiteSpace=wrap;html=1;fontColor=default;fontFamily=Helvetica;" vertex="1" parent="Nl6qYrxgCBTLw5XmiY3X-25">
          <mxGeometry x="30" width="160" height="30" as="geometry">
            <mxRectangle width="160" height="30" as="alternateBounds" />
          </mxGeometry>
        </mxCell>
        <mxCell id="Nl6qYrxgCBTLw5XmiY3X-28" style="shape=tableRow;horizontal=0;startSize=0;swimlaneHead=0;swimlaneBody=0;fillColor=none;collapsible=0;dropTarget=0;points=[[0,0.5],[1,0.5]];portConstraint=eastwest;top=0;left=0;right=0;bottom=0;fontColor=default;fontFamily=Helvetica;" vertex="1" parent="fY_hdlFCRpe_LndXNdzT-1">
          <mxGeometry y="420" width="190" height="30" as="geometry" />
        </mxCell>
        <mxCell id="Nl6qYrxgCBTLw5XmiY3X-29" style="shape=partialRectangle;connectable=0;fillColor=none;top=0;left=0;bottom=0;right=0;editable=1;overflow=hidden;whiteSpace=wrap;html=1;fontColor=default;fontFamily=Helvetica;" vertex="1" parent="Nl6qYrxgCBTLw5XmiY3X-28">
          <mxGeometry width="30" height="30" as="geometry">
            <mxRectangle width="30" height="30" as="alternateBounds" />
          </mxGeometry>
        </mxCell>
        <mxCell id="Nl6qYrxgCBTLw5XmiY3X-30" value="&lt;span style=&quot;font-size: 14px; white-space: pre;&quot;&gt;Customer_Satisfaction&lt;/span&gt;" style="shape=partialRectangle;connectable=0;fillColor=none;top=0;left=0;bottom=0;right=0;align=left;spacingLeft=6;overflow=hidden;whiteSpace=wrap;html=1;fontColor=default;fontFamily=Helvetica;" vertex="1" parent="Nl6qYrxgCBTLw5XmiY3X-28">
          <mxGeometry x="30" width="160" height="30" as="geometry">
            <mxRectangle width="160" height="30" as="alternateBounds" />
          </mxGeometry>
        </mxCell>
        <mxCell id="Nl6qYrxgCBTLw5XmiY3X-31" style="shape=tableRow;horizontal=0;startSize=0;swimlaneHead=0;swimlaneBody=0;fillColor=none;collapsible=0;dropTarget=0;points=[[0,0.5],[1,0.5]];portConstraint=eastwest;top=0;left=0;right=0;bottom=0;fontColor=default;fontFamily=Helvetica;" vertex="1" parent="fY_hdlFCRpe_LndXNdzT-1">
          <mxGeometry y="450" width="190" height="30" as="geometry" />
        </mxCell>
        <mxCell id="Nl6qYrxgCBTLw5XmiY3X-32" style="shape=partialRectangle;connectable=0;fillColor=none;top=0;left=0;bottom=0;right=0;editable=1;overflow=hidden;whiteSpace=wrap;html=1;fontColor=default;fontFamily=Helvetica;" vertex="1" parent="Nl6qYrxgCBTLw5XmiY3X-31">
          <mxGeometry width="30" height="30" as="geometry">
            <mxRectangle width="30" height="30" as="alternateBounds" />
          </mxGeometry>
        </mxCell>
        <mxCell id="Nl6qYrxgCBTLw5XmiY3X-33" value="&lt;span style=&quot;font-size: 14px; white-space: pre;&quot;&gt;Item_Returned&lt;/span&gt;" style="shape=partialRectangle;connectable=0;fillColor=none;top=0;left=0;bottom=0;right=0;align=left;spacingLeft=6;overflow=hidden;whiteSpace=wrap;html=1;fontColor=default;fontFamily=Helvetica;" vertex="1" parent="Nl6qYrxgCBTLw5XmiY3X-31">
          <mxGeometry x="30" width="160" height="30" as="geometry">
            <mxRectangle width="160" height="30" as="alternateBounds" />
          </mxGeometry>
        </mxCell>
        <mxCell id="Nl6qYrxgCBTLw5XmiY3X-34" style="shape=tableRow;horizontal=0;startSize=0;swimlaneHead=0;swimlaneBody=0;fillColor=none;collapsible=0;dropTarget=0;points=[[0,0.5],[1,0.5]];portConstraint=eastwest;top=0;left=0;right=0;bottom=0;fontColor=default;fontFamily=Helvetica;" vertex="1" parent="fY_hdlFCRpe_LndXNdzT-1">
          <mxGeometry y="480" width="190" height="30" as="geometry" />
        </mxCell>
        <mxCell id="Nl6qYrxgCBTLw5XmiY3X-35" style="shape=partialRectangle;connectable=0;fillColor=none;top=0;left=0;bottom=0;right=0;editable=1;overflow=hidden;whiteSpace=wrap;html=1;fontColor=default;fontFamily=Helvetica;" vertex="1" parent="Nl6qYrxgCBTLw5XmiY3X-34">
          <mxGeometry width="30" height="30" as="geometry">
            <mxRectangle width="30" height="30" as="alternateBounds" />
          </mxGeometry>
        </mxCell>
        <mxCell id="Nl6qYrxgCBTLw5XmiY3X-36" value="&lt;span style=&quot;font-size: 14px; white-space: pre;&quot;&gt;Return_Reason&lt;/span&gt;" style="shape=partialRectangle;connectable=0;fillColor=none;top=0;left=0;bottom=0;right=0;align=left;spacingLeft=6;overflow=hidden;whiteSpace=wrap;html=1;fontColor=default;fontFamily=Helvetica;" vertex="1" parent="Nl6qYrxgCBTLw5XmiY3X-34">
          <mxGeometry x="30" width="160" height="30" as="geometry">
            <mxRectangle width="160" height="30" as="alternateBounds" />
          </mxGeometry>
        </mxCell>
        <mxCell id="Nl6qYrxgCBTLw5XmiY3X-37" style="shape=tableRow;horizontal=0;startSize=0;swimlaneHead=0;swimlaneBody=0;fillColor=none;collapsible=0;dropTarget=0;points=[[0,0.5],[1,0.5]];portConstraint=eastwest;top=0;left=0;right=0;bottom=0;fontColor=default;fontFamily=Helvetica;" vertex="1" parent="fY_hdlFCRpe_LndXNdzT-1">
          <mxGeometry y="510" width="190" height="30" as="geometry" />
        </mxCell>
        <mxCell id="Nl6qYrxgCBTLw5XmiY3X-38" style="shape=partialRectangle;connectable=0;fillColor=none;top=0;left=0;bottom=0;right=0;editable=1;overflow=hidden;whiteSpace=wrap;html=1;fontColor=default;fontFamily=Helvetica;" vertex="1" parent="Nl6qYrxgCBTLw5XmiY3X-37">
          <mxGeometry width="30" height="30" as="geometry">
            <mxRectangle width="30" height="30" as="alternateBounds" />
          </mxGeometry>
        </mxCell>
        <mxCell id="Nl6qYrxgCBTLw5XmiY3X-39" value="&lt;span style=&quot;font-size: 14px; white-space: pre;&quot;&gt;Payment_Type&lt;/span&gt;" style="shape=partialRectangle;connectable=0;fillColor=none;top=0;left=0;bottom=0;right=0;align=left;spacingLeft=6;overflow=hidden;whiteSpace=wrap;html=1;fontColor=default;fontFamily=Helvetica;" vertex="1" parent="Nl6qYrxgCBTLw5XmiY3X-37">
          <mxGeometry x="30" width="160" height="30" as="geometry">
            <mxRectangle width="160" height="30" as="alternateBounds" />
          </mxGeometry>
        </mxCell>
        <mxCell id="Nl6qYrxgCBTLw5XmiY3X-40" style="shape=tableRow;horizontal=0;startSize=0;swimlaneHead=0;swimlaneBody=0;fillColor=none;collapsible=0;dropTarget=0;points=[[0,0.5],[1,0.5]];portConstraint=eastwest;top=0;left=0;right=0;bottom=0;fontColor=default;fontFamily=Helvetica;" vertex="1" parent="fY_hdlFCRpe_LndXNdzT-1">
          <mxGeometry y="540" width="190" height="30" as="geometry" />
        </mxCell>
        <mxCell id="Nl6qYrxgCBTLw5XmiY3X-41" style="shape=partialRectangle;connectable=0;fillColor=none;top=0;left=0;bottom=0;right=0;editable=1;overflow=hidden;whiteSpace=wrap;html=1;fontColor=default;fontFamily=Helvetica;" vertex="1" parent="Nl6qYrxgCBTLw5XmiY3X-40">
          <mxGeometry width="30" height="30" as="geometry">
            <mxRectangle width="30" height="30" as="alternateBounds" />
          </mxGeometry>
        </mxCell>
        <mxCell id="Nl6qYrxgCBTLw5XmiY3X-42" value="&lt;span style=&quot;font-size: 14px; white-space: pre;&quot;&gt;Taxable&lt;/span&gt;" style="shape=partialRectangle;connectable=0;fillColor=none;top=0;left=0;bottom=0;right=0;align=left;spacingLeft=6;overflow=hidden;whiteSpace=wrap;html=1;fontColor=default;fontFamily=Helvetica;" vertex="1" parent="Nl6qYrxgCBTLw5XmiY3X-40">
          <mxGeometry x="30" width="160" height="30" as="geometry">
            <mxRectangle width="160" height="30" as="alternateBounds" />
          </mxGeometry>
        </mxCell>
        <mxCell id="Nl6qYrxgCBTLw5XmiY3X-43" style="shape=tableRow;horizontal=0;startSize=0;swimlaneHead=0;swimlaneBody=0;fillColor=none;collapsible=0;dropTarget=0;points=[[0,0.5],[1,0.5]];portConstraint=eastwest;top=0;left=0;right=0;bottom=0;fontColor=default;fontFamily=Helvetica;" vertex="1" parent="fY_hdlFCRpe_LndXNdzT-1">
          <mxGeometry y="570" width="190" height="30" as="geometry" />
        </mxCell>
        <mxCell id="Nl6qYrxgCBTLw5XmiY3X-44" style="shape=partialRectangle;connectable=0;fillColor=none;top=0;left=0;bottom=0;right=0;editable=1;overflow=hidden;whiteSpace=wrap;html=1;fontColor=default;fontFamily=Helvetica;" vertex="1" parent="Nl6qYrxgCBTLw5XmiY3X-43">
          <mxGeometry width="30" height="30" as="geometry">
            <mxRectangle width="30" height="30" as="alternateBounds" />
          </mxGeometry>
        </mxCell>
        <mxCell id="Nl6qYrxgCBTLw5XmiY3X-45" value="&lt;span style=&quot;font-size: 14px; white-space: pre;&quot;&gt;Region&lt;/span&gt;" style="shape=partialRectangle;connectable=0;fillColor=none;top=0;left=0;bottom=0;right=0;align=left;spacingLeft=6;overflow=hidden;whiteSpace=wrap;html=1;fontColor=default;fontFamily=Helvetica;" vertex="1" parent="Nl6qYrxgCBTLw5XmiY3X-43">
          <mxGeometry x="30" width="160" height="30" as="geometry">
            <mxRectangle width="160" height="30" as="alternateBounds" />
          </mxGeometry>
        </mxCell>
        <mxCell id="Nl6qYrxgCBTLw5XmiY3X-46" style="shape=tableRow;horizontal=0;startSize=0;swimlaneHead=0;swimlaneBody=0;fillColor=none;collapsible=0;dropTarget=0;points=[[0,0.5],[1,0.5]];portConstraint=eastwest;top=0;left=0;right=0;bottom=0;fontColor=default;fontFamily=Helvetica;" vertex="1" parent="fY_hdlFCRpe_LndXNdzT-1">
          <mxGeometry y="600" width="190" height="30" as="geometry" />
        </mxCell>
        <mxCell id="Nl6qYrxgCBTLw5XmiY3X-47" style="shape=partialRectangle;connectable=0;fillColor=none;top=0;left=0;bottom=0;right=0;editable=1;overflow=hidden;whiteSpace=wrap;html=1;fontColor=default;fontFamily=Helvetica;" vertex="1" parent="Nl6qYrxgCBTLw5XmiY3X-46">
          <mxGeometry width="30" height="30" as="geometry">
            <mxRectangle width="30" height="30" as="alternateBounds" />
          </mxGeometry>
        </mxCell>
        <mxCell id="Nl6qYrxgCBTLw5XmiY3X-48" value="&lt;span style=&quot;font-size: 14px; white-space: pre;&quot;&gt;Country&lt;/span&gt;" style="shape=partialRectangle;connectable=0;fillColor=none;top=0;left=0;bottom=0;right=0;align=left;spacingLeft=6;overflow=hidden;whiteSpace=wrap;html=1;fontColor=default;fontFamily=Helvetica;" vertex="1" parent="Nl6qYrxgCBTLw5XmiY3X-46">
          <mxGeometry x="30" width="160" height="30" as="geometry">
            <mxRectangle width="160" height="30" as="alternateBounds" />
          </mxGeometry>
        </mxCell>
        <mxCell id="Nl6qYrxgCBTLw5XmiY3X-49" style="shape=tableRow;horizontal=0;startSize=0;swimlaneHead=0;swimlaneBody=0;fillColor=none;collapsible=0;dropTarget=0;points=[[0,0.5],[1,0.5]];portConstraint=eastwest;top=0;left=0;right=0;bottom=0;fontColor=default;fontFamily=Helvetica;" vertex="1" parent="fY_hdlFCRpe_LndXNdzT-1">
          <mxGeometry y="630" width="190" height="30" as="geometry" />
        </mxCell>
        <mxCell id="Nl6qYrxgCBTLw5XmiY3X-50" style="shape=partialRectangle;connectable=0;fillColor=none;top=0;left=0;bottom=0;right=0;editable=1;overflow=hidden;whiteSpace=wrap;html=1;fontColor=default;fontFamily=Helvetica;" vertex="1" parent="Nl6qYrxgCBTLw5XmiY3X-49">
          <mxGeometry width="30" height="30" as="geometry">
            <mxRectangle width="30" height="30" as="alternateBounds" />
          </mxGeometry>
        </mxCell>
        <mxCell id="Nl6qYrxgCBTLw5XmiY3X-51" value="&lt;span style=&quot;font-size: 14px; white-space: pre;&quot;&gt;Customer_Name&lt;/span&gt;" style="shape=partialRectangle;connectable=0;fillColor=#f8cecc;top=0;left=0;bottom=0;right=0;align=left;spacingLeft=6;overflow=hidden;whiteSpace=wrap;html=1;fontFamily=Helvetica;strokeColor=#b85450;" vertex="1" parent="Nl6qYrxgCBTLw5XmiY3X-49">
          <mxGeometry x="30" width="160" height="30" as="geometry">
            <mxRectangle width="160" height="30" as="alternateBounds" />
          </mxGeometry>
        </mxCell>
        <mxCell id="Nl6qYrxgCBTLw5XmiY3X-64" style="shape=tableRow;horizontal=0;startSize=0;swimlaneHead=0;swimlaneBody=0;fillColor=none;collapsible=0;dropTarget=0;points=[[0,0.5],[1,0.5]];portConstraint=eastwest;top=0;left=0;right=0;bottom=0;fontColor=default;fontFamily=Helvetica;" vertex="1" parent="fY_hdlFCRpe_LndXNdzT-1">
          <mxGeometry y="660" width="190" height="30" as="geometry" />
        </mxCell>
        <mxCell id="Nl6qYrxgCBTLw5XmiY3X-65" style="shape=partialRectangle;connectable=0;fillColor=none;top=0;left=0;bottom=0;right=0;editable=1;overflow=hidden;whiteSpace=wrap;html=1;fontColor=default;fontFamily=Helvetica;" vertex="1" parent="Nl6qYrxgCBTLw5XmiY3X-64">
          <mxGeometry width="30" height="30" as="geometry">
            <mxRectangle width="30" height="30" as="alternateBounds" />
          </mxGeometry>
        </mxCell>
        <mxCell id="Nl6qYrxgCBTLw5XmiY3X-66" value="&lt;span style=&quot;font-size: 14px; white-space: pre;&quot;&gt;Customer_Phone&lt;/span&gt;" style="shape=partialRectangle;connectable=0;fillColor=#f8cecc;top=0;left=0;bottom=0;right=0;align=left;spacingLeft=6;overflow=hidden;whiteSpace=wrap;html=1;fontFamily=Helvetica;strokeColor=#b85450;" vertex="1" parent="Nl6qYrxgCBTLw5XmiY3X-64">
          <mxGeometry x="30" width="160" height="30" as="geometry">
            <mxRectangle width="160" height="30" as="alternateBounds" />
          </mxGeometry>
        </mxCell>
        <mxCell id="Nl6qYrxgCBTLw5XmiY3X-52" style="shape=tableRow;horizontal=0;startSize=0;swimlaneHead=0;swimlaneBody=0;fillColor=none;collapsible=0;dropTarget=0;points=[[0,0.5],[1,0.5]];portConstraint=eastwest;top=0;left=0;right=0;bottom=0;fontColor=default;fontFamily=Helvetica;" vertex="1" parent="fY_hdlFCRpe_LndXNdzT-1">
          <mxGeometry y="690" width="190" height="30" as="geometry" />
        </mxCell>
        <mxCell id="Nl6qYrxgCBTLw5XmiY3X-53" style="shape=partialRectangle;connectable=0;fillColor=none;top=0;left=0;bottom=0;right=0;editable=1;overflow=hidden;whiteSpace=wrap;html=1;fontColor=default;fontFamily=Helvetica;" vertex="1" parent="Nl6qYrxgCBTLw5XmiY3X-52">
          <mxGeometry width="30" height="30" as="geometry">
            <mxRectangle width="30" height="30" as="alternateBounds" />
          </mxGeometry>
        </mxCell>
        <mxCell id="Nl6qYrxgCBTLw5XmiY3X-54" value="&lt;span style=&quot;font-size: 14px; white-space: pre;&quot;&gt;Customer_Email&lt;/span&gt;" style="shape=partialRectangle;connectable=0;fillColor=#f8cecc;top=0;left=0;bottom=0;right=0;align=left;spacingLeft=6;overflow=hidden;whiteSpace=wrap;html=1;fontFamily=Helvetica;strokeColor=#b85450;" vertex="1" parent="Nl6qYrxgCBTLw5XmiY3X-52">
          <mxGeometry x="30" width="160" height="30" as="geometry">
            <mxRectangle width="160" height="30" as="alternateBounds" />
          </mxGeometry>
        </mxCell>
        <mxCell id="Nl6qYrxgCBTLw5XmiY3X-55" style="shape=tableRow;horizontal=0;startSize=0;swimlaneHead=0;swimlaneBody=0;fillColor=none;collapsible=0;dropTarget=0;points=[[0,0.5],[1,0.5]];portConstraint=eastwest;top=0;left=0;right=0;bottom=0;fontColor=default;fontFamily=Helvetica;" vertex="1" parent="fY_hdlFCRpe_LndXNdzT-1">
          <mxGeometry y="720" width="190" height="30" as="geometry" />
        </mxCell>
        <mxCell id="Nl6qYrxgCBTLw5XmiY3X-56" style="shape=partialRectangle;connectable=0;fillColor=none;top=0;left=0;bottom=0;right=0;editable=1;overflow=hidden;whiteSpace=wrap;html=1;fontColor=default;fontFamily=Helvetica;" vertex="1" parent="Nl6qYrxgCBTLw5XmiY3X-55">
          <mxGeometry width="30" height="30" as="geometry">
            <mxRectangle width="30" height="30" as="alternateBounds" />
          </mxGeometry>
        </mxCell>
        <mxCell id="Nl6qYrxgCBTLw5XmiY3X-57" value="&lt;span style=&quot;font-size: 14px; white-space: pre;&quot;&gt;Customer_Address&lt;/span&gt;" style="shape=partialRectangle;connectable=0;fillColor=#f8cecc;top=0;left=0;bottom=0;right=0;align=left;spacingLeft=6;overflow=hidden;whiteSpace=wrap;html=1;fontFamily=Helvetica;strokeColor=#b85450;" vertex="1" parent="Nl6qYrxgCBTLw5XmiY3X-55">
          <mxGeometry x="30" width="160" height="30" as="geometry">
            <mxRectangle width="160" height="30" as="alternateBounds" />
          </mxGeometry>
        </mxCell>
        <mxCell id="Nl6qYrxgCBTLw5XmiY3X-58" style="shape=tableRow;horizontal=0;startSize=0;swimlaneHead=0;swimlaneBody=0;fillColor=none;collapsible=0;dropTarget=0;points=[[0,0.5],[1,0.5]];portConstraint=eastwest;top=0;left=0;right=0;bottom=0;fontColor=default;fontFamily=Helvetica;" vertex="1" parent="fY_hdlFCRpe_LndXNdzT-1">
          <mxGeometry y="750" width="190" height="30" as="geometry" />
        </mxCell>
        <mxCell id="Nl6qYrxgCBTLw5XmiY3X-59" style="shape=partialRectangle;connectable=0;fillColor=none;top=0;left=0;bottom=0;right=0;editable=1;overflow=hidden;whiteSpace=wrap;html=1;fontColor=default;fontFamily=Helvetica;" vertex="1" parent="Nl6qYrxgCBTLw5XmiY3X-58">
          <mxGeometry width="30" height="30" as="geometry">
            <mxRectangle width="30" height="30" as="alternateBounds" />
          </mxGeometry>
        </mxCell>
        <mxCell id="Nl6qYrxgCBTLw5XmiY3X-60" value="&lt;span style=&quot;font-size: 14px; white-space: pre;&quot;&gt;Product_List_Title&lt;/span&gt;" style="shape=partialRectangle;connectable=0;fillColor=#d5e8d4;top=0;left=0;bottom=0;right=0;align=left;spacingLeft=6;overflow=hidden;whiteSpace=wrap;html=1;fontFamily=Helvetica;strokeColor=#82b366;" vertex="1" parent="Nl6qYrxgCBTLw5XmiY3X-58">
          <mxGeometry x="30" width="160" height="30" as="geometry">
            <mxRectangle width="160" height="30" as="alternateBounds" />
          </mxGeometry>
        </mxCell>
        <mxCell id="Nl6qYrxgCBTLw5XmiY3X-80" value="product" style="shape=table;startSize=30;container=1;collapsible=1;childLayout=tableLayout;fixedRows=1;rowLines=0;fontStyle=1;align=center;resizeLast=1;html=1;" vertex="1" parent="1">
          <mxGeometry x="1020" y="200" width="180" height="150" as="geometry" />
        </mxCell>
        <mxCell id="Nl6qYrxgCBTLw5XmiY3X-81" value="" style="shape=tableRow;horizontal=0;startSize=0;swimlaneHead=0;swimlaneBody=0;fillColor=none;collapsible=0;dropTarget=0;points=[[0,0.5],[1,0.5]];portConstraint=eastwest;top=0;left=0;right=0;bottom=1;" vertex="1" parent="Nl6qYrxgCBTLw5XmiY3X-80">
          <mxGeometry y="30" width="180" height="30" as="geometry" />
        </mxCell>
        <mxCell id="Nl6qYrxgCBTLw5XmiY3X-82" value="PK" style="shape=partialRectangle;connectable=0;fillColor=none;top=0;left=0;bottom=0;right=0;fontStyle=1;overflow=hidden;whiteSpace=wrap;html=1;" vertex="1" parent="Nl6qYrxgCBTLw5XmiY3X-81">
          <mxGeometry width="30" height="30" as="geometry">
            <mxRectangle width="30" height="30" as="alternateBounds" />
          </mxGeometry>
        </mxCell>
        <mxCell id="Nl6qYrxgCBTLw5XmiY3X-83" value="&lt;span style=&quot;font-size: 14px; white-space: pre;&quot;&gt;Product_ID&lt;/span&gt;" style="shape=partialRectangle;connectable=0;fillColor=none;top=0;left=0;bottom=0;right=0;align=left;spacingLeft=6;fontStyle=5;overflow=hidden;whiteSpace=wrap;html=1;" vertex="1" parent="Nl6qYrxgCBTLw5XmiY3X-81">
          <mxGeometry x="30" width="150" height="30" as="geometry">
            <mxRectangle width="150" height="30" as="alternateBounds" />
          </mxGeometry>
        </mxCell>
        <mxCell id="Nl6qYrxgCBTLw5XmiY3X-84" value="" style="shape=tableRow;horizontal=0;startSize=0;swimlaneHead=0;swimlaneBody=0;fillColor=none;collapsible=0;dropTarget=0;points=[[0,0.5],[1,0.5]];portConstraint=eastwest;top=0;left=0;right=0;bottom=0;" vertex="1" parent="Nl6qYrxgCBTLw5XmiY3X-80">
          <mxGeometry y="60" width="180" height="30" as="geometry" />
        </mxCell>
        <mxCell id="Nl6qYrxgCBTLw5XmiY3X-85" value="" style="shape=partialRectangle;connectable=0;fillColor=none;top=0;left=0;bottom=0;right=0;editable=1;overflow=hidden;whiteSpace=wrap;html=1;" vertex="1" parent="Nl6qYrxgCBTLw5XmiY3X-84">
          <mxGeometry width="30" height="30" as="geometry">
            <mxRectangle width="30" height="30" as="alternateBounds" />
          </mxGeometry>
        </mxCell>
        <mxCell id="Nl6qYrxgCBTLw5XmiY3X-86" value="&lt;span style=&quot;font-size: 14px; white-space: pre;&quot;&gt;Quantity&lt;/span&gt;" style="shape=partialRectangle;connectable=0;fillColor=none;top=0;left=0;bottom=0;right=0;align=left;spacingLeft=6;overflow=hidden;whiteSpace=wrap;html=1;" vertex="1" parent="Nl6qYrxgCBTLw5XmiY3X-84">
          <mxGeometry x="30" width="150" height="30" as="geometry">
            <mxRectangle width="150" height="30" as="alternateBounds" />
          </mxGeometry>
        </mxCell>
        <mxCell id="Nl6qYrxgCBTLw5XmiY3X-87" value="" style="shape=tableRow;horizontal=0;startSize=0;swimlaneHead=0;swimlaneBody=0;fillColor=none;collapsible=0;dropTarget=0;points=[[0,0.5],[1,0.5]];portConstraint=eastwest;top=0;left=0;right=0;bottom=0;" vertex="1" parent="Nl6qYrxgCBTLw5XmiY3X-80">
          <mxGeometry y="90" width="180" height="30" as="geometry" />
        </mxCell>
        <mxCell id="Nl6qYrxgCBTLw5XmiY3X-88" value="" style="shape=partialRectangle;connectable=0;fillColor=none;top=0;left=0;bottom=0;right=0;editable=1;overflow=hidden;whiteSpace=wrap;html=1;" vertex="1" parent="Nl6qYrxgCBTLw5XmiY3X-87">
          <mxGeometry width="30" height="30" as="geometry">
            <mxRectangle width="30" height="30" as="alternateBounds" />
          </mxGeometry>
        </mxCell>
        <mxCell id="Nl6qYrxgCBTLw5XmiY3X-89" value="&lt;span style=&quot;font-size: 14px; white-space: pre;&quot;&gt;Unit_Price&lt;/span&gt;" style="shape=partialRectangle;connectable=0;fillColor=none;top=0;left=0;bottom=0;right=0;align=left;spacingLeft=6;overflow=hidden;whiteSpace=wrap;html=1;" vertex="1" parent="Nl6qYrxgCBTLw5XmiY3X-87">
          <mxGeometry x="30" width="150" height="30" as="geometry">
            <mxRectangle width="150" height="30" as="alternateBounds" />
          </mxGeometry>
        </mxCell>
        <mxCell id="Nl6qYrxgCBTLw5XmiY3X-90" value="" style="shape=tableRow;horizontal=0;startSize=0;swimlaneHead=0;swimlaneBody=0;fillColor=none;collapsible=0;dropTarget=0;points=[[0,0.5],[1,0.5]];portConstraint=eastwest;top=0;left=0;right=0;bottom=0;" vertex="1" parent="Nl6qYrxgCBTLw5XmiY3X-80">
          <mxGeometry y="120" width="180" height="30" as="geometry" />
        </mxCell>
        <mxCell id="Nl6qYrxgCBTLw5XmiY3X-91" value="" style="shape=partialRectangle;connectable=0;fillColor=none;top=0;left=0;bottom=0;right=0;editable=1;overflow=hidden;whiteSpace=wrap;html=1;" vertex="1" parent="Nl6qYrxgCBTLw5XmiY3X-90">
          <mxGeometry width="30" height="30" as="geometry">
            <mxRectangle width="30" height="30" as="alternateBounds" />
          </mxGeometry>
        </mxCell>
        <mxCell id="Nl6qYrxgCBTLw5XmiY3X-92" value="&lt;span style=&quot;font-size: 14px; white-space: pre;&quot;&gt;Product_List_Title&lt;/span&gt;" style="shape=partialRectangle;connectable=0;fillColor=none;top=0;left=0;bottom=0;right=0;align=left;spacingLeft=6;overflow=hidden;whiteSpace=wrap;html=1;" vertex="1" parent="Nl6qYrxgCBTLw5XmiY3X-90">
          <mxGeometry x="30" width="150" height="30" as="geometry">
            <mxRectangle width="150" height="30" as="alternateBounds" />
          </mxGeometry>
        </mxCell>
        <mxCell id="Nl6qYrxgCBTLw5XmiY3X-67" value="customer" style="shape=table;startSize=30;container=1;collapsible=1;childLayout=tableLayout;fixedRows=1;rowLines=0;fontStyle=1;align=center;resizeLast=1;html=1;" vertex="1" parent="1">
          <mxGeometry x="400" y="200" width="180" height="180" as="geometry" />
        </mxCell>
        <mxCell id="Nl6qYrxgCBTLw5XmiY3X-68" value="" style="shape=tableRow;horizontal=0;startSize=0;swimlaneHead=0;swimlaneBody=0;fillColor=none;collapsible=0;dropTarget=0;points=[[0,0.5],[1,0.5]];portConstraint=eastwest;top=0;left=0;right=0;bottom=1;" vertex="1" parent="Nl6qYrxgCBTLw5XmiY3X-67">
          <mxGeometry y="30" width="180" height="30" as="geometry" />
        </mxCell>
        <mxCell id="Nl6qYrxgCBTLw5XmiY3X-69" value="PK" style="shape=partialRectangle;connectable=0;fillColor=none;top=0;left=0;bottom=0;right=0;fontStyle=1;overflow=hidden;whiteSpace=wrap;html=1;" vertex="1" parent="Nl6qYrxgCBTLw5XmiY3X-68">
          <mxGeometry width="30" height="30" as="geometry">
            <mxRectangle width="30" height="30" as="alternateBounds" />
          </mxGeometry>
        </mxCell>
        <mxCell id="Nl6qYrxgCBTLw5XmiY3X-70" value="&lt;span style=&quot;font-size: 14px; white-space: pre;&quot;&gt;Customer_ID&lt;/span&gt;" style="shape=partialRectangle;connectable=0;fillColor=none;top=0;left=0;bottom=0;right=0;align=left;spacingLeft=6;fontStyle=5;overflow=hidden;whiteSpace=wrap;html=1;" vertex="1" parent="Nl6qYrxgCBTLw5XmiY3X-68">
          <mxGeometry x="30" width="150" height="30" as="geometry">
            <mxRectangle width="150" height="30" as="alternateBounds" />
          </mxGeometry>
        </mxCell>
        <mxCell id="Nl6qYrxgCBTLw5XmiY3X-71" value="" style="shape=tableRow;horizontal=0;startSize=0;swimlaneHead=0;swimlaneBody=0;fillColor=none;collapsible=0;dropTarget=0;points=[[0,0.5],[1,0.5]];portConstraint=eastwest;top=0;left=0;right=0;bottom=0;" vertex="1" parent="Nl6qYrxgCBTLw5XmiY3X-67">
          <mxGeometry y="60" width="180" height="30" as="geometry" />
        </mxCell>
        <mxCell id="Nl6qYrxgCBTLw5XmiY3X-72" value="" style="shape=partialRectangle;connectable=0;fillColor=none;top=0;left=0;bottom=0;right=0;editable=1;overflow=hidden;whiteSpace=wrap;html=1;" vertex="1" parent="Nl6qYrxgCBTLw5XmiY3X-71">
          <mxGeometry width="30" height="30" as="geometry">
            <mxRectangle width="30" height="30" as="alternateBounds" />
          </mxGeometry>
        </mxCell>
        <mxCell id="Nl6qYrxgCBTLw5XmiY3X-73" value="&lt;span style=&quot;font-size: 14px; white-space: pre;&quot;&gt;Customer_Name&lt;/span&gt;" style="shape=partialRectangle;connectable=0;fillColor=none;top=0;left=0;bottom=0;right=0;align=left;spacingLeft=6;overflow=hidden;whiteSpace=wrap;html=1;" vertex="1" parent="Nl6qYrxgCBTLw5XmiY3X-71">
          <mxGeometry x="30" width="150" height="30" as="geometry">
            <mxRectangle width="150" height="30" as="alternateBounds" />
          </mxGeometry>
        </mxCell>
        <mxCell id="Nl6qYrxgCBTLw5XmiY3X-74" value="" style="shape=tableRow;horizontal=0;startSize=0;swimlaneHead=0;swimlaneBody=0;fillColor=none;collapsible=0;dropTarget=0;points=[[0,0.5],[1,0.5]];portConstraint=eastwest;top=0;left=0;right=0;bottom=0;" vertex="1" parent="Nl6qYrxgCBTLw5XmiY3X-67">
          <mxGeometry y="90" width="180" height="30" as="geometry" />
        </mxCell>
        <mxCell id="Nl6qYrxgCBTLw5XmiY3X-75" value="" style="shape=partialRectangle;connectable=0;fillColor=none;top=0;left=0;bottom=0;right=0;editable=1;overflow=hidden;whiteSpace=wrap;html=1;" vertex="1" parent="Nl6qYrxgCBTLw5XmiY3X-74">
          <mxGeometry width="30" height="30" as="geometry">
            <mxRectangle width="30" height="30" as="alternateBounds" />
          </mxGeometry>
        </mxCell>
        <mxCell id="Nl6qYrxgCBTLw5XmiY3X-76" value="&lt;span style=&quot;font-size: 14px; white-space: pre;&quot;&gt;Customer_Phone&lt;/span&gt;" style="shape=partialRectangle;connectable=0;fillColor=none;top=0;left=0;bottom=0;right=0;align=left;spacingLeft=6;overflow=hidden;whiteSpace=wrap;html=1;" vertex="1" parent="Nl6qYrxgCBTLw5XmiY3X-74">
          <mxGeometry x="30" width="150" height="30" as="geometry">
            <mxRectangle width="150" height="30" as="alternateBounds" />
          </mxGeometry>
        </mxCell>
        <mxCell id="Nl6qYrxgCBTLw5XmiY3X-77" value="" style="shape=tableRow;horizontal=0;startSize=0;swimlaneHead=0;swimlaneBody=0;fillColor=none;collapsible=0;dropTarget=0;points=[[0,0.5],[1,0.5]];portConstraint=eastwest;top=0;left=0;right=0;bottom=0;" vertex="1" parent="Nl6qYrxgCBTLw5XmiY3X-67">
          <mxGeometry y="120" width="180" height="30" as="geometry" />
        </mxCell>
        <mxCell id="Nl6qYrxgCBTLw5XmiY3X-78" value="" style="shape=partialRectangle;connectable=0;fillColor=none;top=0;left=0;bottom=0;right=0;editable=1;overflow=hidden;whiteSpace=wrap;html=1;" vertex="1" parent="Nl6qYrxgCBTLw5XmiY3X-77">
          <mxGeometry width="30" height="30" as="geometry">
            <mxRectangle width="30" height="30" as="alternateBounds" />
          </mxGeometry>
        </mxCell>
        <mxCell id="Nl6qYrxgCBTLw5XmiY3X-79" value="&lt;span style=&quot;font-size: 14px; white-space: pre;&quot;&gt;Customer_Email&lt;/span&gt;" style="shape=partialRectangle;connectable=0;fillColor=none;top=0;left=0;bottom=0;right=0;align=left;spacingLeft=6;overflow=hidden;whiteSpace=wrap;html=1;" vertex="1" parent="Nl6qYrxgCBTLw5XmiY3X-77">
          <mxGeometry x="30" width="150" height="30" as="geometry">
            <mxRectangle width="150" height="30" as="alternateBounds" />
          </mxGeometry>
        </mxCell>
        <mxCell id="Nl6qYrxgCBTLw5XmiY3X-93" style="shape=tableRow;horizontal=0;startSize=0;swimlaneHead=0;swimlaneBody=0;fillColor=none;collapsible=0;dropTarget=0;points=[[0,0.5],[1,0.5]];portConstraint=eastwest;top=0;left=0;right=0;bottom=0;" vertex="1" parent="Nl6qYrxgCBTLw5XmiY3X-67">
          <mxGeometry y="150" width="180" height="30" as="geometry" />
        </mxCell>
        <mxCell id="Nl6qYrxgCBTLw5XmiY3X-94" style="shape=partialRectangle;connectable=0;fillColor=none;top=0;left=0;bottom=0;right=0;editable=1;overflow=hidden;whiteSpace=wrap;html=1;" vertex="1" parent="Nl6qYrxgCBTLw5XmiY3X-93">
          <mxGeometry width="30" height="30" as="geometry">
            <mxRectangle width="30" height="30" as="alternateBounds" />
          </mxGeometry>
        </mxCell>
        <mxCell id="Nl6qYrxgCBTLw5XmiY3X-95" value="&lt;span style=&quot;font-size: 14px; white-space: pre;&quot;&gt;Customer_Address&lt;/span&gt;" style="shape=partialRectangle;connectable=0;fillColor=none;top=0;left=0;bottom=0;right=0;align=left;spacingLeft=6;overflow=hidden;whiteSpace=wrap;html=1;" vertex="1" parent="Nl6qYrxgCBTLw5XmiY3X-93">
          <mxGeometry x="30" width="150" height="30" as="geometry">
            <mxRectangle width="150" height="30" as="alternateBounds" />
          </mxGeometry>
        </mxCell>
        <mxCell id="Nl6qYrxgCBTLw5XmiY3X-97" value="ziko_logistics" style="shape=table;startSize=30;container=1;collapsible=1;childLayout=tableLayout;fixedRows=1;rowLines=0;fontStyle=1;align=center;resizeLast=1;html=1;" vertex="1" parent="1">
          <mxGeometry x="700" y="200" width="190" height="570" as="geometry" />
        </mxCell>
        <mxCell id="Nl6qYrxgCBTLw5XmiY3X-98" value="" style="shape=tableRow;horizontal=0;startSize=0;swimlaneHead=0;swimlaneBody=0;fillColor=none;collapsible=0;dropTarget=0;points=[[0,0.5],[1,0.5]];portConstraint=eastwest;top=0;left=0;right=0;bottom=1;" vertex="1" parent="Nl6qYrxgCBTLw5XmiY3X-97">
          <mxGeometry y="30" width="190" height="30" as="geometry" />
        </mxCell>
        <mxCell id="Nl6qYrxgCBTLw5XmiY3X-99" value="PK" style="shape=partialRectangle;connectable=0;fillColor=none;top=0;left=0;bottom=0;right=0;fontStyle=1;overflow=hidden;whiteSpace=wrap;html=1;" vertex="1" parent="Nl6qYrxgCBTLw5XmiY3X-98">
          <mxGeometry width="30" height="30" as="geometry">
            <mxRectangle width="30" height="30" as="alternateBounds" />
          </mxGeometry>
        </mxCell>
        <mxCell id="Nl6qYrxgCBTLw5XmiY3X-100" value="&lt;span style=&quot;font-size: 14px; white-space: pre;&quot;&gt;&lt;font face=&quot;Helvetica&quot; style=&quot;color: rgb(0, 0, 0);&quot;&gt;Transaction_ID&lt;/font&gt;&lt;/span&gt;" style="shape=partialRectangle;connectable=0;fillColor=none;top=0;left=0;bottom=0;right=0;align=left;spacingLeft=6;fontStyle=5;overflow=hidden;whiteSpace=wrap;html=1;strokeColor=#6c8ebf;" vertex="1" parent="Nl6qYrxgCBTLw5XmiY3X-98">
          <mxGeometry x="30" width="160" height="30" as="geometry">
            <mxRectangle width="160" height="30" as="alternateBounds" />
          </mxGeometry>
        </mxCell>
        <mxCell id="Nl6qYrxgCBTLw5XmiY3X-101" value="" style="shape=tableRow;horizontal=0;startSize=0;swimlaneHead=0;swimlaneBody=0;fillColor=none;collapsible=0;dropTarget=0;points=[[0,0.5],[1,0.5]];portConstraint=eastwest;top=0;left=0;right=0;bottom=0;fontColor=default;fontFamily=Helvetica;" vertex="1" parent="Nl6qYrxgCBTLw5XmiY3X-97">
          <mxGeometry y="60" width="190" height="30" as="geometry" />
        </mxCell>
        <mxCell id="Nl6qYrxgCBTLw5XmiY3X-102" value="" style="shape=partialRectangle;connectable=0;fillColor=none;top=0;left=0;bottom=0;right=0;editable=1;overflow=hidden;whiteSpace=wrap;html=1;fontColor=default;fontFamily=Helvetica;" vertex="1" parent="Nl6qYrxgCBTLw5XmiY3X-101">
          <mxGeometry width="30" height="30" as="geometry">
            <mxRectangle width="30" height="30" as="alternateBounds" />
          </mxGeometry>
        </mxCell>
        <mxCell id="Nl6qYrxgCBTLw5XmiY3X-103" value="&lt;span style=&quot;font-size: 14px; white-space: pre;&quot;&gt;&lt;font style=&quot;&quot;&gt;Date&lt;/font&gt;&lt;/span&gt;" style="shape=partialRectangle;connectable=0;fillColor=none;top=0;left=0;bottom=0;right=0;align=left;spacingLeft=6;overflow=hidden;whiteSpace=wrap;html=1;fontColor=default;fontFamily=Helvetica;" vertex="1" parent="Nl6qYrxgCBTLw5XmiY3X-101">
          <mxGeometry x="30" width="160" height="30" as="geometry">
            <mxRectangle width="160" height="30" as="alternateBounds" />
          </mxGeometry>
        </mxCell>
        <mxCell id="Nl6qYrxgCBTLw5XmiY3X-104" value="" style="shape=tableRow;horizontal=0;startSize=0;swimlaneHead=0;swimlaneBody=0;fillColor=none;collapsible=0;dropTarget=0;points=[[0,0.5],[1,0.5]];portConstraint=eastwest;top=0;left=0;right=0;bottom=0;fontColor=default;fontFamily=Helvetica;" vertex="1" parent="Nl6qYrxgCBTLw5XmiY3X-97">
          <mxGeometry y="90" width="190" height="30" as="geometry" />
        </mxCell>
        <mxCell id="Nl6qYrxgCBTLw5XmiY3X-105" value="FK" style="shape=partialRectangle;connectable=0;fillColor=none;top=0;left=0;bottom=0;right=0;editable=1;overflow=hidden;whiteSpace=wrap;html=1;fontFamily=Helvetica;strokeColor=#6c8ebf;" vertex="1" parent="Nl6qYrxgCBTLw5XmiY3X-104">
          <mxGeometry width="30" height="30" as="geometry">
            <mxRectangle width="30" height="30" as="alternateBounds" />
          </mxGeometry>
        </mxCell>
        <mxCell id="Nl6qYrxgCBTLw5XmiY3X-106" value="&lt;span style=&quot;font-size: 14px; white-space: pre;&quot;&gt;Customer_ID&lt;/span&gt;" style="shape=partialRectangle;connectable=0;fillColor=none;top=0;left=0;bottom=0;right=0;align=left;spacingLeft=6;overflow=hidden;whiteSpace=wrap;html=1;fontFamily=Helvetica;strokeColor=#b85450;" vertex="1" parent="Nl6qYrxgCBTLw5XmiY3X-104">
          <mxGeometry x="30" width="160" height="30" as="geometry">
            <mxRectangle width="160" height="30" as="alternateBounds" />
          </mxGeometry>
        </mxCell>
        <mxCell id="Nl6qYrxgCBTLw5XmiY3X-107" value="" style="shape=tableRow;horizontal=0;startSize=0;swimlaneHead=0;swimlaneBody=0;fillColor=none;collapsible=0;dropTarget=0;points=[[0,0.5],[1,0.5]];portConstraint=eastwest;top=0;left=0;right=0;bottom=0;fontColor=default;fontFamily=Helvetica;" vertex="1" parent="Nl6qYrxgCBTLw5XmiY3X-97">
          <mxGeometry y="120" width="190" height="30" as="geometry" />
        </mxCell>
        <mxCell id="Nl6qYrxgCBTLw5XmiY3X-108" value="FK" style="shape=partialRectangle;connectable=0;fillColor=none;top=0;left=0;bottom=0;right=0;editable=1;overflow=hidden;whiteSpace=wrap;html=1;fontFamily=Helvetica;strokeColor=#6c8ebf;" vertex="1" parent="Nl6qYrxgCBTLw5XmiY3X-107">
          <mxGeometry width="30" height="30" as="geometry">
            <mxRectangle width="30" height="30" as="alternateBounds" />
          </mxGeometry>
        </mxCell>
        <mxCell id="Nl6qYrxgCBTLw5XmiY3X-109" value="&lt;span style=&quot;font-size: 14px; white-space: pre;&quot;&gt;Product_ID&lt;/span&gt;" style="shape=partialRectangle;connectable=0;fillColor=none;top=0;left=0;bottom=0;right=0;align=left;spacingLeft=6;overflow=hidden;whiteSpace=wrap;html=1;fontFamily=Helvetica;strokeColor=#82b366;" vertex="1" parent="Nl6qYrxgCBTLw5XmiY3X-107">
          <mxGeometry x="30" width="160" height="30" as="geometry">
            <mxRectangle width="160" height="30" as="alternateBounds" />
          </mxGeometry>
        </mxCell>
        <mxCell id="Nl6qYrxgCBTLw5XmiY3X-116" style="shape=tableRow;horizontal=0;startSize=0;swimlaneHead=0;swimlaneBody=0;fillColor=none;collapsible=0;dropTarget=0;points=[[0,0.5],[1,0.5]];portConstraint=eastwest;top=0;left=0;right=0;bottom=0;fontColor=default;fontFamily=Helvetica;" vertex="1" parent="Nl6qYrxgCBTLw5XmiY3X-97">
          <mxGeometry y="150" width="190" height="30" as="geometry" />
        </mxCell>
        <mxCell id="Nl6qYrxgCBTLw5XmiY3X-117" style="shape=partialRectangle;connectable=0;fillColor=none;top=0;left=0;bottom=0;right=0;editable=1;overflow=hidden;whiteSpace=wrap;html=1;fontColor=default;fontFamily=Helvetica;" vertex="1" parent="Nl6qYrxgCBTLw5XmiY3X-116">
          <mxGeometry width="30" height="30" as="geometry">
            <mxRectangle width="30" height="30" as="alternateBounds" />
          </mxGeometry>
        </mxCell>
        <mxCell id="Nl6qYrxgCBTLw5XmiY3X-118" value="&lt;span style=&quot;font-size: 14px; white-space: pre;&quot;&gt;Total_Cost&lt;/span&gt;" style="shape=partialRectangle;connectable=0;fillColor=none;top=0;left=0;bottom=0;right=0;align=left;spacingLeft=6;overflow=hidden;whiteSpace=wrap;html=1;fontFamily=Helvetica;strokeColor=#6c8ebf;" vertex="1" parent="Nl6qYrxgCBTLw5XmiY3X-116">
          <mxGeometry x="30" width="160" height="30" as="geometry">
            <mxRectangle width="160" height="30" as="alternateBounds" />
          </mxGeometry>
        </mxCell>
        <mxCell id="Nl6qYrxgCBTLw5XmiY3X-119" style="shape=tableRow;horizontal=0;startSize=0;swimlaneHead=0;swimlaneBody=0;fillColor=none;collapsible=0;dropTarget=0;points=[[0,0.5],[1,0.5]];portConstraint=eastwest;top=0;left=0;right=0;bottom=0;fontColor=default;fontFamily=Helvetica;" vertex="1" parent="Nl6qYrxgCBTLw5XmiY3X-97">
          <mxGeometry y="180" width="190" height="30" as="geometry" />
        </mxCell>
        <mxCell id="Nl6qYrxgCBTLw5XmiY3X-120" style="shape=partialRectangle;connectable=0;fillColor=none;top=0;left=0;bottom=0;right=0;editable=1;overflow=hidden;whiteSpace=wrap;html=1;fontColor=default;fontFamily=Helvetica;" vertex="1" parent="Nl6qYrxgCBTLw5XmiY3X-119">
          <mxGeometry width="30" height="30" as="geometry">
            <mxRectangle width="30" height="30" as="alternateBounds" />
          </mxGeometry>
        </mxCell>
        <mxCell id="Nl6qYrxgCBTLw5XmiY3X-121" value="&lt;span style=&quot;font-size: 14px; white-space: pre;&quot;&gt;Discount_Rate&lt;/span&gt;" style="shape=partialRectangle;connectable=0;fillColor=none;top=0;left=0;bottom=0;right=0;align=left;spacingLeft=6;overflow=hidden;whiteSpace=wrap;html=1;fontColor=default;fontFamily=Helvetica;" vertex="1" parent="Nl6qYrxgCBTLw5XmiY3X-119">
          <mxGeometry x="30" width="160" height="30" as="geometry">
            <mxRectangle width="160" height="30" as="alternateBounds" />
          </mxGeometry>
        </mxCell>
        <mxCell id="Nl6qYrxgCBTLw5XmiY3X-122" style="shape=tableRow;horizontal=0;startSize=0;swimlaneHead=0;swimlaneBody=0;fillColor=none;collapsible=0;dropTarget=0;points=[[0,0.5],[1,0.5]];portConstraint=eastwest;top=0;left=0;right=0;bottom=0;fontColor=default;fontFamily=Helvetica;" vertex="1" parent="Nl6qYrxgCBTLw5XmiY3X-97">
          <mxGeometry y="210" width="190" height="30" as="geometry" />
        </mxCell>
        <mxCell id="Nl6qYrxgCBTLw5XmiY3X-123" style="shape=partialRectangle;connectable=0;fillColor=none;top=0;left=0;bottom=0;right=0;editable=1;overflow=hidden;whiteSpace=wrap;html=1;fontColor=default;fontFamily=Helvetica;" vertex="1" parent="Nl6qYrxgCBTLw5XmiY3X-122">
          <mxGeometry width="30" height="30" as="geometry">
            <mxRectangle width="30" height="30" as="alternateBounds" />
          </mxGeometry>
        </mxCell>
        <mxCell id="Nl6qYrxgCBTLw5XmiY3X-124" value="&lt;span style=&quot;font-size: 14px; white-space: pre;&quot;&gt;Sales_Channel&lt;/span&gt;" style="shape=partialRectangle;connectable=0;fillColor=none;top=0;left=0;bottom=0;right=0;align=left;spacingLeft=6;overflow=hidden;whiteSpace=wrap;html=1;fontColor=default;fontFamily=Helvetica;" vertex="1" parent="Nl6qYrxgCBTLw5XmiY3X-122">
          <mxGeometry x="30" width="160" height="30" as="geometry">
            <mxRectangle width="160" height="30" as="alternateBounds" />
          </mxGeometry>
        </mxCell>
        <mxCell id="Nl6qYrxgCBTLw5XmiY3X-125" style="shape=tableRow;horizontal=0;startSize=0;swimlaneHead=0;swimlaneBody=0;fillColor=none;collapsible=0;dropTarget=0;points=[[0,0.5],[1,0.5]];portConstraint=eastwest;top=0;left=0;right=0;bottom=0;fontColor=default;fontFamily=Helvetica;" vertex="1" parent="Nl6qYrxgCBTLw5XmiY3X-97">
          <mxGeometry y="240" width="190" height="30" as="geometry" />
        </mxCell>
        <mxCell id="Nl6qYrxgCBTLw5XmiY3X-126" style="shape=partialRectangle;connectable=0;fillColor=none;top=0;left=0;bottom=0;right=0;editable=1;overflow=hidden;whiteSpace=wrap;html=1;fontColor=default;fontFamily=Helvetica;" vertex="1" parent="Nl6qYrxgCBTLw5XmiY3X-125">
          <mxGeometry width="30" height="30" as="geometry">
            <mxRectangle width="30" height="30" as="alternateBounds" />
          </mxGeometry>
        </mxCell>
        <mxCell id="Nl6qYrxgCBTLw5XmiY3X-127" value="&lt;span style=&quot;font-size: 14px; white-space: pre;&quot;&gt;Order_Priority&lt;/span&gt;" style="shape=partialRectangle;connectable=0;fillColor=none;top=0;left=0;bottom=0;right=0;align=left;spacingLeft=6;overflow=hidden;whiteSpace=wrap;html=1;fontColor=default;fontFamily=Helvetica;" vertex="1" parent="Nl6qYrxgCBTLw5XmiY3X-125">
          <mxGeometry x="30" width="160" height="30" as="geometry">
            <mxRectangle width="160" height="30" as="alternateBounds" />
          </mxGeometry>
        </mxCell>
        <mxCell id="Nl6qYrxgCBTLw5XmiY3X-128" style="shape=tableRow;horizontal=0;startSize=0;swimlaneHead=0;swimlaneBody=0;fillColor=none;collapsible=0;dropTarget=0;points=[[0,0.5],[1,0.5]];portConstraint=eastwest;top=0;left=0;right=0;bottom=0;fontColor=default;fontFamily=Helvetica;" vertex="1" parent="Nl6qYrxgCBTLw5XmiY3X-97">
          <mxGeometry y="270" width="190" height="30" as="geometry" />
        </mxCell>
        <mxCell id="Nl6qYrxgCBTLw5XmiY3X-129" style="shape=partialRectangle;connectable=0;fillColor=none;top=0;left=0;bottom=0;right=0;editable=1;overflow=hidden;whiteSpace=wrap;html=1;fontColor=default;fontFamily=Helvetica;" vertex="1" parent="Nl6qYrxgCBTLw5XmiY3X-128">
          <mxGeometry width="30" height="30" as="geometry">
            <mxRectangle width="30" height="30" as="alternateBounds" />
          </mxGeometry>
        </mxCell>
        <mxCell id="Nl6qYrxgCBTLw5XmiY3X-130" value="&lt;span style=&quot;font-size: 14px; white-space: pre;&quot;&gt;Warehouse_Code&lt;/span&gt;" style="shape=partialRectangle;connectable=0;fillColor=none;top=0;left=0;bottom=0;right=0;align=left;spacingLeft=6;overflow=hidden;whiteSpace=wrap;html=1;fontColor=default;fontFamily=Helvetica;" vertex="1" parent="Nl6qYrxgCBTLw5XmiY3X-128">
          <mxGeometry x="30" width="160" height="30" as="geometry">
            <mxRectangle width="160" height="30" as="alternateBounds" />
          </mxGeometry>
        </mxCell>
        <mxCell id="Nl6qYrxgCBTLw5XmiY3X-131" style="shape=tableRow;horizontal=0;startSize=0;swimlaneHead=0;swimlaneBody=0;fillColor=none;collapsible=0;dropTarget=0;points=[[0,0.5],[1,0.5]];portConstraint=eastwest;top=0;left=0;right=0;bottom=0;fontColor=default;fontFamily=Helvetica;" vertex="1" parent="Nl6qYrxgCBTLw5XmiY3X-97">
          <mxGeometry y="300" width="190" height="30" as="geometry" />
        </mxCell>
        <mxCell id="Nl6qYrxgCBTLw5XmiY3X-132" style="shape=partialRectangle;connectable=0;fillColor=none;top=0;left=0;bottom=0;right=0;editable=1;overflow=hidden;whiteSpace=wrap;html=1;fontColor=default;fontFamily=Helvetica;" vertex="1" parent="Nl6qYrxgCBTLw5XmiY3X-131">
          <mxGeometry width="30" height="30" as="geometry">
            <mxRectangle width="30" height="30" as="alternateBounds" />
          </mxGeometry>
        </mxCell>
        <mxCell id="Nl6qYrxgCBTLw5XmiY3X-133" value="&lt;span style=&quot;font-size: 14px; white-space: pre;&quot;&gt;Ship_Mode&lt;/span&gt;" style="shape=partialRectangle;connectable=0;fillColor=none;top=0;left=0;bottom=0;right=0;align=left;spacingLeft=6;overflow=hidden;whiteSpace=wrap;html=1;fontColor=default;fontFamily=Helvetica;" vertex="1" parent="Nl6qYrxgCBTLw5XmiY3X-131">
          <mxGeometry x="30" width="160" height="30" as="geometry">
            <mxRectangle width="160" height="30" as="alternateBounds" />
          </mxGeometry>
        </mxCell>
        <mxCell id="Nl6qYrxgCBTLw5XmiY3X-134" style="shape=tableRow;horizontal=0;startSize=0;swimlaneHead=0;swimlaneBody=0;fillColor=none;collapsible=0;dropTarget=0;points=[[0,0.5],[1,0.5]];portConstraint=eastwest;top=0;left=0;right=0;bottom=0;fontColor=default;fontFamily=Helvetica;" vertex="1" parent="Nl6qYrxgCBTLw5XmiY3X-97">
          <mxGeometry y="330" width="190" height="30" as="geometry" />
        </mxCell>
        <mxCell id="Nl6qYrxgCBTLw5XmiY3X-135" style="shape=partialRectangle;connectable=0;fillColor=none;top=0;left=0;bottom=0;right=0;editable=1;overflow=hidden;whiteSpace=wrap;html=1;fontColor=default;fontFamily=Helvetica;" vertex="1" parent="Nl6qYrxgCBTLw5XmiY3X-134">
          <mxGeometry width="30" height="30" as="geometry">
            <mxRectangle width="30" height="30" as="alternateBounds" />
          </mxGeometry>
        </mxCell>
        <mxCell id="Nl6qYrxgCBTLw5XmiY3X-136" value="&lt;span style=&quot;font-size: 14px; white-space: pre;&quot;&gt;Delivery_Status&lt;/span&gt;" style="shape=partialRectangle;connectable=0;fillColor=none;top=0;left=0;bottom=0;right=0;align=left;spacingLeft=6;overflow=hidden;whiteSpace=wrap;html=1;fontColor=default;fontFamily=Helvetica;" vertex="1" parent="Nl6qYrxgCBTLw5XmiY3X-134">
          <mxGeometry x="30" width="160" height="30" as="geometry">
            <mxRectangle width="160" height="30" as="alternateBounds" />
          </mxGeometry>
        </mxCell>
        <mxCell id="Nl6qYrxgCBTLw5XmiY3X-137" style="shape=tableRow;horizontal=0;startSize=0;swimlaneHead=0;swimlaneBody=0;fillColor=none;collapsible=0;dropTarget=0;points=[[0,0.5],[1,0.5]];portConstraint=eastwest;top=0;left=0;right=0;bottom=0;fontColor=default;fontFamily=Helvetica;" vertex="1" parent="Nl6qYrxgCBTLw5XmiY3X-97">
          <mxGeometry y="360" width="190" height="30" as="geometry" />
        </mxCell>
        <mxCell id="Nl6qYrxgCBTLw5XmiY3X-138" style="shape=partialRectangle;connectable=0;fillColor=none;top=0;left=0;bottom=0;right=0;editable=1;overflow=hidden;whiteSpace=wrap;html=1;fontColor=default;fontFamily=Helvetica;" vertex="1" parent="Nl6qYrxgCBTLw5XmiY3X-137">
          <mxGeometry width="30" height="30" as="geometry">
            <mxRectangle width="30" height="30" as="alternateBounds" />
          </mxGeometry>
        </mxCell>
        <mxCell id="Nl6qYrxgCBTLw5XmiY3X-139" value="&lt;span style=&quot;font-size: 14px; white-space: pre;&quot;&gt;Customer_Satisfaction&lt;/span&gt;" style="shape=partialRectangle;connectable=0;fillColor=none;top=0;left=0;bottom=0;right=0;align=left;spacingLeft=6;overflow=hidden;whiteSpace=wrap;html=1;fontColor=default;fontFamily=Helvetica;" vertex="1" parent="Nl6qYrxgCBTLw5XmiY3X-137">
          <mxGeometry x="30" width="160" height="30" as="geometry">
            <mxRectangle width="160" height="30" as="alternateBounds" />
          </mxGeometry>
        </mxCell>
        <mxCell id="Nl6qYrxgCBTLw5XmiY3X-140" style="shape=tableRow;horizontal=0;startSize=0;swimlaneHead=0;swimlaneBody=0;fillColor=none;collapsible=0;dropTarget=0;points=[[0,0.5],[1,0.5]];portConstraint=eastwest;top=0;left=0;right=0;bottom=0;fontColor=default;fontFamily=Helvetica;" vertex="1" parent="Nl6qYrxgCBTLw5XmiY3X-97">
          <mxGeometry y="390" width="190" height="30" as="geometry" />
        </mxCell>
        <mxCell id="Nl6qYrxgCBTLw5XmiY3X-141" style="shape=partialRectangle;connectable=0;fillColor=none;top=0;left=0;bottom=0;right=0;editable=1;overflow=hidden;whiteSpace=wrap;html=1;fontColor=default;fontFamily=Helvetica;" vertex="1" parent="Nl6qYrxgCBTLw5XmiY3X-140">
          <mxGeometry width="30" height="30" as="geometry">
            <mxRectangle width="30" height="30" as="alternateBounds" />
          </mxGeometry>
        </mxCell>
        <mxCell id="Nl6qYrxgCBTLw5XmiY3X-142" value="&lt;span style=&quot;font-size: 14px; white-space: pre;&quot;&gt;Item_Returned&lt;/span&gt;" style="shape=partialRectangle;connectable=0;fillColor=none;top=0;left=0;bottom=0;right=0;align=left;spacingLeft=6;overflow=hidden;whiteSpace=wrap;html=1;fontColor=default;fontFamily=Helvetica;" vertex="1" parent="Nl6qYrxgCBTLw5XmiY3X-140">
          <mxGeometry x="30" width="160" height="30" as="geometry">
            <mxRectangle width="160" height="30" as="alternateBounds" />
          </mxGeometry>
        </mxCell>
        <mxCell id="Nl6qYrxgCBTLw5XmiY3X-143" style="shape=tableRow;horizontal=0;startSize=0;swimlaneHead=0;swimlaneBody=0;fillColor=none;collapsible=0;dropTarget=0;points=[[0,0.5],[1,0.5]];portConstraint=eastwest;top=0;left=0;right=0;bottom=0;fontColor=default;fontFamily=Helvetica;" vertex="1" parent="Nl6qYrxgCBTLw5XmiY3X-97">
          <mxGeometry y="420" width="190" height="30" as="geometry" />
        </mxCell>
        <mxCell id="Nl6qYrxgCBTLw5XmiY3X-144" style="shape=partialRectangle;connectable=0;fillColor=none;top=0;left=0;bottom=0;right=0;editable=1;overflow=hidden;whiteSpace=wrap;html=1;fontColor=default;fontFamily=Helvetica;" vertex="1" parent="Nl6qYrxgCBTLw5XmiY3X-143">
          <mxGeometry width="30" height="30" as="geometry">
            <mxRectangle width="30" height="30" as="alternateBounds" />
          </mxGeometry>
        </mxCell>
        <mxCell id="Nl6qYrxgCBTLw5XmiY3X-145" value="&lt;span style=&quot;font-size: 14px; white-space: pre;&quot;&gt;Return_Reason&lt;/span&gt;" style="shape=partialRectangle;connectable=0;fillColor=none;top=0;left=0;bottom=0;right=0;align=left;spacingLeft=6;overflow=hidden;whiteSpace=wrap;html=1;fontColor=default;fontFamily=Helvetica;" vertex="1" parent="Nl6qYrxgCBTLw5XmiY3X-143">
          <mxGeometry x="30" width="160" height="30" as="geometry">
            <mxRectangle width="160" height="30" as="alternateBounds" />
          </mxGeometry>
        </mxCell>
        <mxCell id="Nl6qYrxgCBTLw5XmiY3X-146" style="shape=tableRow;horizontal=0;startSize=0;swimlaneHead=0;swimlaneBody=0;fillColor=none;collapsible=0;dropTarget=0;points=[[0,0.5],[1,0.5]];portConstraint=eastwest;top=0;left=0;right=0;bottom=0;fontColor=default;fontFamily=Helvetica;" vertex="1" parent="Nl6qYrxgCBTLw5XmiY3X-97">
          <mxGeometry y="450" width="190" height="30" as="geometry" />
        </mxCell>
        <mxCell id="Nl6qYrxgCBTLw5XmiY3X-147" style="shape=partialRectangle;connectable=0;fillColor=none;top=0;left=0;bottom=0;right=0;editable=1;overflow=hidden;whiteSpace=wrap;html=1;fontColor=default;fontFamily=Helvetica;" vertex="1" parent="Nl6qYrxgCBTLw5XmiY3X-146">
          <mxGeometry width="30" height="30" as="geometry">
            <mxRectangle width="30" height="30" as="alternateBounds" />
          </mxGeometry>
        </mxCell>
        <mxCell id="Nl6qYrxgCBTLw5XmiY3X-148" value="&lt;span style=&quot;font-size: 14px; white-space: pre;&quot;&gt;Payment_Type&lt;/span&gt;" style="shape=partialRectangle;connectable=0;fillColor=none;top=0;left=0;bottom=0;right=0;align=left;spacingLeft=6;overflow=hidden;whiteSpace=wrap;html=1;fontColor=default;fontFamily=Helvetica;" vertex="1" parent="Nl6qYrxgCBTLw5XmiY3X-146">
          <mxGeometry x="30" width="160" height="30" as="geometry">
            <mxRectangle width="160" height="30" as="alternateBounds" />
          </mxGeometry>
        </mxCell>
        <mxCell id="Nl6qYrxgCBTLw5XmiY3X-149" style="shape=tableRow;horizontal=0;startSize=0;swimlaneHead=0;swimlaneBody=0;fillColor=none;collapsible=0;dropTarget=0;points=[[0,0.5],[1,0.5]];portConstraint=eastwest;top=0;left=0;right=0;bottom=0;fontColor=default;fontFamily=Helvetica;" vertex="1" parent="Nl6qYrxgCBTLw5XmiY3X-97">
          <mxGeometry y="480" width="190" height="30" as="geometry" />
        </mxCell>
        <mxCell id="Nl6qYrxgCBTLw5XmiY3X-150" style="shape=partialRectangle;connectable=0;fillColor=none;top=0;left=0;bottom=0;right=0;editable=1;overflow=hidden;whiteSpace=wrap;html=1;fontColor=default;fontFamily=Helvetica;" vertex="1" parent="Nl6qYrxgCBTLw5XmiY3X-149">
          <mxGeometry width="30" height="30" as="geometry">
            <mxRectangle width="30" height="30" as="alternateBounds" />
          </mxGeometry>
        </mxCell>
        <mxCell id="Nl6qYrxgCBTLw5XmiY3X-151" value="&lt;span style=&quot;font-size: 14px; white-space: pre;&quot;&gt;Taxable&lt;/span&gt;" style="shape=partialRectangle;connectable=0;fillColor=none;top=0;left=0;bottom=0;right=0;align=left;spacingLeft=6;overflow=hidden;whiteSpace=wrap;html=1;fontColor=default;fontFamily=Helvetica;" vertex="1" parent="Nl6qYrxgCBTLw5XmiY3X-149">
          <mxGeometry x="30" width="160" height="30" as="geometry">
            <mxRectangle width="160" height="30" as="alternateBounds" />
          </mxGeometry>
        </mxCell>
        <mxCell id="Nl6qYrxgCBTLw5XmiY3X-152" style="shape=tableRow;horizontal=0;startSize=0;swimlaneHead=0;swimlaneBody=0;fillColor=none;collapsible=0;dropTarget=0;points=[[0,0.5],[1,0.5]];portConstraint=eastwest;top=0;left=0;right=0;bottom=0;fontColor=default;fontFamily=Helvetica;" vertex="1" parent="Nl6qYrxgCBTLw5XmiY3X-97">
          <mxGeometry y="510" width="190" height="30" as="geometry" />
        </mxCell>
        <mxCell id="Nl6qYrxgCBTLw5XmiY3X-153" style="shape=partialRectangle;connectable=0;fillColor=none;top=0;left=0;bottom=0;right=0;editable=1;overflow=hidden;whiteSpace=wrap;html=1;fontColor=default;fontFamily=Helvetica;" vertex="1" parent="Nl6qYrxgCBTLw5XmiY3X-152">
          <mxGeometry width="30" height="30" as="geometry">
            <mxRectangle width="30" height="30" as="alternateBounds" />
          </mxGeometry>
        </mxCell>
        <mxCell id="Nl6qYrxgCBTLw5XmiY3X-154" value="&lt;span style=&quot;font-size: 14px; white-space: pre;&quot;&gt;Region&lt;/span&gt;" style="shape=partialRectangle;connectable=0;fillColor=none;top=0;left=0;bottom=0;right=0;align=left;spacingLeft=6;overflow=hidden;whiteSpace=wrap;html=1;fontColor=default;fontFamily=Helvetica;" vertex="1" parent="Nl6qYrxgCBTLw5XmiY3X-152">
          <mxGeometry x="30" width="160" height="30" as="geometry">
            <mxRectangle width="160" height="30" as="alternateBounds" />
          </mxGeometry>
        </mxCell>
        <mxCell id="Nl6qYrxgCBTLw5XmiY3X-155" style="shape=tableRow;horizontal=0;startSize=0;swimlaneHead=0;swimlaneBody=0;fillColor=none;collapsible=0;dropTarget=0;points=[[0,0.5],[1,0.5]];portConstraint=eastwest;top=0;left=0;right=0;bottom=0;fontColor=default;fontFamily=Helvetica;" vertex="1" parent="Nl6qYrxgCBTLw5XmiY3X-97">
          <mxGeometry y="540" width="190" height="30" as="geometry" />
        </mxCell>
        <mxCell id="Nl6qYrxgCBTLw5XmiY3X-156" style="shape=partialRectangle;connectable=0;fillColor=none;top=0;left=0;bottom=0;right=0;editable=1;overflow=hidden;whiteSpace=wrap;html=1;fontColor=default;fontFamily=Helvetica;" vertex="1" parent="Nl6qYrxgCBTLw5XmiY3X-155">
          <mxGeometry width="30" height="30" as="geometry">
            <mxRectangle width="30" height="30" as="alternateBounds" />
          </mxGeometry>
        </mxCell>
        <mxCell id="Nl6qYrxgCBTLw5XmiY3X-157" value="&lt;span style=&quot;font-size: 14px; white-space: pre;&quot;&gt;Country&lt;/span&gt;" style="shape=partialRectangle;connectable=0;fillColor=none;top=0;left=0;bottom=0;right=0;align=left;spacingLeft=6;overflow=hidden;whiteSpace=wrap;html=1;fontColor=default;fontFamily=Helvetica;" vertex="1" parent="Nl6qYrxgCBTLw5XmiY3X-155">
          <mxGeometry x="30" width="160" height="30" as="geometry">
            <mxRectangle width="160" height="30" as="alternateBounds" />
          </mxGeometry>
        </mxCell>
        <mxCell id="Nl6qYrxgCBTLw5XmiY3X-174" style="edgeStyle=orthogonalEdgeStyle;rounded=0;orthogonalLoop=1;jettySize=auto;html=1;exitX=0;exitY=0.5;exitDx=0;exitDy=0;entryX=1;entryY=0.5;entryDx=0;entryDy=0;" edge="1" parent="1" source="Nl6qYrxgCBTLw5XmiY3X-81" target="Nl6qYrxgCBTLw5XmiY3X-107">
          <mxGeometry relative="1" as="geometry" />
        </mxCell>
        <mxCell id="Nl6qYrxgCBTLw5XmiY3X-175" style="edgeStyle=orthogonalEdgeStyle;rounded=0;orthogonalLoop=1;jettySize=auto;html=1;exitX=1;exitY=0.5;exitDx=0;exitDy=0;entryX=0;entryY=0.5;entryDx=0;entryDy=0;" edge="1" parent="1" source="Nl6qYrxgCBTLw5XmiY3X-68" target="Nl6qYrxgCBTLw5XmiY3X-104">
          <mxGeometry relative="1" as="geometry" />
        </mxCell>
      </root>
    </mxGraphModel>
  </diagram>
  <diagram id="VILokpg_yGw2NnMXFmPW" name="Page-3">
    <mxGraphModel dx="2279" dy="953" grid="1" gridSize="10" guides="1" tooltips="1" connect="1" arrows="1" fold="1" page="1" pageScale="1" pageWidth="850" pageHeight="1100" math="0" shadow="0">
      <root>
        <mxCell id="0" />
        <mxCell id="1" parent="0" />
        <mxCell id="Ftb5WYysYISmJ9JLRI9I-1" value="" style="rounded=0;whiteSpace=wrap;html=1;" vertex="1" parent="1">
          <mxGeometry x="-280" y="100" width="930" height="740" as="geometry" />
        </mxCell>
        <mxCell id="Ftb5WYysYISmJ9JLRI9I-2" value="product" style="shape=table;startSize=30;container=1;collapsible=1;childLayout=tableLayout;fixedRows=1;rowLines=0;fontStyle=1;align=center;resizeLast=1;html=1;" vertex="1" parent="1">
          <mxGeometry x="410" y="220" width="180" height="150" as="geometry" />
        </mxCell>
        <mxCell id="Ftb5WYysYISmJ9JLRI9I-3" value="" style="shape=tableRow;horizontal=0;startSize=0;swimlaneHead=0;swimlaneBody=0;fillColor=none;collapsible=0;dropTarget=0;points=[[0,0.5],[1,0.5]];portConstraint=eastwest;top=0;left=0;right=0;bottom=1;" vertex="1" parent="Ftb5WYysYISmJ9JLRI9I-2">
          <mxGeometry y="30" width="180" height="30" as="geometry" />
        </mxCell>
        <mxCell id="Ftb5WYysYISmJ9JLRI9I-4" value="PK" style="shape=partialRectangle;connectable=0;fillColor=none;top=0;left=0;bottom=0;right=0;fontStyle=1;overflow=hidden;whiteSpace=wrap;html=1;" vertex="1" parent="Ftb5WYysYISmJ9JLRI9I-3">
          <mxGeometry width="30" height="30" as="geometry">
            <mxRectangle width="30" height="30" as="alternateBounds" />
          </mxGeometry>
        </mxCell>
        <mxCell id="Ftb5WYysYISmJ9JLRI9I-5" value="&lt;span style=&quot;font-size: 14px; white-space: pre;&quot;&gt;Product_ID&lt;/span&gt;" style="shape=partialRectangle;connectable=0;fillColor=none;top=0;left=0;bottom=0;right=0;align=left;spacingLeft=6;fontStyle=5;overflow=hidden;whiteSpace=wrap;html=1;" vertex="1" parent="Ftb5WYysYISmJ9JLRI9I-3">
          <mxGeometry x="30" width="150" height="30" as="geometry">
            <mxRectangle width="150" height="30" as="alternateBounds" />
          </mxGeometry>
        </mxCell>
        <mxCell id="Ftb5WYysYISmJ9JLRI9I-6" value="" style="shape=tableRow;horizontal=0;startSize=0;swimlaneHead=0;swimlaneBody=0;fillColor=none;collapsible=0;dropTarget=0;points=[[0,0.5],[1,0.5]];portConstraint=eastwest;top=0;left=0;right=0;bottom=0;" vertex="1" parent="Ftb5WYysYISmJ9JLRI9I-2">
          <mxGeometry y="60" width="180" height="30" as="geometry" />
        </mxCell>
        <mxCell id="Ftb5WYysYISmJ9JLRI9I-7" value="" style="shape=partialRectangle;connectable=0;fillColor=none;top=0;left=0;bottom=0;right=0;editable=1;overflow=hidden;whiteSpace=wrap;html=1;" vertex="1" parent="Ftb5WYysYISmJ9JLRI9I-6">
          <mxGeometry width="30" height="30" as="geometry">
            <mxRectangle width="30" height="30" as="alternateBounds" />
          </mxGeometry>
        </mxCell>
        <mxCell id="Ftb5WYysYISmJ9JLRI9I-8" value="&lt;span style=&quot;font-size: 14px; white-space: pre;&quot;&gt;Quantity&lt;/span&gt;" style="shape=partialRectangle;connectable=0;fillColor=none;top=0;left=0;bottom=0;right=0;align=left;spacingLeft=6;overflow=hidden;whiteSpace=wrap;html=1;" vertex="1" parent="Ftb5WYysYISmJ9JLRI9I-6">
          <mxGeometry x="30" width="150" height="30" as="geometry">
            <mxRectangle width="150" height="30" as="alternateBounds" />
          </mxGeometry>
        </mxCell>
        <mxCell id="Ftb5WYysYISmJ9JLRI9I-9" value="" style="shape=tableRow;horizontal=0;startSize=0;swimlaneHead=0;swimlaneBody=0;fillColor=none;collapsible=0;dropTarget=0;points=[[0,0.5],[1,0.5]];portConstraint=eastwest;top=0;left=0;right=0;bottom=0;" vertex="1" parent="Ftb5WYysYISmJ9JLRI9I-2">
          <mxGeometry y="90" width="180" height="30" as="geometry" />
        </mxCell>
        <mxCell id="Ftb5WYysYISmJ9JLRI9I-10" value="" style="shape=partialRectangle;connectable=0;fillColor=none;top=0;left=0;bottom=0;right=0;editable=1;overflow=hidden;whiteSpace=wrap;html=1;" vertex="1" parent="Ftb5WYysYISmJ9JLRI9I-9">
          <mxGeometry width="30" height="30" as="geometry">
            <mxRectangle width="30" height="30" as="alternateBounds" />
          </mxGeometry>
        </mxCell>
        <mxCell id="Ftb5WYysYISmJ9JLRI9I-11" value="&lt;span style=&quot;font-size: 14px; white-space: pre;&quot;&gt;Unit_Price&lt;/span&gt;" style="shape=partialRectangle;connectable=0;fillColor=none;top=0;left=0;bottom=0;right=0;align=left;spacingLeft=6;overflow=hidden;whiteSpace=wrap;html=1;" vertex="1" parent="Ftb5WYysYISmJ9JLRI9I-9">
          <mxGeometry x="30" width="150" height="30" as="geometry">
            <mxRectangle width="150" height="30" as="alternateBounds" />
          </mxGeometry>
        </mxCell>
        <mxCell id="Ftb5WYysYISmJ9JLRI9I-12" value="" style="shape=tableRow;horizontal=0;startSize=0;swimlaneHead=0;swimlaneBody=0;fillColor=none;collapsible=0;dropTarget=0;points=[[0,0.5],[1,0.5]];portConstraint=eastwest;top=0;left=0;right=0;bottom=0;" vertex="1" parent="Ftb5WYysYISmJ9JLRI9I-2">
          <mxGeometry y="120" width="180" height="30" as="geometry" />
        </mxCell>
        <mxCell id="Ftb5WYysYISmJ9JLRI9I-13" value="" style="shape=partialRectangle;connectable=0;fillColor=none;top=0;left=0;bottom=0;right=0;editable=1;overflow=hidden;whiteSpace=wrap;html=1;" vertex="1" parent="Ftb5WYysYISmJ9JLRI9I-12">
          <mxGeometry width="30" height="30" as="geometry">
            <mxRectangle width="30" height="30" as="alternateBounds" />
          </mxGeometry>
        </mxCell>
        <mxCell id="Ftb5WYysYISmJ9JLRI9I-14" value="&lt;span style=&quot;font-size: 14px; white-space: pre;&quot;&gt;Product_List_Title&lt;/span&gt;" style="shape=partialRectangle;connectable=0;fillColor=none;top=0;left=0;bottom=0;right=0;align=left;spacingLeft=6;overflow=hidden;whiteSpace=wrap;html=1;" vertex="1" parent="Ftb5WYysYISmJ9JLRI9I-12">
          <mxGeometry x="30" width="150" height="30" as="geometry">
            <mxRectangle width="150" height="30" as="alternateBounds" />
          </mxGeometry>
        </mxCell>
        <mxCell id="Ftb5WYysYISmJ9JLRI9I-15" value="customer" style="shape=table;startSize=30;container=1;collapsible=1;childLayout=tableLayout;fixedRows=1;rowLines=0;fontStyle=1;align=center;resizeLast=1;html=1;" vertex="1" parent="1">
          <mxGeometry x="-210" y="220" width="180" height="180" as="geometry" />
        </mxCell>
        <mxCell id="Ftb5WYysYISmJ9JLRI9I-16" value="" style="shape=tableRow;horizontal=0;startSize=0;swimlaneHead=0;swimlaneBody=0;fillColor=none;collapsible=0;dropTarget=0;points=[[0,0.5],[1,0.5]];portConstraint=eastwest;top=0;left=0;right=0;bottom=1;" vertex="1" parent="Ftb5WYysYISmJ9JLRI9I-15">
          <mxGeometry y="30" width="180" height="30" as="geometry" />
        </mxCell>
        <mxCell id="Ftb5WYysYISmJ9JLRI9I-17" value="PK" style="shape=partialRectangle;connectable=0;fillColor=none;top=0;left=0;bottom=0;right=0;fontStyle=1;overflow=hidden;whiteSpace=wrap;html=1;" vertex="1" parent="Ftb5WYysYISmJ9JLRI9I-16">
          <mxGeometry width="30" height="30" as="geometry">
            <mxRectangle width="30" height="30" as="alternateBounds" />
          </mxGeometry>
        </mxCell>
        <mxCell id="Ftb5WYysYISmJ9JLRI9I-18" value="&lt;span style=&quot;font-size: 14px; white-space: pre;&quot;&gt;Customer_ID&lt;/span&gt;" style="shape=partialRectangle;connectable=0;fillColor=none;top=0;left=0;bottom=0;right=0;align=left;spacingLeft=6;fontStyle=5;overflow=hidden;whiteSpace=wrap;html=1;" vertex="1" parent="Ftb5WYysYISmJ9JLRI9I-16">
          <mxGeometry x="30" width="150" height="30" as="geometry">
            <mxRectangle width="150" height="30" as="alternateBounds" />
          </mxGeometry>
        </mxCell>
        <mxCell id="Ftb5WYysYISmJ9JLRI9I-19" value="" style="shape=tableRow;horizontal=0;startSize=0;swimlaneHead=0;swimlaneBody=0;fillColor=none;collapsible=0;dropTarget=0;points=[[0,0.5],[1,0.5]];portConstraint=eastwest;top=0;left=0;right=0;bottom=0;" vertex="1" parent="Ftb5WYysYISmJ9JLRI9I-15">
          <mxGeometry y="60" width="180" height="30" as="geometry" />
        </mxCell>
        <mxCell id="Ftb5WYysYISmJ9JLRI9I-20" value="" style="shape=partialRectangle;connectable=0;fillColor=none;top=0;left=0;bottom=0;right=0;editable=1;overflow=hidden;whiteSpace=wrap;html=1;" vertex="1" parent="Ftb5WYysYISmJ9JLRI9I-19">
          <mxGeometry width="30" height="30" as="geometry">
            <mxRectangle width="30" height="30" as="alternateBounds" />
          </mxGeometry>
        </mxCell>
        <mxCell id="Ftb5WYysYISmJ9JLRI9I-21" value="&lt;span style=&quot;font-size: 14px; white-space: pre;&quot;&gt;Customer_Name&lt;/span&gt;" style="shape=partialRectangle;connectable=0;fillColor=none;top=0;left=0;bottom=0;right=0;align=left;spacingLeft=6;overflow=hidden;whiteSpace=wrap;html=1;" vertex="1" parent="Ftb5WYysYISmJ9JLRI9I-19">
          <mxGeometry x="30" width="150" height="30" as="geometry">
            <mxRectangle width="150" height="30" as="alternateBounds" />
          </mxGeometry>
        </mxCell>
        <mxCell id="Ftb5WYysYISmJ9JLRI9I-22" value="" style="shape=tableRow;horizontal=0;startSize=0;swimlaneHead=0;swimlaneBody=0;fillColor=none;collapsible=0;dropTarget=0;points=[[0,0.5],[1,0.5]];portConstraint=eastwest;top=0;left=0;right=0;bottom=0;" vertex="1" parent="Ftb5WYysYISmJ9JLRI9I-15">
          <mxGeometry y="90" width="180" height="30" as="geometry" />
        </mxCell>
        <mxCell id="Ftb5WYysYISmJ9JLRI9I-23" value="" style="shape=partialRectangle;connectable=0;fillColor=none;top=0;left=0;bottom=0;right=0;editable=1;overflow=hidden;whiteSpace=wrap;html=1;" vertex="1" parent="Ftb5WYysYISmJ9JLRI9I-22">
          <mxGeometry width="30" height="30" as="geometry">
            <mxRectangle width="30" height="30" as="alternateBounds" />
          </mxGeometry>
        </mxCell>
        <mxCell id="Ftb5WYysYISmJ9JLRI9I-24" value="&lt;span style=&quot;font-size: 14px; white-space: pre;&quot;&gt;Customer_Phone&lt;/span&gt;" style="shape=partialRectangle;connectable=0;fillColor=none;top=0;left=0;bottom=0;right=0;align=left;spacingLeft=6;overflow=hidden;whiteSpace=wrap;html=1;" vertex="1" parent="Ftb5WYysYISmJ9JLRI9I-22">
          <mxGeometry x="30" width="150" height="30" as="geometry">
            <mxRectangle width="150" height="30" as="alternateBounds" />
          </mxGeometry>
        </mxCell>
        <mxCell id="Ftb5WYysYISmJ9JLRI9I-25" value="" style="shape=tableRow;horizontal=0;startSize=0;swimlaneHead=0;swimlaneBody=0;fillColor=none;collapsible=0;dropTarget=0;points=[[0,0.5],[1,0.5]];portConstraint=eastwest;top=0;left=0;right=0;bottom=0;" vertex="1" parent="Ftb5WYysYISmJ9JLRI9I-15">
          <mxGeometry y="120" width="180" height="30" as="geometry" />
        </mxCell>
        <mxCell id="Ftb5WYysYISmJ9JLRI9I-26" value="" style="shape=partialRectangle;connectable=0;fillColor=none;top=0;left=0;bottom=0;right=0;editable=1;overflow=hidden;whiteSpace=wrap;html=1;" vertex="1" parent="Ftb5WYysYISmJ9JLRI9I-25">
          <mxGeometry width="30" height="30" as="geometry">
            <mxRectangle width="30" height="30" as="alternateBounds" />
          </mxGeometry>
        </mxCell>
        <mxCell id="Ftb5WYysYISmJ9JLRI9I-27" value="&lt;span style=&quot;font-size: 14px; white-space: pre;&quot;&gt;Customer_Email&lt;/span&gt;" style="shape=partialRectangle;connectable=0;fillColor=none;top=0;left=0;bottom=0;right=0;align=left;spacingLeft=6;overflow=hidden;whiteSpace=wrap;html=1;" vertex="1" parent="Ftb5WYysYISmJ9JLRI9I-25">
          <mxGeometry x="30" width="150" height="30" as="geometry">
            <mxRectangle width="150" height="30" as="alternateBounds" />
          </mxGeometry>
        </mxCell>
        <mxCell id="Ftb5WYysYISmJ9JLRI9I-28" style="shape=tableRow;horizontal=0;startSize=0;swimlaneHead=0;swimlaneBody=0;fillColor=none;collapsible=0;dropTarget=0;points=[[0,0.5],[1,0.5]];portConstraint=eastwest;top=0;left=0;right=0;bottom=0;" vertex="1" parent="Ftb5WYysYISmJ9JLRI9I-15">
          <mxGeometry y="150" width="180" height="30" as="geometry" />
        </mxCell>
        <mxCell id="Ftb5WYysYISmJ9JLRI9I-29" style="shape=partialRectangle;connectable=0;fillColor=none;top=0;left=0;bottom=0;right=0;editable=1;overflow=hidden;whiteSpace=wrap;html=1;" vertex="1" parent="Ftb5WYysYISmJ9JLRI9I-28">
          <mxGeometry width="30" height="30" as="geometry">
            <mxRectangle width="30" height="30" as="alternateBounds" />
          </mxGeometry>
        </mxCell>
        <mxCell id="Ftb5WYysYISmJ9JLRI9I-30" value="&lt;span style=&quot;font-size: 14px; white-space: pre;&quot;&gt;Customer_Address&lt;/span&gt;" style="shape=partialRectangle;connectable=0;fillColor=none;top=0;left=0;bottom=0;right=0;align=left;spacingLeft=6;overflow=hidden;whiteSpace=wrap;html=1;" vertex="1" parent="Ftb5WYysYISmJ9JLRI9I-28">
          <mxGeometry x="30" width="150" height="30" as="geometry">
            <mxRectangle width="150" height="30" as="alternateBounds" />
          </mxGeometry>
        </mxCell>
        <mxCell id="Ftb5WYysYISmJ9JLRI9I-31" value="ziko_logistics" style="shape=table;startSize=30;container=1;collapsible=1;childLayout=tableLayout;fixedRows=1;rowLines=0;fontStyle=1;align=center;resizeLast=1;html=1;" vertex="1" parent="1">
          <mxGeometry x="90" y="220" width="190" height="570" as="geometry" />
        </mxCell>
        <mxCell id="Ftb5WYysYISmJ9JLRI9I-32" value="" style="shape=tableRow;horizontal=0;startSize=0;swimlaneHead=0;swimlaneBody=0;fillColor=none;collapsible=0;dropTarget=0;points=[[0,0.5],[1,0.5]];portConstraint=eastwest;top=0;left=0;right=0;bottom=1;" vertex="1" parent="Ftb5WYysYISmJ9JLRI9I-31">
          <mxGeometry y="30" width="190" height="30" as="geometry" />
        </mxCell>
        <mxCell id="Ftb5WYysYISmJ9JLRI9I-33" value="PK" style="shape=partialRectangle;connectable=0;fillColor=none;top=0;left=0;bottom=0;right=0;fontStyle=1;overflow=hidden;whiteSpace=wrap;html=1;" vertex="1" parent="Ftb5WYysYISmJ9JLRI9I-32">
          <mxGeometry width="30" height="30" as="geometry">
            <mxRectangle width="30" height="30" as="alternateBounds" />
          </mxGeometry>
        </mxCell>
        <mxCell id="Ftb5WYysYISmJ9JLRI9I-34" value="&lt;span style=&quot;font-size: 14px; white-space: pre;&quot;&gt;&lt;font face=&quot;Helvetica&quot; style=&quot;color: rgb(0, 0, 0);&quot;&gt;Transaction_ID&lt;/font&gt;&lt;/span&gt;" style="shape=partialRectangle;connectable=0;fillColor=none;top=0;left=0;bottom=0;right=0;align=left;spacingLeft=6;fontStyle=5;overflow=hidden;whiteSpace=wrap;html=1;strokeColor=#6c8ebf;" vertex="1" parent="Ftb5WYysYISmJ9JLRI9I-32">
          <mxGeometry x="30" width="160" height="30" as="geometry">
            <mxRectangle width="160" height="30" as="alternateBounds" />
          </mxGeometry>
        </mxCell>
        <mxCell id="Ftb5WYysYISmJ9JLRI9I-35" value="" style="shape=tableRow;horizontal=0;startSize=0;swimlaneHead=0;swimlaneBody=0;fillColor=none;collapsible=0;dropTarget=0;points=[[0,0.5],[1,0.5]];portConstraint=eastwest;top=0;left=0;right=0;bottom=0;fontColor=default;fontFamily=Helvetica;" vertex="1" parent="Ftb5WYysYISmJ9JLRI9I-31">
          <mxGeometry y="60" width="190" height="30" as="geometry" />
        </mxCell>
        <mxCell id="Ftb5WYysYISmJ9JLRI9I-36" value="" style="shape=partialRectangle;connectable=0;fillColor=none;top=0;left=0;bottom=0;right=0;editable=1;overflow=hidden;whiteSpace=wrap;html=1;fontColor=default;fontFamily=Helvetica;" vertex="1" parent="Ftb5WYysYISmJ9JLRI9I-35">
          <mxGeometry width="30" height="30" as="geometry">
            <mxRectangle width="30" height="30" as="alternateBounds" />
          </mxGeometry>
        </mxCell>
        <mxCell id="Ftb5WYysYISmJ9JLRI9I-37" value="&lt;span style=&quot;font-size: 14px; white-space: pre;&quot;&gt;&lt;font style=&quot;&quot;&gt;Date&lt;/font&gt;&lt;/span&gt;" style="shape=partialRectangle;connectable=0;fillColor=none;top=0;left=0;bottom=0;right=0;align=left;spacingLeft=6;overflow=hidden;whiteSpace=wrap;html=1;fontColor=default;fontFamily=Helvetica;" vertex="1" parent="Ftb5WYysYISmJ9JLRI9I-35">
          <mxGeometry x="30" width="160" height="30" as="geometry">
            <mxRectangle width="160" height="30" as="alternateBounds" />
          </mxGeometry>
        </mxCell>
        <mxCell id="Ftb5WYysYISmJ9JLRI9I-38" value="" style="shape=tableRow;horizontal=0;startSize=0;swimlaneHead=0;swimlaneBody=0;fillColor=none;collapsible=0;dropTarget=0;points=[[0,0.5],[1,0.5]];portConstraint=eastwest;top=0;left=0;right=0;bottom=0;fontColor=default;fontFamily=Helvetica;" vertex="1" parent="Ftb5WYysYISmJ9JLRI9I-31">
          <mxGeometry y="90" width="190" height="30" as="geometry" />
        </mxCell>
        <mxCell id="Ftb5WYysYISmJ9JLRI9I-39" value="FK" style="shape=partialRectangle;connectable=0;fillColor=none;top=0;left=0;bottom=0;right=0;editable=1;overflow=hidden;whiteSpace=wrap;html=1;fontFamily=Helvetica;strokeColor=#6c8ebf;" vertex="1" parent="Ftb5WYysYISmJ9JLRI9I-38">
          <mxGeometry width="30" height="30" as="geometry">
            <mxRectangle width="30" height="30" as="alternateBounds" />
          </mxGeometry>
        </mxCell>
        <mxCell id="Ftb5WYysYISmJ9JLRI9I-40" value="&lt;span style=&quot;font-size: 14px; white-space: pre;&quot;&gt;Customer_ID&lt;/span&gt;" style="shape=partialRectangle;connectable=0;fillColor=none;top=0;left=0;bottom=0;right=0;align=left;spacingLeft=6;overflow=hidden;whiteSpace=wrap;html=1;fontFamily=Helvetica;strokeColor=#b85450;" vertex="1" parent="Ftb5WYysYISmJ9JLRI9I-38">
          <mxGeometry x="30" width="160" height="30" as="geometry">
            <mxRectangle width="160" height="30" as="alternateBounds" />
          </mxGeometry>
        </mxCell>
        <mxCell id="Ftb5WYysYISmJ9JLRI9I-41" value="" style="shape=tableRow;horizontal=0;startSize=0;swimlaneHead=0;swimlaneBody=0;fillColor=none;collapsible=0;dropTarget=0;points=[[0,0.5],[1,0.5]];portConstraint=eastwest;top=0;left=0;right=0;bottom=0;fontColor=default;fontFamily=Helvetica;" vertex="1" parent="Ftb5WYysYISmJ9JLRI9I-31">
          <mxGeometry y="120" width="190" height="30" as="geometry" />
        </mxCell>
        <mxCell id="Ftb5WYysYISmJ9JLRI9I-42" value="FK" style="shape=partialRectangle;connectable=0;fillColor=none;top=0;left=0;bottom=0;right=0;editable=1;overflow=hidden;whiteSpace=wrap;html=1;fontFamily=Helvetica;strokeColor=#6c8ebf;" vertex="1" parent="Ftb5WYysYISmJ9JLRI9I-41">
          <mxGeometry width="30" height="30" as="geometry">
            <mxRectangle width="30" height="30" as="alternateBounds" />
          </mxGeometry>
        </mxCell>
        <mxCell id="Ftb5WYysYISmJ9JLRI9I-43" value="&lt;span style=&quot;font-size: 14px; white-space: pre;&quot;&gt;Product_ID&lt;/span&gt;" style="shape=partialRectangle;connectable=0;fillColor=none;top=0;left=0;bottom=0;right=0;align=left;spacingLeft=6;overflow=hidden;whiteSpace=wrap;html=1;fontFamily=Helvetica;strokeColor=#82b366;" vertex="1" parent="Ftb5WYysYISmJ9JLRI9I-41">
          <mxGeometry x="30" width="160" height="30" as="geometry">
            <mxRectangle width="160" height="30" as="alternateBounds" />
          </mxGeometry>
        </mxCell>
        <mxCell id="Ftb5WYysYISmJ9JLRI9I-44" style="shape=tableRow;horizontal=0;startSize=0;swimlaneHead=0;swimlaneBody=0;fillColor=none;collapsible=0;dropTarget=0;points=[[0,0.5],[1,0.5]];portConstraint=eastwest;top=0;left=0;right=0;bottom=0;fontColor=default;fontFamily=Helvetica;" vertex="1" parent="Ftb5WYysYISmJ9JLRI9I-31">
          <mxGeometry y="150" width="190" height="30" as="geometry" />
        </mxCell>
        <mxCell id="Ftb5WYysYISmJ9JLRI9I-45" style="shape=partialRectangle;connectable=0;fillColor=none;top=0;left=0;bottom=0;right=0;editable=1;overflow=hidden;whiteSpace=wrap;html=1;fontColor=default;fontFamily=Helvetica;" vertex="1" parent="Ftb5WYysYISmJ9JLRI9I-44">
          <mxGeometry width="30" height="30" as="geometry">
            <mxRectangle width="30" height="30" as="alternateBounds" />
          </mxGeometry>
        </mxCell>
        <mxCell id="Ftb5WYysYISmJ9JLRI9I-46" value="&lt;span style=&quot;font-size: 14px; white-space: pre;&quot;&gt;Total_Cost&lt;/span&gt;" style="shape=partialRectangle;connectable=0;fillColor=none;top=0;left=0;bottom=0;right=0;align=left;spacingLeft=6;overflow=hidden;whiteSpace=wrap;html=1;fontFamily=Helvetica;strokeColor=#6c8ebf;" vertex="1" parent="Ftb5WYysYISmJ9JLRI9I-44">
          <mxGeometry x="30" width="160" height="30" as="geometry">
            <mxRectangle width="160" height="30" as="alternateBounds" />
          </mxGeometry>
        </mxCell>
        <mxCell id="Ftb5WYysYISmJ9JLRI9I-47" style="shape=tableRow;horizontal=0;startSize=0;swimlaneHead=0;swimlaneBody=0;fillColor=none;collapsible=0;dropTarget=0;points=[[0,0.5],[1,0.5]];portConstraint=eastwest;top=0;left=0;right=0;bottom=0;fontColor=default;fontFamily=Helvetica;" vertex="1" parent="Ftb5WYysYISmJ9JLRI9I-31">
          <mxGeometry y="180" width="190" height="30" as="geometry" />
        </mxCell>
        <mxCell id="Ftb5WYysYISmJ9JLRI9I-48" style="shape=partialRectangle;connectable=0;fillColor=none;top=0;left=0;bottom=0;right=0;editable=1;overflow=hidden;whiteSpace=wrap;html=1;fontColor=default;fontFamily=Helvetica;" vertex="1" parent="Ftb5WYysYISmJ9JLRI9I-47">
          <mxGeometry width="30" height="30" as="geometry">
            <mxRectangle width="30" height="30" as="alternateBounds" />
          </mxGeometry>
        </mxCell>
        <mxCell id="Ftb5WYysYISmJ9JLRI9I-49" value="&lt;span style=&quot;font-size: 14px; white-space: pre;&quot;&gt;Discount_Rate&lt;/span&gt;" style="shape=partialRectangle;connectable=0;fillColor=none;top=0;left=0;bottom=0;right=0;align=left;spacingLeft=6;overflow=hidden;whiteSpace=wrap;html=1;fontColor=default;fontFamily=Helvetica;" vertex="1" parent="Ftb5WYysYISmJ9JLRI9I-47">
          <mxGeometry x="30" width="160" height="30" as="geometry">
            <mxRectangle width="160" height="30" as="alternateBounds" />
          </mxGeometry>
        </mxCell>
        <mxCell id="Ftb5WYysYISmJ9JLRI9I-50" style="shape=tableRow;horizontal=0;startSize=0;swimlaneHead=0;swimlaneBody=0;fillColor=none;collapsible=0;dropTarget=0;points=[[0,0.5],[1,0.5]];portConstraint=eastwest;top=0;left=0;right=0;bottom=0;fontColor=default;fontFamily=Helvetica;" vertex="1" parent="Ftb5WYysYISmJ9JLRI9I-31">
          <mxGeometry y="210" width="190" height="30" as="geometry" />
        </mxCell>
        <mxCell id="Ftb5WYysYISmJ9JLRI9I-51" style="shape=partialRectangle;connectable=0;fillColor=none;top=0;left=0;bottom=0;right=0;editable=1;overflow=hidden;whiteSpace=wrap;html=1;fontColor=default;fontFamily=Helvetica;" vertex="1" parent="Ftb5WYysYISmJ9JLRI9I-50">
          <mxGeometry width="30" height="30" as="geometry">
            <mxRectangle width="30" height="30" as="alternateBounds" />
          </mxGeometry>
        </mxCell>
        <mxCell id="Ftb5WYysYISmJ9JLRI9I-52" value="&lt;span style=&quot;font-size: 14px; white-space: pre;&quot;&gt;Sales_Channel&lt;/span&gt;" style="shape=partialRectangle;connectable=0;fillColor=none;top=0;left=0;bottom=0;right=0;align=left;spacingLeft=6;overflow=hidden;whiteSpace=wrap;html=1;fontColor=default;fontFamily=Helvetica;" vertex="1" parent="Ftb5WYysYISmJ9JLRI9I-50">
          <mxGeometry x="30" width="160" height="30" as="geometry">
            <mxRectangle width="160" height="30" as="alternateBounds" />
          </mxGeometry>
        </mxCell>
        <mxCell id="Ftb5WYysYISmJ9JLRI9I-53" style="shape=tableRow;horizontal=0;startSize=0;swimlaneHead=0;swimlaneBody=0;fillColor=none;collapsible=0;dropTarget=0;points=[[0,0.5],[1,0.5]];portConstraint=eastwest;top=0;left=0;right=0;bottom=0;fontColor=default;fontFamily=Helvetica;" vertex="1" parent="Ftb5WYysYISmJ9JLRI9I-31">
          <mxGeometry y="240" width="190" height="30" as="geometry" />
        </mxCell>
        <mxCell id="Ftb5WYysYISmJ9JLRI9I-54" style="shape=partialRectangle;connectable=0;fillColor=none;top=0;left=0;bottom=0;right=0;editable=1;overflow=hidden;whiteSpace=wrap;html=1;fontColor=default;fontFamily=Helvetica;" vertex="1" parent="Ftb5WYysYISmJ9JLRI9I-53">
          <mxGeometry width="30" height="30" as="geometry">
            <mxRectangle width="30" height="30" as="alternateBounds" />
          </mxGeometry>
        </mxCell>
        <mxCell id="Ftb5WYysYISmJ9JLRI9I-55" value="&lt;span style=&quot;font-size: 14px; white-space: pre;&quot;&gt;Order_Priority&lt;/span&gt;" style="shape=partialRectangle;connectable=0;fillColor=none;top=0;left=0;bottom=0;right=0;align=left;spacingLeft=6;overflow=hidden;whiteSpace=wrap;html=1;fontColor=default;fontFamily=Helvetica;" vertex="1" parent="Ftb5WYysYISmJ9JLRI9I-53">
          <mxGeometry x="30" width="160" height="30" as="geometry">
            <mxRectangle width="160" height="30" as="alternateBounds" />
          </mxGeometry>
        </mxCell>
        <mxCell id="Ftb5WYysYISmJ9JLRI9I-56" style="shape=tableRow;horizontal=0;startSize=0;swimlaneHead=0;swimlaneBody=0;fillColor=none;collapsible=0;dropTarget=0;points=[[0,0.5],[1,0.5]];portConstraint=eastwest;top=0;left=0;right=0;bottom=0;fontColor=default;fontFamily=Helvetica;" vertex="1" parent="Ftb5WYysYISmJ9JLRI9I-31">
          <mxGeometry y="270" width="190" height="30" as="geometry" />
        </mxCell>
        <mxCell id="Ftb5WYysYISmJ9JLRI9I-57" style="shape=partialRectangle;connectable=0;fillColor=none;top=0;left=0;bottom=0;right=0;editable=1;overflow=hidden;whiteSpace=wrap;html=1;fontColor=default;fontFamily=Helvetica;" vertex="1" parent="Ftb5WYysYISmJ9JLRI9I-56">
          <mxGeometry width="30" height="30" as="geometry">
            <mxRectangle width="30" height="30" as="alternateBounds" />
          </mxGeometry>
        </mxCell>
        <mxCell id="Ftb5WYysYISmJ9JLRI9I-58" value="&lt;span style=&quot;font-size: 14px; white-space: pre;&quot;&gt;Warehouse_Code&lt;/span&gt;" style="shape=partialRectangle;connectable=0;fillColor=none;top=0;left=0;bottom=0;right=0;align=left;spacingLeft=6;overflow=hidden;whiteSpace=wrap;html=1;fontColor=default;fontFamily=Helvetica;" vertex="1" parent="Ftb5WYysYISmJ9JLRI9I-56">
          <mxGeometry x="30" width="160" height="30" as="geometry">
            <mxRectangle width="160" height="30" as="alternateBounds" />
          </mxGeometry>
        </mxCell>
        <mxCell id="Ftb5WYysYISmJ9JLRI9I-59" style="shape=tableRow;horizontal=0;startSize=0;swimlaneHead=0;swimlaneBody=0;fillColor=none;collapsible=0;dropTarget=0;points=[[0,0.5],[1,0.5]];portConstraint=eastwest;top=0;left=0;right=0;bottom=0;fontColor=default;fontFamily=Helvetica;" vertex="1" parent="Ftb5WYysYISmJ9JLRI9I-31">
          <mxGeometry y="300" width="190" height="30" as="geometry" />
        </mxCell>
        <mxCell id="Ftb5WYysYISmJ9JLRI9I-60" style="shape=partialRectangle;connectable=0;fillColor=none;top=0;left=0;bottom=0;right=0;editable=1;overflow=hidden;whiteSpace=wrap;html=1;fontColor=default;fontFamily=Helvetica;" vertex="1" parent="Ftb5WYysYISmJ9JLRI9I-59">
          <mxGeometry width="30" height="30" as="geometry">
            <mxRectangle width="30" height="30" as="alternateBounds" />
          </mxGeometry>
        </mxCell>
        <mxCell id="Ftb5WYysYISmJ9JLRI9I-61" value="&lt;span style=&quot;font-size: 14px; white-space: pre;&quot;&gt;Ship_Mode&lt;/span&gt;" style="shape=partialRectangle;connectable=0;fillColor=none;top=0;left=0;bottom=0;right=0;align=left;spacingLeft=6;overflow=hidden;whiteSpace=wrap;html=1;fontColor=default;fontFamily=Helvetica;" vertex="1" parent="Ftb5WYysYISmJ9JLRI9I-59">
          <mxGeometry x="30" width="160" height="30" as="geometry">
            <mxRectangle width="160" height="30" as="alternateBounds" />
          </mxGeometry>
        </mxCell>
        <mxCell id="Ftb5WYysYISmJ9JLRI9I-62" style="shape=tableRow;horizontal=0;startSize=0;swimlaneHead=0;swimlaneBody=0;fillColor=none;collapsible=0;dropTarget=0;points=[[0,0.5],[1,0.5]];portConstraint=eastwest;top=0;left=0;right=0;bottom=0;fontColor=default;fontFamily=Helvetica;" vertex="1" parent="Ftb5WYysYISmJ9JLRI9I-31">
          <mxGeometry y="330" width="190" height="30" as="geometry" />
        </mxCell>
        <mxCell id="Ftb5WYysYISmJ9JLRI9I-63" style="shape=partialRectangle;connectable=0;fillColor=none;top=0;left=0;bottom=0;right=0;editable=1;overflow=hidden;whiteSpace=wrap;html=1;fontColor=default;fontFamily=Helvetica;" vertex="1" parent="Ftb5WYysYISmJ9JLRI9I-62">
          <mxGeometry width="30" height="30" as="geometry">
            <mxRectangle width="30" height="30" as="alternateBounds" />
          </mxGeometry>
        </mxCell>
        <mxCell id="Ftb5WYysYISmJ9JLRI9I-64" value="&lt;span style=&quot;font-size: 14px; white-space: pre;&quot;&gt;Delivery_Status&lt;/span&gt;" style="shape=partialRectangle;connectable=0;fillColor=none;top=0;left=0;bottom=0;right=0;align=left;spacingLeft=6;overflow=hidden;whiteSpace=wrap;html=1;fontColor=default;fontFamily=Helvetica;" vertex="1" parent="Ftb5WYysYISmJ9JLRI9I-62">
          <mxGeometry x="30" width="160" height="30" as="geometry">
            <mxRectangle width="160" height="30" as="alternateBounds" />
          </mxGeometry>
        </mxCell>
        <mxCell id="Ftb5WYysYISmJ9JLRI9I-65" style="shape=tableRow;horizontal=0;startSize=0;swimlaneHead=0;swimlaneBody=0;fillColor=none;collapsible=0;dropTarget=0;points=[[0,0.5],[1,0.5]];portConstraint=eastwest;top=0;left=0;right=0;bottom=0;fontColor=default;fontFamily=Helvetica;" vertex="1" parent="Ftb5WYysYISmJ9JLRI9I-31">
          <mxGeometry y="360" width="190" height="30" as="geometry" />
        </mxCell>
        <mxCell id="Ftb5WYysYISmJ9JLRI9I-66" style="shape=partialRectangle;connectable=0;fillColor=none;top=0;left=0;bottom=0;right=0;editable=1;overflow=hidden;whiteSpace=wrap;html=1;fontColor=default;fontFamily=Helvetica;" vertex="1" parent="Ftb5WYysYISmJ9JLRI9I-65">
          <mxGeometry width="30" height="30" as="geometry">
            <mxRectangle width="30" height="30" as="alternateBounds" />
          </mxGeometry>
        </mxCell>
        <mxCell id="Ftb5WYysYISmJ9JLRI9I-67" value="&lt;span style=&quot;font-size: 14px; white-space: pre;&quot;&gt;Customer_Satisfaction&lt;/span&gt;" style="shape=partialRectangle;connectable=0;fillColor=none;top=0;left=0;bottom=0;right=0;align=left;spacingLeft=6;overflow=hidden;whiteSpace=wrap;html=1;fontColor=default;fontFamily=Helvetica;" vertex="1" parent="Ftb5WYysYISmJ9JLRI9I-65">
          <mxGeometry x="30" width="160" height="30" as="geometry">
            <mxRectangle width="160" height="30" as="alternateBounds" />
          </mxGeometry>
        </mxCell>
        <mxCell id="Ftb5WYysYISmJ9JLRI9I-68" style="shape=tableRow;horizontal=0;startSize=0;swimlaneHead=0;swimlaneBody=0;fillColor=none;collapsible=0;dropTarget=0;points=[[0,0.5],[1,0.5]];portConstraint=eastwest;top=0;left=0;right=0;bottom=0;fontColor=default;fontFamily=Helvetica;" vertex="1" parent="Ftb5WYysYISmJ9JLRI9I-31">
          <mxGeometry y="390" width="190" height="30" as="geometry" />
        </mxCell>
        <mxCell id="Ftb5WYysYISmJ9JLRI9I-69" style="shape=partialRectangle;connectable=0;fillColor=none;top=0;left=0;bottom=0;right=0;editable=1;overflow=hidden;whiteSpace=wrap;html=1;fontColor=default;fontFamily=Helvetica;" vertex="1" parent="Ftb5WYysYISmJ9JLRI9I-68">
          <mxGeometry width="30" height="30" as="geometry">
            <mxRectangle width="30" height="30" as="alternateBounds" />
          </mxGeometry>
        </mxCell>
        <mxCell id="Ftb5WYysYISmJ9JLRI9I-70" value="&lt;span style=&quot;font-size: 14px; white-space: pre;&quot;&gt;Item_Returned&lt;/span&gt;" style="shape=partialRectangle;connectable=0;fillColor=none;top=0;left=0;bottom=0;right=0;align=left;spacingLeft=6;overflow=hidden;whiteSpace=wrap;html=1;fontColor=default;fontFamily=Helvetica;" vertex="1" parent="Ftb5WYysYISmJ9JLRI9I-68">
          <mxGeometry x="30" width="160" height="30" as="geometry">
            <mxRectangle width="160" height="30" as="alternateBounds" />
          </mxGeometry>
        </mxCell>
        <mxCell id="Ftb5WYysYISmJ9JLRI9I-71" style="shape=tableRow;horizontal=0;startSize=0;swimlaneHead=0;swimlaneBody=0;fillColor=none;collapsible=0;dropTarget=0;points=[[0,0.5],[1,0.5]];portConstraint=eastwest;top=0;left=0;right=0;bottom=0;fontColor=default;fontFamily=Helvetica;" vertex="1" parent="Ftb5WYysYISmJ9JLRI9I-31">
          <mxGeometry y="420" width="190" height="30" as="geometry" />
        </mxCell>
        <mxCell id="Ftb5WYysYISmJ9JLRI9I-72" style="shape=partialRectangle;connectable=0;fillColor=none;top=0;left=0;bottom=0;right=0;editable=1;overflow=hidden;whiteSpace=wrap;html=1;fontColor=default;fontFamily=Helvetica;" vertex="1" parent="Ftb5WYysYISmJ9JLRI9I-71">
          <mxGeometry width="30" height="30" as="geometry">
            <mxRectangle width="30" height="30" as="alternateBounds" />
          </mxGeometry>
        </mxCell>
        <mxCell id="Ftb5WYysYISmJ9JLRI9I-73" value="&lt;span style=&quot;font-size: 14px; white-space: pre;&quot;&gt;Return_Reason&lt;/span&gt;" style="shape=partialRectangle;connectable=0;fillColor=none;top=0;left=0;bottom=0;right=0;align=left;spacingLeft=6;overflow=hidden;whiteSpace=wrap;html=1;fontColor=default;fontFamily=Helvetica;" vertex="1" parent="Ftb5WYysYISmJ9JLRI9I-71">
          <mxGeometry x="30" width="160" height="30" as="geometry">
            <mxRectangle width="160" height="30" as="alternateBounds" />
          </mxGeometry>
        </mxCell>
        <mxCell id="Ftb5WYysYISmJ9JLRI9I-74" style="shape=tableRow;horizontal=0;startSize=0;swimlaneHead=0;swimlaneBody=0;fillColor=none;collapsible=0;dropTarget=0;points=[[0,0.5],[1,0.5]];portConstraint=eastwest;top=0;left=0;right=0;bottom=0;fontColor=default;fontFamily=Helvetica;" vertex="1" parent="Ftb5WYysYISmJ9JLRI9I-31">
          <mxGeometry y="450" width="190" height="30" as="geometry" />
        </mxCell>
        <mxCell id="Ftb5WYysYISmJ9JLRI9I-75" style="shape=partialRectangle;connectable=0;fillColor=none;top=0;left=0;bottom=0;right=0;editable=1;overflow=hidden;whiteSpace=wrap;html=1;fontColor=default;fontFamily=Helvetica;" vertex="1" parent="Ftb5WYysYISmJ9JLRI9I-74">
          <mxGeometry width="30" height="30" as="geometry">
            <mxRectangle width="30" height="30" as="alternateBounds" />
          </mxGeometry>
        </mxCell>
        <mxCell id="Ftb5WYysYISmJ9JLRI9I-76" value="&lt;span style=&quot;font-size: 14px; white-space: pre;&quot;&gt;Payment_Type&lt;/span&gt;" style="shape=partialRectangle;connectable=0;fillColor=none;top=0;left=0;bottom=0;right=0;align=left;spacingLeft=6;overflow=hidden;whiteSpace=wrap;html=1;fontColor=default;fontFamily=Helvetica;" vertex="1" parent="Ftb5WYysYISmJ9JLRI9I-74">
          <mxGeometry x="30" width="160" height="30" as="geometry">
            <mxRectangle width="160" height="30" as="alternateBounds" />
          </mxGeometry>
        </mxCell>
        <mxCell id="Ftb5WYysYISmJ9JLRI9I-77" style="shape=tableRow;horizontal=0;startSize=0;swimlaneHead=0;swimlaneBody=0;fillColor=none;collapsible=0;dropTarget=0;points=[[0,0.5],[1,0.5]];portConstraint=eastwest;top=0;left=0;right=0;bottom=0;fontColor=default;fontFamily=Helvetica;" vertex="1" parent="Ftb5WYysYISmJ9JLRI9I-31">
          <mxGeometry y="480" width="190" height="30" as="geometry" />
        </mxCell>
        <mxCell id="Ftb5WYysYISmJ9JLRI9I-78" style="shape=partialRectangle;connectable=0;fillColor=none;top=0;left=0;bottom=0;right=0;editable=1;overflow=hidden;whiteSpace=wrap;html=1;fontColor=default;fontFamily=Helvetica;" vertex="1" parent="Ftb5WYysYISmJ9JLRI9I-77">
          <mxGeometry width="30" height="30" as="geometry">
            <mxRectangle width="30" height="30" as="alternateBounds" />
          </mxGeometry>
        </mxCell>
        <mxCell id="Ftb5WYysYISmJ9JLRI9I-79" value="&lt;span style=&quot;font-size: 14px; white-space: pre;&quot;&gt;Taxable&lt;/span&gt;" style="shape=partialRectangle;connectable=0;fillColor=none;top=0;left=0;bottom=0;right=0;align=left;spacingLeft=6;overflow=hidden;whiteSpace=wrap;html=1;fontColor=default;fontFamily=Helvetica;" vertex="1" parent="Ftb5WYysYISmJ9JLRI9I-77">
          <mxGeometry x="30" width="160" height="30" as="geometry">
            <mxRectangle width="160" height="30" as="alternateBounds" />
          </mxGeometry>
        </mxCell>
        <mxCell id="Ftb5WYysYISmJ9JLRI9I-80" style="shape=tableRow;horizontal=0;startSize=0;swimlaneHead=0;swimlaneBody=0;fillColor=none;collapsible=0;dropTarget=0;points=[[0,0.5],[1,0.5]];portConstraint=eastwest;top=0;left=0;right=0;bottom=0;fontColor=default;fontFamily=Helvetica;" vertex="1" parent="Ftb5WYysYISmJ9JLRI9I-31">
          <mxGeometry y="510" width="190" height="30" as="geometry" />
        </mxCell>
        <mxCell id="Ftb5WYysYISmJ9JLRI9I-81" style="shape=partialRectangle;connectable=0;fillColor=none;top=0;left=0;bottom=0;right=0;editable=1;overflow=hidden;whiteSpace=wrap;html=1;fontColor=default;fontFamily=Helvetica;" vertex="1" parent="Ftb5WYysYISmJ9JLRI9I-80">
          <mxGeometry width="30" height="30" as="geometry">
            <mxRectangle width="30" height="30" as="alternateBounds" />
          </mxGeometry>
        </mxCell>
        <mxCell id="Ftb5WYysYISmJ9JLRI9I-82" value="&lt;span style=&quot;font-size: 14px; white-space: pre;&quot;&gt;Region&lt;/span&gt;" style="shape=partialRectangle;connectable=0;fillColor=none;top=0;left=0;bottom=0;right=0;align=left;spacingLeft=6;overflow=hidden;whiteSpace=wrap;html=1;fontColor=default;fontFamily=Helvetica;" vertex="1" parent="Ftb5WYysYISmJ9JLRI9I-80">
          <mxGeometry x="30" width="160" height="30" as="geometry">
            <mxRectangle width="160" height="30" as="alternateBounds" />
          </mxGeometry>
        </mxCell>
        <mxCell id="Ftb5WYysYISmJ9JLRI9I-83" style="shape=tableRow;horizontal=0;startSize=0;swimlaneHead=0;swimlaneBody=0;fillColor=none;collapsible=0;dropTarget=0;points=[[0,0.5],[1,0.5]];portConstraint=eastwest;top=0;left=0;right=0;bottom=0;fontColor=default;fontFamily=Helvetica;" vertex="1" parent="Ftb5WYysYISmJ9JLRI9I-31">
          <mxGeometry y="540" width="190" height="30" as="geometry" />
        </mxCell>
        <mxCell id="Ftb5WYysYISmJ9JLRI9I-84" style="shape=partialRectangle;connectable=0;fillColor=none;top=0;left=0;bottom=0;right=0;editable=1;overflow=hidden;whiteSpace=wrap;html=1;fontColor=default;fontFamily=Helvetica;" vertex="1" parent="Ftb5WYysYISmJ9JLRI9I-83">
          <mxGeometry width="30" height="30" as="geometry">
            <mxRectangle width="30" height="30" as="alternateBounds" />
          </mxGeometry>
        </mxCell>
        <mxCell id="Ftb5WYysYISmJ9JLRI9I-85" value="&lt;span style=&quot;font-size: 14px; white-space: pre;&quot;&gt;Country&lt;/span&gt;" style="shape=partialRectangle;connectable=0;fillColor=none;top=0;left=0;bottom=0;right=0;align=left;spacingLeft=6;overflow=hidden;whiteSpace=wrap;html=1;fontColor=default;fontFamily=Helvetica;" vertex="1" parent="Ftb5WYysYISmJ9JLRI9I-83">
          <mxGeometry x="30" width="160" height="30" as="geometry">
            <mxRectangle width="160" height="30" as="alternateBounds" />
          </mxGeometry>
        </mxCell>
        <mxCell id="Ftb5WYysYISmJ9JLRI9I-86" style="edgeStyle=orthogonalEdgeStyle;rounded=0;orthogonalLoop=1;jettySize=auto;html=1;exitX=0;exitY=0.5;exitDx=0;exitDy=0;entryX=1;entryY=0.5;entryDx=0;entryDy=0;" edge="1" parent="1" source="Ftb5WYysYISmJ9JLRI9I-3" target="Ftb5WYysYISmJ9JLRI9I-41">
          <mxGeometry relative="1" as="geometry" />
        </mxCell>
        <mxCell id="Ftb5WYysYISmJ9JLRI9I-87" style="edgeStyle=orthogonalEdgeStyle;rounded=0;orthogonalLoop=1;jettySize=auto;html=1;exitX=1;exitY=0.5;exitDx=0;exitDy=0;entryX=0;entryY=0.5;entryDx=0;entryDy=0;" edge="1" parent="1" source="Ftb5WYysYISmJ9JLRI9I-16" target="Ftb5WYysYISmJ9JLRI9I-38">
          <mxGeometry relative="1" as="geometry" />
        </mxCell>
      </root>
    </mxGraphModel>
  </diagram>
</mxfile>
